<?xml version="1.0" encoding="UTF-8"?>
<svg id="Layer_1" data-name="Layer 1" xmlns="http://www.w3.org/2000/svg" viewBox="0 0 1864.9 1043.32">
  <g>
    <path d="M22.16,905.35c21.99-3.63,44-7.12,66.04-10.47-.59,11.97-1.09,23.95-1.52,35.93-9.41,1.14-18.82,2.31-28.23,3.51-.6,23.65-1.01,47.3-1.21,70.96,11.19-.56,16.77-.83,27.92-1.36-.07,12.36-.04,24.73.09,37.09-21.38.06-42.77.13-64.15.2-11.58-.17-20.94-9.43-21.1-21.04,0-29.99,0-59.99,0-89.98.41-12.43,10.17-22.57,22.16-24.85ZM34.01,937.49c-5.11.68-9.33,5.42-9.39,10.58-.2,16.51-.34,33.01-.44,49.52-.03,5.19,4.02,9.18,9.04,8.92.15-23.01.42-46.01.79-69.01Z"/>
    <path d="M0,782.24c32.5-7.94,65.08-15.45,97.78-22.49-1.43,15.73-2.75,31.47-3.98,47.21-.78,13.31-11.47,24.98-23.28,29.84-12.78,4.72-25.55,9.45-38.31,14.19-3.43,1.27-5.99,4.59-6.06,7.87,21.58-4.27,43.18-8.38,64.81-12.33-.77,11.82-1.48,23.64-2.11,35.47C59.18,886.78,29.57,891.85,0,897.19v-44.68c.68-12.94,10.55-25.04,22.74-29.33,13.31-5.11,26.63-10.2,39.95-15.27,1.62-.62,2.86-2.19,2.95-3.75.09-1.45.13-2.18.21-3.64C43.87,805.26,21.92,810.17,0,815.25v-33.01Z"/>
    <path d="M98.98,746.71C65.87,753.93,32.89,761.65,0,769.8c0-11,0-22.01,0-33.01,33.99-8.68,68.09-16.88,102.33-24.51-1.15,11.48-2.26,22.96-3.35,34.44Z"/>
    <path d="M0,567.05c38.83-7.76,77.74-14.98,116.79-21.57-.88,10.57-1.77,21.13-2.64,31.7-27.04,4.97-54.01,10.25-80.93,15.81-.07,2.9,2.77,4.76,6.67,4.4,24.31-1.8,48.63-3.38,72.98-4.68-1.54,18.85-3.06,37.71-4.52,56.57-23.44,8.4-46.77,17.06-70.02,25.96-4.05,1.49-7.09,4.93-7.16,8.1,25.26-6.26,50.56-12.25,75.96-17.94-1.08,11.31-2.28,22.61-3.46,33.91-34.69,7.78-69.23,16.14-103.66,25v-45.48c1.05-14.53,14.24-26.65,27.58-30.92,16.41-5.79,32.86-11.48,49.35-17.07.13-2.33.19-3.5.32-5.83-16.45,1.5-32.89,3.16-49.32,4.93C15.89,631.6.4,626.35,0,612.08v-45.03Z"/>
    <path d="M32.59,418.53c31.62-3.98,63.26-7.64,94.95-10.96-.71,10.52-1.46,21.03-2.24,31.54-13.36,1.56-26.71,3.19-40.05,4.9-1.08,21.39-2.21,42.78-3.37,64.16,12.81-2.02,25.64-3.96,38.48-5.84-.86,10.53-1.73,21.07-2.61,31.6-29.28,4.77-58.5,9.89-87.67,15.3C18.54,552.04,1.06,548.01,0,533.89v-89.98c1.54-14.96,19.04-24.13,32.59-25.38ZM49.99,448.66c-7.44,1.02-13.61,5.89-13.71,10.83-.34,15.8-.69,31.59-1.05,47.38-.11,4.95,5.64,7.96,12.78,6.77.68-21.66,1.35-43.33,1.98-64.99Z"/>
    <path d="M40.84,286.76c.42,15.18.81,30.37,1.17,45.55,29.67-2.69,59.36-5.12,89.08-7.28,1.46,10.27.18,21.13-.39,31.42-29.62,2.51-59.21,5.3-88.79,8.35-.27,15.28-.57,30.56-.88,45.85-13.69,1.68-27.36,3.44-41.04,5.23v-125.98c13.61-1.1,27.22-2.14,40.84-3.13Z"/>
    <path d="M33.03,146.95c15.86-.35,31.73-.64,47.6-.86,13.63.21,33.32,7.44,35.34,23.38,3.58,27.52,6.68,55.08,9.34,82.7,1.94,17.63-21.27,23.19-33.75,25.23-17.94,1.07-35.88,2.23-53.81,3.47C23.32,281.99,1.22,276.78,0,259.06v-86.66c1.27-15.73,18.27-25.74,33.03-25.44h0ZM81.99,186.8c-.42-4.71-6.12-8.41-12.75-8.24-7.97.21-11.97.32-20.01.55-6.69.2-11.98,4.25-11.79,9.04.7,17.15,1.34,34.31,1.94,51.47.16,4.77,6.12,8.31,13.25,7.93,8.57-.46,12.83-.68,21.3-1.1,7.05-.35,12.46-4.4,12.12-9.08-1.23-16.86-2.56-33.72-4.06-50.56Z"/>
    <path d="M61.6,28.5C69.95,19.41,77.9,9.96,85.3.09c3.12,13.65,6.12,27.32,9,41.03-8.54,9.61-17.49,18.86-26.73,27.81-.2.19-.29.44-.25.71,1.42,11.12,2.79,22.24,4.12,33.37,11.49-.05,22.98-.09,34.47-.11,1.78,10.71,3.5,21.42,5.16,32.14C74.04,135.33,37.02,135.9,0,136.75c0-37.27,0-74.55,0-111.82C.26,13.68,9.4,4.7,20.64,4.56c6.68,0,10.02,0,16.69,0,11.61.31,21.65,8.97,23.75,20.38.21,1.42.32,2.14.53,3.56ZM31.46,36.57c-2.75,0-4.86,2.03-4.7,4.53,1.25,20.74,2.41,41.49,3.48,62.25,4.54-.05,6.81-.07,11.33-.11-1.46-20.72-3.04-41.43-4.75-62.14-.21-2.5-2.61-4.52-5.36-4.52Z"/>
  </g>
  <g>
    <path d="M123.22,908.19c20.84-2.65,41.7-5.17,62.57-7.58-.58,9.68-1.05,19.38-1.4,29.08-14.89,1.43-29.78,2.91-44.67,4.43-.1,2.52,1.39,4.51,3.5,4.7,13.59,1.58,27.15,3.33,40.7,5.24-.4,17.69-.53,35.37-.39,53.07-13.64,3.67-27.29,7.28-40.96,10.82-2.33.54-4.03,3.01-4,5.85,15.08-.46,30.16-.91,45.24-1.35.23,10.29.6,20.6,1.1,30.88h-63.77c-.3-13.27-.44-26.55-.44-39.83.05-9.7,5.78-19.24,15.41-22.01,9.31-2.35,18.61-4.73,27.91-7.15.02-2.13.03-3.2.06-5.33-11.07-1.4-16.61-2.06-27.73-3.31-8.74-.98-15.04-9.26-14.72-19.54.4-12.66.93-25.32,1.59-37.98Z"/>
    <path d="M147.03,867.75c1.47-.22,2.21-.32,3.67-.54,2.08-25.68,4.61-51.29,7.54-76.89,5.45-.97,8.16-1.45,13.56-2.38-3.12,25.76-5.8,51.53-7.98,77.38,1.46-.21,2.19-.31,3.64-.52,1.43-.2,2.7-1.7,2.84-3.35,2.19-24.93,4.84-49.78,7.93-74.62,7.68-1.31,11.49-1.95,19.07-3.19-4.02,30.44-7.31,60.91-9.79,91.51-.64,8.38-6.8,15.92-13.88,16.79-12.28,1.51-24.55,3.08-36.82,4.7-7.19.95-12.69-4.83-12.18-12.9,1.98-29.6,4.48-59.13,7.45-88.65,7.91-1.48,11.84-2.2,19.65-3.61-2.74,24.54-5.11,49.09-7.09,73.7-.13,1.62.95,2.77,2.39,2.55Z"/>
    <path d="M160.83,679.44c13.78-2.71,27.57-5.37,41.39-7.86,7.89-1.42,12.99,3.7,11.54,11.41-5.58,30.1-10.64,60.26-15.05,90.56-21.9,3.69-43.76,7.59-65.58,11.7,3.26-29.72,6.93-59.38,10.93-89.01,1.04-7.62,8.62-15.16,16.78-16.79ZM183.31,700.35c-4.7.88-7.06,1.33-11.81,2.24-3.95.76-7.64,4.5-8.21,8.35-2.12,14.59-4.16,29.18-6.11,43.79,10.15-1.92,15.18-2.84,25.15-4.63,2.19-14.71,4.48-29.39,6.88-44.07.64-3.87-1.98-6.42-5.9-5.69h0Z"/>
    <path d="M218.22,659.81c-23.72,4.18-47.36,8.68-70.96,13.47,1.47-10.31,2.09-15.25,3.1-24.75,24.04-4.77,48.12-9.24,72.28-13.37-1.49,9.32-2.37,14.24-4.42,24.64Z"/>
    <path d="M161.55,550.5c18.54-2.87,37.1-5.6,55.68-8.18,12.21-1.67,20.55,4.66,18.88,14.03-3.16,17.74-6.26,35.49-9.27,53.26-2.5,11-12.68,18.71-23.4,20.77-17.42,3.09-34.81,6.33-52.17,9.72,1.03-9.47,1.55-14.2,2.61-23.62,14.6-2.7,29.21-5.31,43.85-7.83,4.19-.71,7.98-4.04,8.5-7.44,1.51-9.88,3.06-19.75,4.63-29.62.54-3.38-2.51-5.61-6.83-4.96-15.1,2.31-30.17,4.72-45.24,7.22,1.1-9.36,1.65-14.02,2.75-23.35Z"/>
    <path d="M175.09,431.66c27.98-2.79,55.98-5.29,84.02-7.45-1.42,8.96-2.15,13.44-3.64,22.41-19.66,1.68-39.31,3.54-58.94,5.6-.26,2.04,1.62,3.55,4.41,3.58,17.57.47,35.13,1.06,52.68,1.78-2.26,13.28-4.58,26.54-6.94,39.8-17.61,4.25-35.17,8.64-52.71,13.16-3.02.74-5.48,2.93-5.78,5.16,18.81-2.48,37.63-4.82,56.47-7.01-1.61,9.01-2.43,13.53-4.06,22.58-26.07,3.3-52.08,6.93-78.07,10.85,1.26-10.67,2.52-21.35,3.78-32.02,1.94-10.59,12.28-17.33,22.1-19.62,12.21-2.87,24.44-5.67,36.69-8.39.26-1.64.38-2.46.64-4.1-11.9-.12-23.8-.16-35.7-.13-11.43.03-19.31-6.13-18.37-14.61,1.17-10.52,2.31-21.04,3.41-31.57Z"/>
    <path d="M206.55,397.3c2.25-.18,3.38-.27,5.63-.44,2.55-22.92,5.12-45.85,6.38-68.88,10.01-.52,14.96-.76,24.79-1.21-1.42,22.85-4.25,45.58-7.08,68.29,11.13-.79,16.64-1.16,27.54-1.83-1.29,8.98-1.96,13.46-3.35,22.43-28.18,2.07-56.32,4.47-84.45,7.17,3.1-30.89,6.36-61.85,7.67-92.87,10.26-.63,15.34-.93,25.42-1.48-1.14,22.28-3.51,44.47-5.85,66.66-.15,1.35,1.34,2.32,3.31,2.16Z"/>
    <path d="M232.78,234.77c10.53-.13,15.75-.17,26.13-.24,4.97,27.98,8.95,56.02,12.08,84.27-29.31,1.06-58.61,2.43-87.89,4.09-.77-9.05-1.18-13.58-2.05-22.66,20.25-.96,40.5-1.83,60.76-2.51-2.57-21.06-5.56-42.02-9.01-62.96Z"/>
    <path d="M157.9,141.96c18.93,0,37.86.08,56.79.22,11.35.24,23.64,6.3,27.49,17.62,4.56,17.66,8.74,35.38,12.53,53.22,1.87,11.72-11.31,17.15-20.84,16.99-20.3.21-40.6.58-60.9,1.04-1.27-9.22-1.94-13.84-3.37-23.12,16.52-.27,33.04-.47,49.56-.57,4.76-.03,8.07-2.77,7.39-6.13-1.98-9.87-4.11-19.73-6.38-29.53-.79-3.41-5.17-6.2-9.79-6.21-15.97-.05-31.95-.02-47.92.06-1.73-9.4-2.64-14.11-4.55-23.58Z"/>
    <path d="M234.95,133.96c-26.27-.32-52.53-.49-78.8-.54-1.98-9.5-3.02-14.27-5.19-23.85,25.56.13,51.13.36,76.69.71,3.07,9.53,4.53,14.27,7.3,23.67Z"/>
    <path d="M135.77,4.28c12.61.01,25.22.03,37.82.05,7.33,0,16,6.09,19.2,13.51,11.65,27.45,22.3,55.19,31.89,83.43-25.27-.35-50.55-.6-75.82-.75-6.66-27.88-14.09-55.5-22.27-82.97-2.22-7.31,1.85-13.28,9.18-13.27ZM169.76,29.36c-4.63-.03-6.95-.05-11.58-.08-3.86-.02-6,2.92-4.81,6.55,4.36,13.52,8.55,27.08,12.57,40.71,11.1.1,16.64.16,27.67.29-4.59-13.68-9.38-27.26-14.37-40.8-1.37-3.65-5.63-6.65-9.48-6.67h0Z"/>
  </g>
  <g>
    <path d="M292.87,447.68c21.08-1.51,42.16-2.83,63.26-3.94-1.74,7.19-2.63,10.79-4.42,17.99-14.85.9-29.7,1.9-44.54,2.98-.35,1.63.93,2.9,3.01,2.99,13.12.83,26.22,1.77,39.32,2.83-2.71,10.68-5.45,21.36-8.2,32.03-13.56,2.88-27.09,5.91-40.6,8.99-2.32.5-4.32,2.18-4.72,3.97,14.31-1.37,28.63-2.66,42.96-3.84-1.88,7.27-2.83,10.91-4.72,18.23-19.85,1.75-39.66,3.81-59.46,6.02,2.15-10.29,3.23-15.42,5.37-25.65,1.42-6.8,9.09-13.22,18-15.07,9.35-1.94,18.71-3.83,28.09-5.66.32-1.32.48-1.98.79-3.29-10.52-.51-15.85-.74-26.67-1.15-8.51-.32-13.86-5.49-12.48-12.26,2.05-10.08,3.05-15.11,5.02-25.16Z"/>
    <path d="M306.44,370.63c15.77-.65,31.54-1.2,47.32-1.61,10.41-.27,17.59,5.6,16.11,13.03-2.85,13.98-5.87,27.9-9.03,41.81-1.71,7.4-11.14,13.78-21.16,14.32-15.18.86-30.35,1.81-45.52,2.86,1.42-7.37,2.12-11.06,3.48-18.43,12.67-.8,25.34-1.51,38.02-2.14,3.64-.18,7.04-2.48,7.61-5.14,1.97-9.3,2.92-13.95,4.74-23.26.52-2.67-2.05-4.73-5.77-4.6-12.91.46-25.82,1.01-38.73,1.65,1.22-7.39,1.81-11.08,2.94-18.49Z"/>
    <path d="M332.91,345.34c.45-.01.68-.02,1.13-.03,1.53-.04,2.9-.95,3.05-2.03,2.42-13.68,1.59-25.67-.11-39.34-.65-5.25,5.01-9.56,12.64-9.58,5.13-.01,7.68-.02,12.76-.01,7.56,0,14.2,4.26,14.84,9.44,2.55,20.74.09,38.43-3.65,58.88-7.66.13-11.52.22-19.29.4,2.53-14.84,8.34-34.07,4.51-49.12-.12-1.04-1.44-1.87-2.96-1.86-.62,0-.93,0-1.54.01-1.29,0-2.25.73-2.15,1.61,2.8,13.01-.74,26.91-2.78,39.78-.86,5.38-7.66,9.89-15.24,10.13-5.1.16-7.66.24-12.81.42-7.66.27-13.28-3.9-12.52-9.36,2.86-21.1,2.73-38.8-.08-59.97,8.18-.12,12.24-.17,20.31-.24,2.28,16.69,4.19,32.18,1.4,48.96-.15,1.09.97,1.93,2.5,1.9Z"/>
    <path d="M375.14,288.3c-22.43-.11-44.86-.04-67.29.2-1.01-7.24-1.55-10.87-2.71-18.16,22.4-.11,44.8-.06,67.21.16,1.21,7.15,1.77,10.71,2.79,17.81Z"/>
    <path d="M324.74,245.67c7.94.05,11.88.08,19.73.17,1.52.02,2.57-.84,2.35-1.91-3.48-16.86-7.59-33.52-12.07-50.13,8.14.17,12.19.27,20.25.47,5.56,19.98,10.37,40.02,14.46,60.35,1.02,5.31-4.28,9.51-11.84,9.44-13.15-.12-26.3-.18-39.45-.16-7.74,0-14.8-4.31-15.76-9.71-3.79-20.53-8.16-40.86-13.15-61.14,8.32.1,12.45.16,20.69.29,4.3,16.7,8.26,33.45,11.63,50.37.21,1.08,1.63,1.96,3.16,1.97Z"/>
    <path d="M353.24,188.2c-21.85-.54-43.69-.97-65.55-1.28-1.98-7.59-3.03-11.41-5.22-19.09,21.62.36,43.23.83,64.85,1.4,2.5,7.64,3.69,11.43,5.92,18.96Z"/>
    <path d="M267.86,82.01c15.06.3,30.11.63,45.16.98,3.82,8.19,5.65,12.25,9.15,20.3-8.02-.21-12.04-.31-20.11-.51,5.35,13.13,10.45,26.31,15.29,39.63,8.35.21,12.51.32,20.79.55,2.89,7.79,4.26,11.66,6.86,19.34-16.14-.45-32.28-.83-48.43-1.14-8.88-.17-17.75-5.8-19.89-12.66-5.79-18.13-12.03-36.04-18.72-53.86-2.73-7.1,1.64-12.8,9.89-12.64ZM284.73,102.38c-3.62-.08-5.59,2.33-4.42,5.36,3.67,9.5,7.17,19.1,10.46,28.73,1.02,2.97,4.88,5.43,8.63,5.52-4.56-13.33-9.54-26.49-14.67-39.61Z"/>
    <path d="M216.45,1.47c17.79.01,35.59.02,53.38.03,5.7,9.76,11.28,19.55,16.77,29.43,4.23,7.73,1.97,14.17-5.22,15.4-8.7,1.48-13.09,2.22-21.95,3.69-1.97.33-2.72,2.04-1.79,4.06,13.87.22,27.73.45,41.6.71,4.29,8.39,6.34,12.55,10.29,20.79-19.86-.45-39.73-.85-59.6-1.19-3.83-9.36-7.82-18.67-11.97-27.88-3.36-7.51-.75-13.95,6.31-15.23,8.66-1.57,12.95-2.36,21.45-3.95.87-.16,1.13-.98.61-1.95-.48-.9-.72-1.36-1.21-2.26-12.71-.11-25.43-.21-38.14-.31-4.06-8.47-6.16-12.74-10.52-21.34Z"/>
  </g>
  <g>
    <path d="M394.62,439.42c19.37-.62,38.73-1.07,58.11-1.33-2.15,6.87-3.25,10.31-5.47,17.2-13.65.25-27.3.61-40.95,1.09-.45,1.56.61,2.83,2.5,3,11.92,1.33,23.82,2.77,35.71,4.32-3.37,10.23-6.78,20.45-10.2,30.67-12.64,2.21-25.27,4.53-37.87,6.96-2.16.38-4.13,1.92-4.65,3.63,13.19-.74,26.38-1.35,39.57-1.85-2.35,6.97-3.53,10.47-5.89,17.49-18.27.86-36.53,1.92-54.78,3.15,2.85-9.87,4.28-14.78,7.11-24.57,1.88-6.51,9.41-12.37,17.7-13.78,10.53-1.79,15.75-2.64,26.12-4.29.4-1.26.6-1.89,1-3.15-9.57-.93-14.42-1.38-24.25-2.22-7.73-.66-12.17-5.87-10.36-12.33,2.7-9.62,4.02-14.42,6.6-24.01Z"/>
    <path d="M412.3,365.85c14.43-.05,28.87-.01,43.3.11,9.54.1,15.79,6.02,13.99,13.13-3.4,13.41-7.11,26.74-11.06,40-2.1,7.08-11.23,12.87-20.44,13.01-13.93.21-27.86.57-41.78.99,1.86-7.03,2.78-10.55,4.55-17.58,11.62-.26,23.24-.47,34.87-.62,3.34-.04,6.62-2.12,7.32-4.67,2.46-8.88,3.64-13.33,5.9-22.24.65-2.55-1.58-4.63-4.98-4.64-11.82-.01-23.65.05-35.47.19,1.58-7.06,2.34-10.59,3.79-17.67Z"/>
    <path d="M437.76,342.42c.41,0,.62,0,1.03.01,1.4.01,2.69-.82,2.88-1.85,3.19-12.77,1.84-24.88.38-37.75-.58-5.06,4.64-9.04,11.67-8.84,4.73.14,7.08.21,11.77.36,6.97.23,13.06,4.53,13.56,9.54,1.84,20.5-.6,36.44-5,56.62-7.02-.13-10.55-.19-17.67-.27,3.2-14.73,8.67-31.92,5.58-47.12-.09-1-1.29-1.85-2.69-1.88-.57-.01-.85-.02-1.42-.04-1.18-.03-2.07.63-1.99,1.48,2.23,12.92-.93,25.56-3.5,38.16-1.05,5.16-7.51,9.27-14.45,9.24-4.66-.03-7.01-.03-11.72-.04-7,0-11.9-4.21-10.93-9.44,3.67-20.54,3.31-36.89.74-57.48,7.53.13,11.27.21,18.7.38,2.09,15.69,4.43,31.37.83,47.01-.19,1.04.79,1.9,2.19,1.91Z"/>
    <path d="M477.33,288.87c-20.71-.74-41.41-1.32-62.13-1.75-1-6.98-1.56-10.48-2.77-17.53,20.79.51,41.58,1.16,62.36,1.97,1.14,6.97,1.65,10.43,2.54,17.32Z"/>
    <path d="M430.11,246.27c7.41.24,11.1.38,18.43.65,1.42.05,2.38-.75,2.15-1.8-3.66-16.62-8.17-32.96-13.13-49.23,7.71.32,11.54.49,19.18.84,6.02,19.54,11.41,39.23,15.26,59.33,1.01,5.19-3.91,9.12-10.93,8.86-12.22-.46-24.45-.86-36.67-1.2-7.19-.2-13.84-4.55-14.88-9.79-3.95-20.16-9.2-39.98-14.99-59.67,7.86.26,11.77.4,19.56.69,4.89,16.31,9.35,32.69,13.01,49.33.23,1.05,1.57,1.94,3.01,1.99Z"/>
    <path d="M454.78,190.73c-20.7-.93-41.41-1.76-62.12-2.48-2.36-7.47-3.6-11.23-6.26-18.82,20.58.73,41.16,1.56,61.74,2.47,2.83,7.6,4.15,11.37,6.63,18.83Z"/>
    <path d="M364.26,83.81c14.64.43,29.28.88,43.91,1.35,4.55,8.32,6.72,12.44,10.85,20.58-7.77-.29-11.66-.43-19.46-.71,6.37,13.15,12.43,26.37,18.18,39.8,8,.32,11.99.49,19.93.84,3.33,7.81,4.9,11.67,7.86,19.33-15.4-.68-30.79-1.31-46.2-1.9-8.47-.32-17.33-6.01-19.95-12.82-6.97-18.29-14.93-36.14-23.26-53.85-3.43-7.15.12-12.85,8.14-12.62ZM382.79,104.46c-3.5-.12-5.15,2.28-3.72,5.32,4.48,9.48,8.74,19.1,12.75,28.78,1.23,2.97,5.12,5.46,8.72,5.6-5.62-13.39-11.53-26.59-17.75-39.71Z"/>
    <path d="M303,1.5c17.67.01,35.34.03,53.01.04,6.98,10.01,13.78,20.13,20.39,30.39,5.13,7.95,3.67,14.54-3.22,15.76-8.34,1.48-12.55,2.21-21.02,3.67-1.89.32-2.4,2.06-1.24,4.12,13.58.29,27.15.61,40.73.93,5.16,8.58,7.62,12.83,12.33,21.22-19.35-.58-38.69-1.13-58.04-1.64-4.89-9.55-10.06-18.94-15.26-28.32-4.3-7.65-2.65-14.22,4.12-15.51,8.3-1.58,12.41-2.37,20.57-3.98.83-.16.98-1.01.35-2-.59-.93-.89-1.4-1.49-2.33-12.55-.14-25.1-.27-37.65-.4-5.23-8.69-7.94-13.07-13.59-21.95Z"/>
  </g>
  <g>
    <path d="M397.58,1018.33c4.4-.06,6.6-.09,11-.14.85-.01,1.38-1.04,1.19-2.3-2.7-18.74-4.93-37.47-6.67-56.33,4.46-.18,6.69-.26,11.15-.43,2.29,23.13,5.37,46.05,9.17,68.98,1.11,6.38-1.41,11.62-5.73,11.63-8.92.02-13.37.02-22.29.04-4.32,0-8.65-5.12-9.58-11.38-3.18-22.56-5.68-45.11-7.45-67.83,4.48-.19,6.72-.28,11.19-.46,1.58,18.73,3.64,37.35,6.15,55.98.18,1.25,1.01,2.25,1.86,2.24Z"/>
    <path d="M401.17,874c5.47-.37,9.76,5.58,9.76,13.4-.04,17.05.7,34.07,1.7,51.08.54,8.22-3.48,15.17-9.18,15.41-6.04.25-9.06.38-15.11.64-5.71.25-10.78-6.22-11.16-14.33-.67-16.84-1.1-33.67-.82-50.53.11-7.75,4.79-14.27,10.28-14.66,5.82-.41,8.73-.61,14.52-1.01ZM400.22,897.98c-.02-2.81-1.62-4.98-3.59-4.85-2.37.15-3.55.23-5.92.38-1.97.13-3.59,2.49-3.58,5.29,0,10.19.22,20.41.65,30.6.12,2.88,1.86,5.15,3.87,5.04,2.42-.12,3.63-.18,6.05-.3,2.01-.1,3.51-2.54,3.38-5.44-.5-10.22-.78-20.49-.85-30.72Z"/>
    <path d="M384.73,784.87c11.2-.96,22.4-1.87,33.61-2.74-.97,6.85-1.42,10.3-2.24,17.26-9.6.72-14.43,1.11-24.13,1.92-.19,1.55.5,2.8,1.62,2.95,8.65,1.43,12.96,2.16,21.55,3.68-1.14,10.5-2.04,21.06-2.69,31.6-8.97,2.86-13.48,4.31-22.54,7.23-1.28.38-2.31,1.94-2.41,3.7,9.81-.75,14.69-1.11,24.42-1.8-.38,7.31-.52,11-.72,18.44-11.43.78-22.86,1.59-34.29,2.43.4-10.18.68-15.21,1.39-25.16.47-6.62,4.48-12.48,9.33-13.9,6.17-1.8,9.24-2.7,15.36-4.47.11-1.29.17-1.93.28-3.22-5.89-.85-8.84-1.26-14.75-2.07-4.65-.64-7.61-5.86-6.87-12.26,1.11-9.54,1.72-14.25,3.08-23.59Z"/>
    <path d="M406.21,711.56c2.94-.23,4.41-.35,7.33-.57,4.22-.32,6.62,3.63,5.45,8.85-2.97,13.18-5.62,26.43-7.93,39.74,4.4-.35,6.6-.51,10.98-.84-1.16,6.69-1.71,10.06-2.73,16.87-11.2.87-22.4,1.78-33.59,2.74,3.07-19.02,6.62-37.88,10.66-56.71,1.16-5.24,5.61-9.74,9.84-10.08ZM406.75,726.91c-.32.03-.48.04-.81.06-.77.06-1.56.89-1.76,1.85-2.19,10.59-4.25,21.18-6.17,31.82,1.43-.12,2.15-.18,3.58-.3,1.93-10.64,3.98-21.22,6.18-31.81.21-.96-.25-1.68-1.02-1.62Z"/>
    <path d="M415.6,648.43c9.82-.66,14.69-.95,24.33-1.45,5.4-.28,8.16,4.55,6.26,10.82-3.6,11.92-6.97,23.91-10.09,35.96-1.67,6.48-7.26,12.07-12.6,12.45-9.53.67-14.33,1.04-24.01,1.83,1.52-6.4,2.31-9.58,3.92-15.9,7.99-.63,11.96-.93,19.85-1.47,1.92-.13,3.96-2.11,4.57-4.41,2.14-8.04,3.25-12.02,5.53-19.92.65-2.26-.37-4-2.29-3.88-7.93.48-11.92.74-19.97,1.32,1.77-6.18,2.67-9.25,4.51-15.35Z"/>
    <path d="M444.28,591.41c-2.46,7.35-3.68,11.06-6.05,18.53,9.58-.47,14.33-.66,23.72-.97-1.76,5.28-2.37,7.47-4.38,13.38-9.33.34-14.03.54-23.54,1.03-2.76,8.41-4.12,12.64-6.76,21.19-4.27.25-6.41.39-10.72.67,5.51-17.78,10.99-35.58,16.7-53.3,4.43-.23,6.63-.33,11.02-.52Z"/>
    <path d="M450.57,575.74c.83-.03,1.24-.05,2.06-.08,4.2-11.98,8.53-23.92,12.95-35.82,3.03-.08,4.54-.12,7.55-.19-4.49,11.88-8.89,23.79-13.14,35.75.82-.03,1.23-.04,2.05-.07.8-.03,1.67-.66,1.94-1.42,4.13-11.49,8.4-22.93,12.74-34.34,4.28-.09,6.42-.13,10.67-.2-5.35,13.83-10.59,27.69-15.69,41.61-1.37,3.79-5.66,6.97-9.62,7.11-8.18.27-12.3.44-20.62.82-4.03.18-6.3-2.76-5.02-6.59,4.76-14.05,9.64-28.05,14.62-42.02,4.38-.15,6.56-.22,10.89-.35-4.22,11.46-8.36,22.95-12.38,34.48-.26.76.18,1.35.99,1.31Z"/>
    <path d="M492.95,494.45c6.54-4.24,9.82-6.34,16.37-10.49-2.38,6.02-3.58,9.04-5.99,15.1-6.45,4.16-9.67,6.27-16.1,10.52-.11.07-.19.17-.23.27-1.96,5.05-2.94,7.58-4.89,12.66,4.81-.08,7.21-.11,11.98-.16-1.95,4.94-2.93,7.42-4.88,12.4-12.15.17-24.3.47-36.44.87,5.1-14.07,10.24-28.13,15.38-42.19,1.54-4.2,6.88-7.67,11.9-7.72,2.94-.03,4.41-.04,7.34-.07,4.99-.04,7.71,3.32,6.1,7.49-.2.53-.31.79-.51,1.32ZM479.22,497.59c-1.11.01-2.29.78-2.64,1.72-3.5,9.34-5.27,14.03-8.79,23.48,1.58-.04,2.36-.06,3.93-.09,3.55-9.44,5.33-14.12,8.86-23.45.35-.93-.26-1.68-1.36-1.66Z"/>
    <path d="M498.31,447.73c4.59.03,6.87.05,11.42.1.88,0,1.8-.56,2.06-1.27,3.93-10.86,7.76-21.73,11.5-32.66,4.89.12,7.33.19,12.17.33-4.61,13.2-9.4,26.32-14.34,39.41-1.35,3.54-5.95,6.36-10.28,6.33-8.95-.08-13.47-.1-22.59-.09-4.42,0-7-2.89-5.74-6.48,4.61-13.29,9.09-26.62,13.4-40.02,5.01.07,7.5.11,12.45.2-3.64,10.99-7.37,21.93-11.21,32.85-.25.71.26,1.3,1.15,1.3Z"/>
    <path d="M522.9,359.99c6.9.26,10.33.4,17.13.7,6.42.28,10.51,4.59,9.14,9.58-3.04,10.62-6.22,21.13-9.58,31.65-1.62,4.95-8.01,8.8-14.29,8.63-6.65-.18-10-.25-16.74-.38-6.36-.12-10.3-4.27-8.78-9.29,3.15-10.68,6.14-21.36,8.99-32.12,1.3-5.06,7.62-9,14.13-8.76h0ZM534.99,376.06c.5-1.79-.95-3.31-3.24-3.4-2.75-.1-4.13-.16-6.9-.25-2.3-.08-4.57,1.31-5.06,3.11-2.11,7.73-3.22,11.59-5.54,19.29-.54,1.79.87,3.28,3.15,3.34,2.74.07,4.1.11,6.82.19,2.26.07,4.55-1.32,5.1-3.1,2.38-7.66,3.52-11.49,5.68-19.18Z"/>
    <path d="M515.69,297.06c13.93.7,27.85,1.43,41.77,2.29.38,4.87.53,7.29.76,12.11-9.87-.6-19.74-1.15-29.62-1.64.07,1.08,1.17,2.05,2.6,2.29,11.06,2.06,16.51,3.1,27.26,5.23.3,8.52.33,12.74-1.54,21.45-10.81.93-16.27,1.42-27.32,2.47-1.56.12-2.89,1.09-3.15,2.29,9.7.41,19.41.88,29.11,1.4-1.12,4.9-1.7,7.34-2.93,12.2-13.53-.67-27.06-1.24-40.6-1.71,1.6-6.8,2.35-10.21,3.75-17.06.93-4.55,5.96-8.27,11.87-8.73,7.52-.57,11.22-.84,18.44-1.33-.02-.86-.03-1.3-.05-2.16-7.27-1.27-10.94-1.9-18.36-3.14-5.83-.97-10.33-4.92-10.62-9.36-.44-6.61-.71-9.93-1.38-16.61Z"/>
    <path d="M516.63,242.74c3.74.21,5.6.31,9.32.53,5.36.31,10.41,3.93,11.23,8.04,2.02,9.99,3.67,20.16,4.9,30.28,5.52.32,8.27.49,13.73.83.58,4.94.84,7.39,1.27,12.28-13.95-.86-27.91-1.61-41.88-2.32-1.77-14.35-4.01-28.5-6.75-42.69-.85-4.12,2.79-7.24,8.18-6.94ZM524.35,255.38c-.41-.02-.61-.03-1.02-.06-.97-.05-1.65.51-1.51,1.25,1.84,9.74,2.6,14.55,3.87,24.09,1.81.1,2.71.15,4.51.25-1.25-9.54-2-14.35-3.83-24.08-.14-.74-1.04-1.39-2.02-1.45Z"/>
    <path d="M491.59,188.68c10.21.54,20.41,1.11,30.61,1.71,6.82.4,13.91,5.26,15.69,10.78,3.14,10.15,6.21,20.28,8.71,30.61,1.31,5.34-3.21,9.27-10,8.85-10.17-.62-20.34-1.2-30.52-1.74-1.19-5.14-1.82-7.72-3.18-12.92,10.15.55,15.19.83,25.21,1.43,2.44.14,4.01-1.29,3.5-3.2-1.78-6.7-2.74-10.07-4.83-16.89-.6-1.95-3.08-3.66-5.52-3.8-10.04-.59-15.09-.87-25.25-1.41-1.68-5.32-2.57-8.01-4.44-13.4Z"/>
    <path d="M481.88,133.31c3.86,8.1,5.68,12.11,9.09,20.03,9.77.5,19.54,1.02,29.31,1.57,2.47,5.65,3.65,8.46,5.89,14.02-9.8-.57-19.6-1.12-29.4-1.64,3.11,7.8,4.57,11.65,7.27,19.28-5.36-.3-8.05-.44-13.44-.73-6.62-18.07-13.94-35.68-21.96-53.16,5.31.25,7.96.37,13.24.63Z"/>
    <path d="M474.33,115.86c.98.04,1.46.07,2.44.11-7.47-14.39-15.39-28.57-23.82-42.43,3.4.11,5.1.17,8.5.28,8.52,13.89,16.51,28.1,24.05,42.54.97.04,1.46.07,2.43.11.96.04,1.36-.62.91-1.49-7.34-13.92-15.09-27.62-23.34-41.02,4.85.16,7.27.25,12.11.41,9.88,16.29,19.22,32.76,28.03,49.65,2.2,4.32.01,7.58-4.79,7.34-9.91-.5-14.88-.74-24.86-1.21-4.84-.23-10.4-3.84-12.52-8.11-8.43-16.65-17.35-32.92-26.78-49.03,4.87.15,7.31.23,12.17.39,8.09,13.34,15.69,26.97,22.9,40.81.45.87,1.59,1.6,2.55,1.64Z"/>
    <path d="M424.95,15.26c.94-5.69,1.32-8.57,1.88-14.44,6.43,8.47,9.53,12.65,15.49,20.91-.99,5.6-1.57,8.36-2.92,13.8-.02.09.01.22.11.35,4.57,6.66,6.78,9.95,11.05,16.48,5.28.13,7.92.2,13.2.34,4.24,6.41,6.29,9.58,10.25,15.86-13.57-.44-27.15-.86-40.72-1.26-11.33-18.38-23.2-36.32-35.57-54.02-3.97-5.61-3.24-10.21,1.8-10.2,2.95,0,4.43,0,7.38.01,5.04,0,12.62,4.69,16.75,10.37.52.72.79,1.08,1.31,1.8ZM414.84,19.21c-1.14-.01-1.36.99-.48,2.24,7.05,10.04,13.92,20.22,20.57,30.53,1.71.04,2.57.06,4.28.11-6.69-10.33-13.6-20.53-20.7-30.59-.88-1.25-2.53-2.27-3.67-2.28Z"/>
  </g>
  <g>
    <path d="M850.61,941.48c4.24,11.19,8.77,22.28,13.57,33.25,10,.25,19.99.51,29.99.76,4.41,9.55,6.75,14.39,11.71,24.24-10.16-.17-20.32-.33-30.48-.49,5.77,12.09,11.83,24.04,18.12,35.86-5.64-.02-8.47-.02-14.11-.04-15.69-30.68-29.87-61.85-42.05-94.09,5.3.2,7.95.3,13.25.5Z"/>
    <path d="M877.83,937.35c-14.14-.58-28.27-1.15-42.41-1.72-3.3-9.22-4.82-13.75-7.64-22.69,13.92.68,27.83,1.38,41.75,2.08,3.08,8.8,4.73,13.26,8.3,22.33Z"/>
    <path d="M806.03,806.55c12.91,1.21,25.83,2.45,38.74,3.7.87,7.55,1.39,11.38,2.64,19.16-9.4-.83-18.8-1.65-28.2-2.46.24,1.75,1.45,3.33,2.83,3.72,9,2.79,18.01,5.56,27.02,8.31,2.22,12.05,4.93,24.02,8.08,35.86-9.94,1.84-14.92,2.78-24.9,4.71-1.42.23-2.09,1.91-1.54,3.97,9.78.61,19.57,1.22,29.35,1.84,2.43,8.43,3.76,12.71,6.65,21.41-13.83-.75-27.67-1.48-41.5-2.21-2.97-9.83-5.66-19.8-8.01-29.79-1.85-7.76.97-13.93,6.34-14.73,6.83-1.01,10.24-1.5,17.05-2.47-.32-1.47-.48-2.21-.79-3.67-7.44-2.03-11.14-3.05-18.52-5.09-5.8-1.6-11.05-8.28-12.13-15.58-1.61-10.88-2.22-16.21-3.11-26.67Z"/>
    <path d="M817.48,782.43c.88.09,1.32.14,2.21.24-.33-16.63-.16-33.23,1.47-49.8,3.05.39,4.58.59,7.64.99-1.55,16.53-1.63,33.08-1.2,49.66.88.09,1.32.14,2.21.24.87.09,1.53-.7,1.49-1.78-.54-15.87-.29-31.82,1.15-47.64,4.37.57,6.55.86,10.93,1.43-1.23,19.42-1.25,38.5-.17,57.93.39,5.42-2.72,9.53-7.12,9.09-9.07-.9-13.6-1.35-22.65-2.24-4.39-.43-8.27-5.31-8.51-10.81-.61-19.65-.34-39.17,1.69-58.75,4.35.55,6.53.83,10.89,1.4-1.6,15.9-2.03,31.94-1.66,47.91.03,1.08.76,2.03,1.63,2.12Z"/>
    <path d="M855.77,637.63c6.06.99,6.65,7.74,3.71,15.16-5.27,15.39-8.7,31.58-11.57,47.57-11.96-1.77-23.93-3.51-35.9-5.22,3.22-15.15,6.98-29.99,11.35-44.85,2.42-7.95,9.01-13.31,14.97-12.27,3.3.58,5.05,2.9,5.35,6.23,3.3-4.66,7.76-7.33,12.1-6.62ZM829.29,681.11c2.22-9.64,3.46-14.38,6.17-23.73.34-1.17-.22-2.25-1.24-2.41-1.03-.17-2.14.64-2.48,1.81-2.73,9.36-3.98,14.1-6.22,23.76,1.51.23,2.27.34,3.78.57ZM846.84,653.99c-1.17-.19-2.43.72-2.82,2.04-3.02,10.33-4.4,15.57-6.81,26.26,1.72.26,2.58.4,4.3.66,2.38-10.67,3.75-15.9,6.74-26.22.38-1.32-.25-2.54-1.42-2.73Z"/>
    <path d="M868.94,575.96c10.26,1.89,15.39,2.84,25.67,4.76-3.02,5.37-4.52,8.06-7.44,13.48-4.51-.83-6.76-1.24-11.27-2.07-4.94,9.06-9.68,18.27-14.14,27.58,4.54.8,6.81,1.2,11.36,2.01-2.67,5.57-3.97,8.37-6.47,14.03-10.46-1.81-15.68-2.71-26.09-4.47-4.73-.8-6.72-5.53-4.35-10.52,6.2-12.73,12.68-25.26,19.45-37.7,2.65-4.8,8.62-7.96,13.28-7.1ZM866.24,590.38c-2.01-.37-4.55,1.01-5.66,3.09-4.26,7.95-6.34,11.95-10.34,20.06-1.05,2.12-.24,4.13,1.79,4.48,4.49-9.32,9.26-18.55,14.22-27.63Z"/>
    <path d="M882.31,558.75c.23.04.34.06.57.11.77.15,1.78-.37,2.24-1.15,5.74-9.62,11.53-19.2,17.36-28.76,2.37-3.87,7.42-6.41,11.29-5.66,2.6.5,3.9.75,6.5,1.25,3.86.74,5.07,4.47,2.71,8.34-8.81,14.37-17.49,28.83-25.87,43.45-4.05-.76-6.07-1.14-10.12-1.89,6.98-12.06,14.1-24.02,21.32-35.94.47-.78.23-1.52-.55-1.67-.31-.06-.47-.09-.78-.15-.65-.12-1.51.31-1.91.96-5.84,9.65-11.63,19.32-17.35,29.05-2.28,3.92-7.26,6.54-11.14,5.82-2.61-.48-3.91-.73-6.52-1.21-3.88-.72-5.19-4.5-2.89-8.44,8.54-14.6,17.32-29.05,26.16-43.47,4.04.77,6.05,1.15,10.08,1.92-7.28,11.89-14.51,23.8-21.65,35.78-.46.78-.21,1.53.57,1.68Z"/>
    <path d="M915.39,504.26c.79.15,1.18.23,1.97.38,7.48-12.33,14.88-24.7,22.12-37.18,2.84.54,4.27.8,7.11,1.34-7.26,12.47-14.67,24.85-22.17,37.19.79.15,1.18.23,1.97.38.77.15,1.78-.36,2.26-1.13,7.21-11.87,14.39-23.76,21.33-35.79,4.05.76,6.08,1.15,10.13,1.91-8.42,14.6-17.19,28.99-26,43.36-2.37,3.86-7.42,6.39-11.29,5.65-7.97-1.53-11.96-2.3-19.94-3.82-3.87-.74-5.09-4.47-2.73-8.34,8.75-14.33,17.45-28.71,25.76-43.3,4.07.77,6.11,1.15,10.17,1.91-6.9,12.03-14.03,23.93-21.24,35.77-.47.77-.22,1.52.55,1.67Z"/>
    <path d="M963.12,407.85c8.23,1.45,12.32,2.18,20.5,3.61,3.96.7,5.64,4.61,3.69,8.7-7.66,15.68-15.81,31.02-24.36,46.24-11.41-2.14-22.83-4.29-34.24-6.43,8.39-15.13,16.36-30.39,23.82-46.01,1.89-4.07,6.61-6.82,10.59-6.12ZM969.83,424.07c-2.37-.43-3.56-.64-5.93-1.07-1.98-.36-4.38,1-5.37,3.01-4.5,9.12-6.86,13.63-11.71,22.57,5.19.96,7.79,1.45,12.97,2.41,4.89-8.96,7.26-13.48,11.81-22.61,1.01-2.02.21-3.95-1.76-4.31h0Z"/>
    <path d="M979.47,300.78c12.36,1.65,24.71,3.29,37.07,4.91-.5,6.76-.82,10.1-1.61,16.71-10.48-1.46-15.74-2.2-26.29-3.68-.15,1.45.63,2.82,1.85,3.22,9.43,3.39,14.11,5.09,23.4,8.48-1.3,9.49-3.01,19.02-5.09,28.37-9.75.48-14.63.71-24.41,1.12-1.38.03-2.63,1.15-2.97,2.64,10.28,1.65,15.39,2.47,25.59,4.09-1.48,6.22-2.28,9.29-3.97,15.39-11.81-1.95-23.61-3.92-35.41-5.89,2.17-8.31,3.16-12.51,4.9-21.03,1.16-5.67,5.74-9.99,10.97-10.13,6.64-.18,9.96-.27,16.59-.47.2-1.15.3-1.73.5-2.88-6.23-2.14-9.36-3.21-15.66-5.34-4.95-1.68-7.98-7.2-7.31-13.12,1-8.81,1.38-13.28,1.84-22.38Z"/>
    <path d="M992.63,279.37c.87.11,1.31.16,2.19.27-.15-17.03-1.59-33.83-3.7-50.71,3.24.32,4.86.47,8.1.79,2.01,16.94,3.36,33.8,3.42,50.88.87.11,1.31.16,2.18.26.86.1,1.55-.64,1.55-1.67-.09-16.4-1.09-32.84-3.29-49.09,4.62.45,6.93.67,11.55,1.12,2.12,19.72,3.44,39.46,2.71,59.31-.17,5.09-3.83,8.71-8.06,8.16-8.73-1.13-13.1-1.69-21.87-2.84-4.25-.55-7.56-5.01-7.52-10.02.24-19.6-1.6-39.02-4.24-58.41,4.64.46,6.96.68,11.59,1.14,2.37,16.14,3.55,32.48,3.81,48.79.01,1.02.71,1.93,1.57,2.04Z"/>
    <path d="M962.43,142.8c9.73.57,14.59.85,24.31,1.42,4.71.27,10.18,5.61,12.01,11.82,6.36,22.53,11.4,45,14.96,68.12-13.06-1.22-26.11-2.45-39.17-3.69-4.2-22.81-9.87-44.91-16.85-67.03-2.01-6.1.01-10.91,4.73-10.64ZM984.66,164.68c-2.79-.19-4.18-.28-6.97-.47-2.32-.16-3.47,2.17-2.62,5.17,3,11.02,5.71,21.95,8.17,33.09,6,.51,8.99.77,14.98,1.28-2.35-11.21-4.94-22.21-7.82-33.3-.82-3.02-3.41-5.62-5.74-5.77h0Z"/>
    <path d="M992.75,137.06c-13.87-.75-27.73-1.52-41.59-2.28-3.16-8.52-4.86-12.85-8.51-21.63,14.07.64,28.15,1.28,42.22,1.92,3.4,8.94,4.97,13.33,7.88,22Z"/>
    <path d="M901.28,10.45c11.35.04,22.7.09,34.05.13,4.68,8.32,9.24,16.74,13.64,25.21-5.86-.08-8.79-.12-14.65-.2,8.29,15.8,16.17,31.72,23.63,47.93,5.67.18,8.51.28,14.18.46,4.09,9.32,6,13.91,9.58,22.94-10.65-.44-21.29-.89-31.94-1.34-5.81-.25-13.23-6.79-16.91-14.79-10.13-22.02-21.5-43.37-33.42-64.46-5-8.71-4.34-15.92,1.84-15.89ZM921.76,35.43c-2.62-.04-3.08,2.96-1.09,6.65,6.12,11.38,11.97,22.89,17.53,34.55,1.68,3.53,5.05,6.43,7.59,6.51-7.59-16.14-15.61-31.99-24.03-47.71Z"/>
  </g>
  <g>
    <path d="M747.78,1025.28c-30.78-.16-61.55-.31-92.33-.44-6.05-18.13-11.63-36.33-16.69-54.76,29.77.52,59.54,1.11,89.31,1.73,6.09,18.02,12.67,35.79,19.71,53.47Z"/>
    <path d="M622.74,738.13c25.71,1.92,51.38,4.12,77.04,6.54-1.42,12.88-2.27,25.81-2.56,38.76-18.86-1.54-37.73-2.99-56.6-4.34-.21,3.6,1.64,6.83,4.31,7.59,17.43,5.49,34.85,11.01,52.26,16.54.85,25.95,3.45,51.33,7.6,76.95-17.63,3.85-35.23,7.8-52.81,11.86-3.03.6-4.73,4.43-3.93,9.09,20.44.77,40.87,1.59,61.31,2.46,3.52,16.48,7.94,32.73,12.63,48.91-29.41-.79-58.81-1.53-88.22-2.19-5.13-22.58-9.32-45.16-12.46-68.11-1.41-13.09,2.48-29.34,16.89-33.01,12-2.12,24.01-4.17,36.02-6.17-.28-3.18-.4-4.76-.63-7.9-12.24-3.39-24.49-6.77-36.74-10.14-13.47-4.73-19.7-18.87-19.51-32.43,1.01-18.28,2.77-36.31,5.38-54.42Z"/>
    <path d="M688.4,591.39c18.03,2.16,36.02,4.51,54,7.04-4.83,9.98-9.47,19.98-13.96,30.12-9.4-1.23-14.11-1.83-23.56-2.96-9.23,21.47-15.55,44.29-21.24,66.91,9.8,1.01,14.68,1.54,24.44,2.63-2.67,11.88-4.87,23.86-6.58,35.92-19.11-1.89-38.22-3.64-57.36-5.26-12.09-1.43-16.68-14.49-14.02-25.04,7.92-31.5,18.11-61.94,31.11-91.7,4.84-10.29,15.44-18.35,27.16-17.64ZM684.54,623.24c-4.25-.47-9.43,2.97-11.3,7.9-6.15,16.04-11.32,32.38-16.07,48.87-1.46,5.29,1.01,9.98,5.41,10.39,5.99-22.75,12.68-45.51,21.97-67.17Z"/>
    <path d="M716.29,553.15c8.55,1.15,12.8,1.74,21.26,2.97,1.64.24,3.71-.93,4.64-2.6,8.39-14.99,16.94-29.88,25.58-44.73.94-1.62.36-3.14-1.29-3.4-7.5-1.17-11.27-1.75-18.85-2.87,5.22-9.11,10.41-18.25,15.53-27.42,14.9,2.31,29.78,4.71,44.65,7.19-17.61,30.23-35.59,60.22-52.37,90.92-4.54,8.44-14.66,14.45-22.79,13.31-14.09-1.93-28.18-3.76-42.3-5.49-8.27-.99-11.48-8.89-6.98-17.54,16.41-31.17,33.89-61.73,50.77-92.64,9.39,1.32,14.05,1.99,23.3,3.38-14.08,25.2-28.52,50.19-42.46,75.46-.92,1.69-.33,3.24,1.33,3.46Z"/>
    <path d="M813.66,472.09c-24.63-4.13-49.28-8-74-11.56,4.82-9.03,9.49-18.16,13.95-27.38,25.05,3.65,50.04,7.6,75.01,11.8-4.82,9.13-9.84,18.18-14.96,27.14Z"/>
    <path d="M789.58,323.92c26.58,3.51,53.12,7.23,79.65,11.12-2.27,13.62-4.35,27.43-9.41,40.37-4.06,10.66-14.68,17.54-25.95,17.84-11.39.12-22.78.26-34.17.42-3.07.04-6.08,2.05-7.19,4.76,18.24,2.78,36.45,5.68,54.65,8.69-4.1,9.29-8.53,18.5-13.18,27.54-25.11-4.21-50.25-8.18-75.44-11.85,5.71-12.27,10.98-24.75,15.63-37.46,4.14-10.61,14.59-17.59,25.89-17.97,11.65-.23,23.29-.44,34.94-.64,1.42-.02,2.74-.98,3.15-2.28.38-1.22.57-1.82.93-3.04-18.27-2.79-36.56-5.47-54.86-8.05,2.33-9.63,4.14-19.59,5.36-29.42Z"/>
    <path d="M819.54,285.77c1.89.23,2.83.34,4.71.57-1.01-33.2-6.91-64.66-16.67-96.37,7.03.57,10.53.85,17.52,1.43,9.5,31.96,15.14,63.65,15.93,97.02,1.86.23,2.8.35,4.66.58,1.83.23,3.31-1.12,3.28-3.02-.53-32.13-6.54-63.14-15.54-93.89,9.96.82,14.92,1.24,24.81,2.07,10.3,37.53,15.38,74.39,13.86,113.3-.55,9.36-8.64,15.73-17.61,14.47-15.63-2.2-31.28-4.32-46.93-6.38-9.23-1.21-16.09-9.37-15.8-18.47.41-38.04-6.06-73.63-17.84-109.76,10.14.78,15.19,1.18,25.25,1.98,9.49,30.27,16.01,60.85,16.94,92.66.05,1.88,1.57,3.58,3.42,3.8Z"/>
    <path d="M688.25,8.95c18.19.06,36.38.13,54.58.19,14.68,1.53,29.11,13.74,36.89,25.8,29.83,45.59,56.75,93.24,74.09,145.11-28.3-2.19-56.6-4.32-84.91-6.36-20.46-50.49-48.79-96.05-80.8-140-4.08-4.86-14.84-24.89.15-24.74ZM756.35,55.93c-6.19-.14-9.29-.21-15.49-.35-5.16-.12-5.71,5.16-1.48,11.66,14.43,22.66,27.7,45.65,39.62,69.73,10.89.62,21.79,1.25,32.68,1.89-11.49-24.37-24.33-47.68-38.36-70.68-4.1-6.59-11.81-12.12-16.97-12.24,0,0,0,0,0,0Z"/>
  </g>
  <g>
    <path d="M774.24,973.9c2.29.05,3.43.08,5.71.13-16.08-44.73-28.18-89.99-34.28-137.18,9,.65,13.5.98,22.5,1.66,6.86,46.91,19.72,91.8,36.51,136.09,9.61.22,19.22.45,28.83.68,7.24,17.15,14.93,34.03,23.04,50.79-30.22-.18-60.44-.35-90.66-.51-25.11-61.12-45.19-124.78-51.23-190.89,9.01.62,13.51.93,22.52,1.57,5.6,45.4,16.68,89.01,31.52,132.24,1.04,2.94,3.53,5.37,5.53,5.42Z"/>
    <path d="M726.24,681.06c17.03,2.1,34.05,4.31,51.06,6.61,12.92,2.21,18.11,16.08,16.24,27.78-3.76,28.05-4.86,55.7-3.58,83.97,1.43,12.55-5.92,27.77-20.05,27.47-18.74-1.49-37.49-2.93-56.24-4.31-.93-13.33-1.3-26.7-1.07-40.06,15.01,1.32,30.02,2.69,45.02,4.1,4.38.41,7.82-3.81,7.84-9.35.11-15.59.94-31.21,2.82-46.69.61-5.17-2.19-9.72-6.37-10.22-14.33-1.72-28.66-3.38-43-4.99,1.99-11.53,4.43-22.97,7.31-34.31Z"/>
    <path d="M799.29,563.61c-7.27,13.04-14.3,26.16-21.06,39.48,15.9,2.5,31.78,5.11,47.64,7.82-4.7,9.42-9.14,19.05-13.23,28.75-15.98-2.58-31.97-5.04-47.99-7.39-6.53,14.04-10.44,29.74-14.32,44.66-8.9-1.17-13.35-1.74-22.27-2.84,11.56-40.64,29.23-77.17,49.66-114.04,8.65,1.39,12.97,2.11,21.57,3.56Z"/>
    <path d="M840.45,451.93c16.72,2.93,33.42,5.92,50.11,9,11.73,1.93,14.32,14.57,8.49,23.56-12.35,20.61-24.95,41.07-37.33,61.66-6.07,10.64-19.47,17.86-31.61,16.51-16.35-2.91-32.72-5.7-49.12-8.38,5.18-9.12,10.47-18.19,15.82-27.22,13.53,2.28,27.04,4.65,40.53,7.08,3.92.71,9.01-1.9,11.37-5.83,6.86-11.35,13.77-22.69,20.6-34.06,2.34-3.9,1.02-7.65-2.93-8.37-13.64-2.51-27.28-4.94-40.94-7.34,5.12-8.8,10.14-17.67,15-26.61Z"/>
    <path d="M931.74,359.06c9.87-7.36,19.56-14.98,29.02-22.86-1.94,12.9-4.57,25.7-7.83,38.33-10.35,7.45-21.45,13.89-32.4,20.4-.23.13-.41.34-.5.57-3.95,9.56-8.28,19.04-12.87,28.3,9.33,1.67,13.96,2.51,23.2,4.19-4.54,9.12-9.35,18.16-14.32,27.06-23.46-4.35-46.93-8.62-70.43-12.73,15.63-30.29,30.01-60.87,36.95-94.4,1.93-9.86,10.76-17.31,21-16,5.82.87,8.72,1.3,14.49,2.17,10.22,1.74,16.36,11.72,14.39,21.69-.27,1.32-.41,1.97-.69,3.28ZM905.41,362.45c-2.17-.35-4.35,1.19-4.89,3.44-5.72,18.28-13.02,35.61-21.08,52.98,3.06.54,4.58.8,7.63,1.34,8.13-17.39,15.52-34.73,21.31-53.04.54-2.26-.8-4.38-2.97-4.73Z"/>
    <path d="M914.12,290.45c1.78.23,2.67.35,4.44.58-.29-34-5.17-66.58-13.71-99.45,6.76.56,10.13.84,16.86,1.41,8.2,33.14,12.73,65.96,12.71,100.13,1.76.23,2.65.35,4.41.58,1.73.23,3.17-1.17,3.19-3.13-.16-33.03-4.52-64.83-12.29-96.91,9.6.8,14.39,1.21,23.95,2.01,8.7,38.87,12.38,77.08,9.81,116.85-.78,9.62-8.64,16.2-17.1,14.96-14.68-2.16-29.36-4.31-44.05-6.43-8.62-1.24-14.92-9.63-14.53-18.97.85-38.9-4.7-75.76-15.25-113.17,9.71.8,14.56,1.2,24.22,2,8.41,31.58,13.42,62.94,14.18,95.64.01,1.94,1.42,3.68,3.16,3.91Z"/>
    <path d="M881.67,138.24c.56.03.84.05,1.41.08,1.92.11,2.66-1.76,1.64-4.21-14.48-33.55-31.58-65.46-50.52-96.7-4.12-5.93-12.12-25.48,2.31-25.66,6.97.03,10.46.05,17.43.08,14.23,1.55,27.69,14.26,34.33,26.39,25.73,46.08,47.46,93.35,62.01,144.15-9.65-.75-14.48-1.12-24.16-1.88-12.36-40.37-29.21-78.34-49.01-115.6-1.48-2.73-4.35-4.99-6.36-5.04-.82-.02-1.22-.03-2.04-.05-1.7-.04-2.03,1.8-.75,4.1,16.6,30.7,31.25,61.97,43.19,94.78,4.16,11.88-.66,20.59-9.99,19.87-6.27-.48-9.41-.73-15.71-1.21-11.56-1.7-20.34-11.68-24.51-22.04-20.01-51.27-48.33-98.49-79.26-143.82,10.81.05,16.22.07,27.02.12,25.72,39.05,48.85,79.18,67.65,122.02,1.04,2.43,3.4,4.48,5.32,4.6Z"/>
  </g>
  <g>
    <path d="M472.07,990.9c8.82-.19,13.23-.28,22.04-.46,1.7-.03,2.69-2.18,2.22-4.78-6.39-37.33-10.43-74.61-11.64-112.47,8.6-.43,12.88-.63,21.44-1.02,2.06,46.96,8.72,93,18.89,138.87,2.21,8.42,1.82,23.81-9.93,24.72-15.19.05-30.38.09-45.57.14-11.7-1.14-18.69-13.4-20.52-23.88-7.52-45.21-11.79-90.4-12.11-136.24,8.69-.51,13.03-.76,21.68-1.23.67,37.55,4.02,74.61,9.65,111.74.41,2.57,2.14,4.64,3.85,4.6Z"/>
    <path d="M473.95,717.99c11.23-.54,16.81-.77,27.87-1.15,12.47-.14,15.98,13.93,13.82,23.83-5.3,30.67-8.47,61.26-9.67,92.36.13,12.01-6.74,27.42-19.89,29.24-9.7.49-19.39,1.01-29.09,1.56-13.76-.1-19.81-15.22-18.98-26.99,2.03-31.28,5.84-62.16,11.47-92.99,2.76-12.19,11.39-24.11,24.47-25.87h0ZM492.24,759.03c.79-5.02-1.55-8.91-5.31-8.73-4.52.21-6.79.33-11.33.56-3.78.2-7.58,4.41-8.4,9.45-2.85,18.63-5.07,37.23-6.69,56.01-.41,5.37,2.46,9.58,6.32,9.36,4.64-.27,6.95-.4,11.58-.65,3.85-.21,7.18-4.78,7.54-10.14,1.45-18.73,3.53-37.28,6.28-55.86Z"/>
    <path d="M502.4,568.49c22.85-.12,45.67.13,68.51.77-3.83,8.6-7.54,17.26-11.11,25.97-16-.46-32.01-.63-48.02-.6-.9,2.36.05,4.37,2.21,4.75,13.58,2.76,27.12,5.64,40.6,8.83-6.49,16.86-12.62,33.79-18.29,50.94-15.29,3.1-30.52,6.46-45.72,9.99-2.6.54-5.17,3.16-6.05,6.19,15.68-.51,31.37-.85,47.06-.95-3.09,10.33-5.79,20.74-8.44,31.19-22,.55-43.97,1.38-65.94,2.5,3.67-14.71,7.63-29.3,11.89-43.85,3.44-10.9,12.16-20.42,23.51-23.09,10.44-2.03,20.91-3.95,31.39-5.75.75-2.14,1.13-3.21,1.9-5.34-9.18-1.89-18.39-3.69-27.61-5.39-8.8-1.63-12.88-10.26-9.38-20.12,4.3-12.09,8.82-24.11,13.5-36.05Z"/>
    <path d="M564.93,459.15c6.51.22,9.74.35,16.16.61,9.26.39,13.85,7.04,10.3,14.83-9.03,19.72-18.17,39.39-27.18,59.13,9.14.24,13.67.39,22.66.74-4.68,9.91-7.01,14.92-11.61,25.06-22.99-.68-45.96-.99-68.96-.92,11.58-28.67,23.71-57.1,35.61-85.63,4.07-8.69,13.56-13.89,23-13.82ZM563.69,483.04c-.7-.02-1.05-.03-1.76-.05-1.67-.05-3.53,1.08-4.16,2.52-6.96,15.9-13.94,31.78-20.85,47.7,3.02.04,4.53.06,7.53.1,6.99-15.88,14.05-31.72,21.1-47.58.64-1.43-.2-2.64-1.87-2.69Z"/>
    <path d="M582.43,359.1c18.49,1.18,36.96,2.5,55.43,3.99,10.14.61,19.7,8.95,16.13,19.79-6.33,18.71-13.69,37.09-21.69,55.15-5.29,10.63-17.2,16.77-28.87,16.46-17.68-.89-35.37-1.61-53.07-2.16,3.92-9.76,5.84-14.62,9.53-24.35,14.83.6,29.65,1.29,44.48,2.1,4.25.24,8.85-2.4,10.28-5.91,4.06-10.19,7.95-20.37,11.7-30.68,1.25-3.53-1.27-6.66-5.61-6.97-15.14-1.04-30.28-1.99-45.43-2.83,3.06-9.8,4.5-14.71,7.12-24.6Z"/>
    <path d="M609.64,260.42c1.86,11.86,3.12,23.82,3.78,35.81,18.35,1.49,36.68,3.09,55,4.82.06,9.98-.12,14.9-.8,24.65-17.88-1.71-35.77-3.29-53.68-4.74.41,11.92-2.53,23.21-5.54,34.63-9.75-.7-14.67-1.04-24.62-1.66,7.68-31.92,4.63-63.23-.31-95.46,10.55.76,15.78,1.15,26.17,1.96Z"/>
    <path d="M605.47,228.83c1.96.15,2.94.22,4.9.37-6.76-27.53-16.84-53.78-28.46-79.58,7.07.44,10.59.66,17.62,1.12,11.64,25.87,21.69,52.2,28.29,79.84,1.94.16,2.91.23,4.84.39,1.9.15,3.14-1,2.75-2.6-6.5-26.67-16.25-52.1-27.5-77.1,10.01.65,15,.99,24.95,1.66,13.44,30.11,23.87,60.55,30.37,92.92,1.43,7.83-5.22,13.36-14.54,12.55-16.23-1.42-32.48-2.74-48.72-3.97-9.57-.72-18.54-7.48-20.27-15.27-7.54-31.72-18.27-61.86-31.6-91.59,10.19.59,15.27.89,25.38,1.51,11.24,25.04,20.56,50.13,27.8,76.6.41,1.59,2.29,2.99,4.21,3.13Z"/>
    <path d="M532.7,32.59c1.38-10.12,1.97-20.7,1.77-30.9,11.85,14.73,23.38,29.65,34.57,44.89-1.44,9.45-3.67,19.09-6.52,28.22-.06.19.01.44.19.71,7.12,10.91,13.95,22,20.44,33.3,11.01.57,16.49.86,27.44,1.45,5.94,10.28,11.56,20.74,16.83,31.39-28.2-1.81-56.4-3.51-84.62-5.09-19.23-38.17-41.83-73.9-66.71-108.63-4.52-5.4-10.9-22.1,2.67-21.44,6.07.02,9.11.03,15.18.06,13.75,1.23,27.85,11.3,35.9,22.24,1.15,1.53,1.72,2.29,2.85,3.81ZM511.93,40.59c-2.38-.05-2.8,2.01-.97,4.6,14.01,20.16,27.44,40.63,39.59,61.98,3.59.18,5.38.26,8.95.44-12.24-21.43-25.78-41.98-39.9-62.21-1.84-2.6-5.29-4.76-7.67-4.81Z"/>
  </g>
  <g>
    <path d="M563.89,976.38c.55-.01.82-.02,1.37-.03,1.86-.04,2.84-2.44,2.21-5.33-6.94-33.37-11.9-66.79-14.4-100.79-.72-9.45,3.37-22.12,14.33-23.36,5.69-.19,8.53-.29,14.2-.46,11.15,1.26,16.74,13.44,17.59,23.36,5.58,53.9,17.76,105.9,34.31,157.45-10.19-.04-15.3-.07-25.43-.02-13.23-43.49-23.39-87.31-29.3-132.4-.32-2.65-1.97-4.73-3.71-4.68-.71.02-1.06.03-1.77.06-1.47.05-2.47,1.89-2.21,4.12,4.42,35.63,11.44,70.51,20.53,105.23,2.73,8.93,3.53,26.68-9.62,27.8-6.54.03-9.81.05-16.35.09-13.33-1.58-21.32-15.35-24.39-27.19-11.12-50.1-17.89-100.28-18.79-151.62,8.9-.39,13.34-.57,22.2-.91,1.28,41.72,6.48,82.58,14.73,123.49.61,2.89,2.64,5.23,4.5,5.19Z"/>
    <path d="M550.12,793.97c8.55-.28,12.81-.41,21.3-.63,1.64-.04,3.08-1.94,3.24-4.22,2.74-33.14,8.16-65.43,16.45-97.62,8.66.14,13.11.49,21.91,1.13-9.87,39.5-15.12,78.94-16.19,119.64,0,9.24-5,20.67-15.65,20.93-14.46.45-28.91.96-43.36,1.52-10.62-.3-15.2-12.07-14.62-21.17,2.61-41.55,9.05-81.95,19.47-122.25,8.86-.07,13.27-.08,22.04-.05-8.4,32.54-14.12,65.2-17.26,98.66-.19,2.3,1.02,4.12,2.67,4.07Z"/>
    <path d="M615.94,681.98c-23.36-1.68-46.78-1.68-70.19-1.71,3.33-11.15,6.83-22.18,10.53-33.21,23.31.51,46.6,1.22,69.85,2.96-3.62,10.62-7,21.2-10.19,31.96Z"/>
    <path d="M596.21,606.08c1.64.09,2.46.13,4.1.22,11.59-26.82,24.31-53.03,37.58-79.05,6.14.4,9.19.62,15.26,1.06-13.52,25.94-26.47,52.07-38.25,78.85,1.62.1,2.43.16,4.05.26,1.59.1,3.48-1.21,4.24-2.93,11.51-25.67,24.09-50.75,37.19-75.64,8.63.66,12.71,1.17,20.93,2.13-16.19,30.13-31.5,60.55-44.91,92.04-3.63,8.77-12.72,15.55-20.57,15.08-13.64-.81-27.29-1.46-40.94-1.93-8.03-.28-11.69-8.4-8.28-17.24,12.56-31.77,26.79-62.69,41.75-93.39,8.94.45,13.38.7,22.19,1.25-12.64,25.05-24.79,50.27-35.93,76.02-.73,1.73-.01,3.2,1.6,3.28Z"/>
    <path d="M656.94,423.79c25.73,2.14,51.47,4.36,77.07,7.76-5.55,11.65-11.4,23.16-17.43,34.57-5.48,9.71-15.98,15.97-27.02,16.8-11.32.77-22.63,1.6-33.94,2.47-3.04.24-6.21,2.28-7.51,4.84,17.62,1.29,35.36,2.33,52.86,4.82-4.77,8.7-9.55,17.4-14.31,26.11-24.37-2.85-48.87-4.28-73.36-5.65,5.93-12.01,11.89-24,17.79-36.03,5.42-10.27,16.36-16.87,27.81-17.92,11.6-.83,23.2-1.62,34.81-2.35,1.41-.09,2.86-.99,3.45-2.15.55-1.09.82-1.63,1.37-2.71-17.74-1.65-35.49-3.14-53.26-4.47,4.03-8.63,7.95-17.33,11.68-26.09Z"/>
    <path d="M713.25,319.17c-1.15,12.81-2.99,25.5-6.57,37.88,17.97,2.03,35.92,4.17,53.85,6.54-3.05,10.54-4.8,15.74-8.65,26.09-17.76-2.37-35.55-4.35-53.36-6.23-4.3,12.39-9.13,24.59-14.33,36.62-9.81-.91-14.75-1.34-24.75-2.17,13.41-32.99,25-65.81,27.74-101.51,10.53,1.08,15.74,1.64,26.08,2.78Z"/>
    <path d="M769.52,319.38c-27.32-3.38-54.67-6.48-82.05-9.32.41-10.99.38-16.56-.25-27.9,28.09,2.81,56.15,5.89,84.2,9.09-.09,9.34-.74,18.86-1.9,28.12Z"/>
    <path d="M712.76,245.98c.6.06.89.09,1.49.15,2.02.2,3.43-1.07,3.12-2.84-4.13-23.71-11.34-46.32-19.94-68.74-3.93-9.78.76-17.33,11.14-16.54,6.98.53,10.46.79,17.41,1.33,10.83,1.3,20.1,9.46,24.21,19.35,12.03,33.32,20.23,67.08,21.2,102.61-9.2-1.03-13.68-1.51-23.82-2.63-.96-28.45-6.94-55.79-15.33-82.89-.63-1.92-2.84-3.63-4.9-3.8-.84-.07-1.25-.11-2.09-.18-1.74-.15-2.7,1.04-2.15,2.66,7.04,22.4,12.07,44.47,14.89,67.77.86,8.66-6.82,14.65-16.69,13.61-6.63-.7-9.97-1.04-16.66-1.72-9.36-1.08-18.11-7.66-19.88-17.22-5.21-35.96-16.74-69.8-31.45-102.91,10.97.77,16.44,1.16,27.33,1.96,12.34,28.13,21.88,56.36,27.9,86.5.32,1.77,2.2,3.35,4.23,3.55Z"/>
    <path d="M582.32,3.6c15.24,18.71,30.07,37.69,43.97,57.43,20.22.69,40.44,1.48,60.67,1.93,8.91,12.76,17.36,25.85,25.39,39.18-20.32-.77-40.63-1.95-60.94-3,9.84,16.45,19,33.08,27.47,50.28-9.56-.68-19.11-1.34-28.67-1.99-25.71-51.94-58.65-98.82-94.93-143.88,10.82.02,16.22.04,27.04.06Z"/>
  </g>
  <g>
    <path d="M895.47,870.02c19.11,1.39,38.23,2.78,57.34,4.16,4.21,12.86,9.06,25.44,14.14,37.98-10.32-.57-15.48-.85-25.77-1.42,11.75,28.85,25.31,56.57,40.31,83.87,10.88.21,16.32.31,27.21.52,9.06,15.28,18.46,30.31,28.18,45.18-21.35-.02-42.7-.05-64.05-.07-16.03-1.01-31.08-16.75-38.07-30.18-19.95-37.69-37.3-76.11-50.77-116.6-3.41-9.18-1.39-24.28,11.49-23.45ZM919.12,909.53c-4.59-.25-6.5,4.46-4.08,10.62,8.47,20.96,17.81,41.38,27.93,61.6,3.43,6.71,10.33,12.32,15.19,12.42-14.59-27.57-27.74-55.55-39.04-84.64Z"/>
    <path d="M863.21,736.12c23.28,3.12,46.55,6.27,69.83,9.4-.22,14.31.25,28.37,1.35,42.64,1.12,9.78-3.49,20.98-14.28,22.48-9.82,1.15-19.64,2.34-29.46,3.58-2.62.33-4.17,3.03-3.62,6.45,17.65,1.69,35.29,3.38,52.94,5.07,2.39,11.88,5.32,23.64,8.74,35.26-25.14-1.98-50.28-3.97-75.42-5.94-3.57-16.13-6.74-32.32-8.56-48.76-1.36-10.19,3.73-21.68,14.88-23.12,9.91-1.05,19.83-2.06,29.76-3.01,1.22-.12,2.03-1.27,1.95-2.73-.08-1.37-.11-2.05-.18-3.41-16.29-1.95-32.59-3.9-48.88-5.84.01-10.71.11-21.37.95-32.06Z"/>
    <path d="M933.6,734.13c-23.11-3.23-46.23-6.48-69.34-9.71,1.03-10.07,2.53-20.22,4.46-30.15,22.72,3.49,45.43,6.99,68.15,10.47-1.55,9.69-2.66,19.6-3.27,29.39Z"/>
    <path d="M927.68,558.47c21.39,4.07,42.78,8.11,64.19,12.06-4.77,8.19-9.44,16.46-13.95,24.8-15.52-2.82-31.02-5.7-46.52-8.6-1.24,2.22-.67,4.42,1.33,5.18,12.88,5.28,25.79,10.48,38.71,15.65-7.71,14.76-14.72,29.9-20.98,45.32-15.62.16-31.23.35-46.85.59-2.61-.02-5.29,1.87-6.29,4.46,16.03,2.73,32.06,5.47,48.09,8.17-2.98,8.98-4.96,18.53-6.67,27.82-22.58-3.56-45.16-7.16-67.74-10.73,2.9-13.17,6.18-26.2,11.77-38.52,4.27-9.6,13.91-16.35,24.5-16.5,10.47.14,20.94.3,31.41.47.87-1.86,1.31-2.78,2.19-4.63-8.93-3.29-17.85-6.61-26.76-9.96-8.35-3.13-10.94-12.33-5.9-21.57,6.26-11.47,12.79-22.79,19.48-34.01Z"/>
    <path d="M1007.92,452.97c16.04,2.89,32.09,5.74,48.16,8.46-4.65,8.58-9.45,17.09-14.36,25.53-8.42-1.48-12.63-2.24-21.02-3.76-9.8,16.69-19.82,33.23-29.89,49.77,8.41,1.57,12.63,2.36,21.08,3.91-4.96,8.19-9.89,16.4-14.75,24.65-16.11-2.96-32.2-6-48.29-9.06-8.72-1.66-11.51-10.06-6.2-18.74,13.7-22.37,27.39-44.72,40.47-67.45,5.03-8.48,14.72-14.58,24.79-13.3ZM1002.7,479.91c-3.75-.69-8.57,1.83-10.81,5.62-7.16,12.05-14.42,24.03-21.73,35.99-2.29,3.74-1.11,7.34,2.64,8.05,10.08-16.49,20.1-33,29.9-49.66Z"/>
    <path d="M1053.3,341.69c-2.76,14.19-6.01,28.11-9.81,42.05,15,2.34,30.02,4.63,45.04,6.86-2.45,9.64-6.88,19.06-11.01,28.06-14.85-2.35-29.68-4.76-44.51-7.22-5.6,12.51-11.68,24.79-18.12,36.89-7.98-1.42-11.96-2.14-19.95-3.59,17.89-34.62,30.29-67.6,37.38-106.02,8.41,1.2,12.6,1.8,20.98,2.98Z"/>
    <path d="M1050.64,194.47c10.5.8,21,1.58,31.51,2.35,13.74,2.13,24.03,16.44,24.72,29.96,2.04,30.74,1.43,60.83-2.22,91.43-1.57,11.6-10.86,22.44-23.36,21.33-9.51-1.26-19.01-2.55-28.51-3.86-12.11-2.14-17.79-14.79-16.72-26.06,2.22-30,1.32-59.3-2.29-89.15-1.89-11.29,2.93-26.69,16.87-25.99h0ZM1085.59,243.86c-.29-5.29-3.99-9.95-8.12-10.32-4.97-.45-7.45-.67-12.42-1.13-4.14-.38-7.06,3.63-6.66,8.87,1.09,18.14,1.27,36.03.45,54.19-.29,4.84,2.57,9.1,6.5,9.58,4.72.58,7.08.87,11.79,1.44,3.93.48,7.51-3.04,7.88-7.92,1.16-18.31,1.32-36.38.58-54.71Z"/>
    <path d="M1030.83,41.92c3-13.93,5.66-27.87,8.03-41.92,9.5,19.89,18.41,39.94,26.68,60.37-3.53,12.79-7.46,25.47-11.8,38.01-.09.25-.06.59.06.95,4.96,14.53,9.53,29.1,13.7,43.88,10.19.53,15.28.79,25.47,1.31,3.25,13.52,6.27,27.04,8.61,40.75-25.09-1.68-50.18-3.42-75.27-5.21-12.15-50.27-30.94-97.63-53.69-144.02-2.92-7.87-11.47-28.73,4.86-29.4,6.57.02,9.85.02,16.41.04,15.68,1.58,28.43,16.7,34.6,30.08.94,2.06,1.4,3.09,2.32,5.15ZM1008.28,52.99c-2.42-.05-3.08,2.77-1.53,6.25,11.72,26.98,22.05,54.25,30.67,82.38,3.3.18,4.95.27,8.25.44-8.45-28.2-18.63-55.56-30.19-82.63-1.53-3.5-4.78-6.39-7.2-6.44Z"/>
  </g>
  <g>
    <path d="M983.84,894.61c19.47,1.24,38.94,2.46,58.41,3.66,4.1,9.46,8.54,18.83,13.22,28.01-14.23-.7-28.46-1.41-42.69-2.12,1.22,2.59,3.79,4.88,6.01,5.39,14.68,3.67,29.37,7.28,44.07,10.85,9.94,18.42,20.87,36.22,32.2,53.8-11.43,2.98-22.84,6.02-34.23,9.12-1.99.46-1.98,3.12.08,6.3,14.96.2,29.92.4,44.89.6,7.65,11.15,15.53,22.13,23.61,32.97-21.26,0-42.51,0-63.77,0-10.35-15.2-20.38-30.55-30.05-46.19-7.26-11.92-6.5-21.58,1.02-23.14,9.55-1.99,14.33-2.97,23.86-4.9-1.31-2.22-1.95-3.33-3.22-5.53-10.05-2.15-20.1-4.33-30.14-6.54-11.46-3.14-20.76-12.38-25.99-22.81-6.13-13.03-11.89-26.12-17.28-39.47Z"/>
    <path d="M990.28,859.11c1.32.11,1.99.16,3.31.26-6.9-23.1-12.45-46.3-15.1-70.3,4.56.51,6.84.77,11.42,1.28,2.8,23.91,8.51,46.99,15.56,69.96,1.33.11,1.99.16,3.32.26,1.31.1,1.95-1.06,1.46-2.59-6.67-22.13-11.7-44.11-14.88-67.02,6.55.73,9.83,1.09,16.42,1.82,3.63,28.05,11.28,54.98,20.76,81.57,2.91,7.78.2,13.89-6.44,13.45-11.37-.76-22.74-1.52-34.12-2.29-6.59-.45-14.39-7.43-17.02-15.41-8.64-27.47-14.87-54.87-18.13-83.49,6.46.74,9.7,1.11,16.19,1.85,2.89,23.09,7.63,45.29,14.01,67.65.47,1.55,1.91,2.89,3.21,3Z"/>
    <path d="M972.42,692.45c10.29,1.61,20.58,3.2,30.88,4.76,6.04.91,10.06,6.54,9.17,12.67-3.19,25.02-3.69,49.14-1.66,74.29-18.23-2.08-36.46-4.21-54.69-6.36-1.31-25.69-.18-50.37,3.56-75.82,1.03-6.24,6.82-10.47,12.75-9.54ZM989.04,716.5c-3.63-.53-5.45-.79-9.06-1.32-3.01-.44-5.77,1.75-6.12,4.91-1.33,12.18-1.95,24.43-1.85,36.68,8.12,1.04,12.2,1.56,20.39,2.59-.22-12.15.28-24.31,1.51-36.4.32-3.14-1.84-6.02-4.86-6.46h0Z"/>
    <path d="M1015.69,691.59c-17.48-2.68-34.95-5.42-52.42-8.22,1.83-8.3,3.04-12.32,5.94-20.17,17.29,2.88,34.58,5.7,51.88,8.45-2.63,7.81-3.73,11.79-5.41,19.94Z"/>
    <path d="M1006.79,584.07c11.71,2.1,23.44,4.15,35.17,6.14,7.96,1.35,11.12,8.62,7.19,16.3-7.37,14.3-14.11,28.94-20.18,43.84-3.17,7.88-12.27,13.29-20.56,11.95-12.19-1.98-24.38-4-36.56-6.06,3.05-7.79,4.67-11.64,8.08-19.29,9.89,1.71,19.79,3.4,29.69,5.05,2.91.49,6.25-1.4,7.48-4.19,4.29-9.76,6.59-14.58,11.39-24.19,1.38-2.75.19-5.37-2.67-5.86-9.72-1.66-19.44-3.35-29.15-5.08,3.93-7.47,5.97-11.18,10.11-18.59Z"/>
    <path d="M1062.87,488.8c16.13,2.73,32.27,5.37,48.44,7.82-4.35,7.69-6.54,11.51-10.93,19.09-11.66-1.82-23.3-3.73-34.93-5.7-.98,1.67-.61,3.3.87,3.84,9.54,3.77,19.1,7.47,28.69,11.09-6.44,11.04-12.89,22.06-19.27,33.13-11.83.14-23.66.23-35.49.27-1.98-.03-4.2,1.26-5.24,3.05,11.79,2.07,23.58,4.08,35.39,6.02-4.22,7.42-6.3,11.13-10.36,18.55-16.52-2.72-33.02-5.59-49.5-8.54,4.85-8.53,9.8-17.01,14.82-25.44,4.01-6.76,12.46-11.65,19.9-11.53,9.46.15,14.2.21,23.73.29.79-1.35,1.19-2.02,1.98-3.37-7.9-2.82-11.83-4.25-19.64-7.11-6.15-2.25-7.63-8.92-3.56-15.77,5.09-8.52,10.13-17.07,15.07-25.67Z"/>
    <path d="M1093.27,464.75c1.26.2,1.89.3,3.15.49,10.53-19.99,20.37-40.15,28.98-61.06,5.51.74,8.26,1.1,13.78,1.81-8.68,20.98-18.54,41.25-29.1,61.35,6.39.96,9.59,1.44,16.01,2.36-4.2,7.9-6.34,11.81-10.65,19.55-16.17-2.41-32.3-5.02-48.42-7.72,14.55-26.03,28.14-52.35,39.45-79.96,5.49.78,8.24,1.16,13.75,1.91-8.27,20.15-17.72,39.59-27.82,58.87-.61,1.15-.22,2.23.88,2.4Z"/>
    <path d="M1163.95,308.79c6.47.64,9.71.96,16.19,1.57-4.88,31-12.38,60.97-22.38,90.71-16.36-1.94-32.7-4.1-49.02-6.37,2.85-8.83,4.19-13.3,6.66-22.4,11.39,1.48,22.78,2.93,34.17,4.32,6.2-22.42,10.96-44.81,14.38-67.83Z"/>
    <path d="M1126.56,195.66c13.26.89,26.53,1.75,39.8,2.57,10.99,1.49,17.22,12.79,17.77,23,.81,21.57.48,42.85-1.14,64.37-.95,10.88-8.88,18.79-17.19,17.98-12.35-1.2-24.69-2.46-37.02-3.77.99-10.11,1.35-15.26,1.74-25.78,10.33,1,20.67,1.97,31.01,2.9,3.02.27,5.67-2.67,5.85-6.62.54-11.78.62-23.58.25-35.36-.13-4.16-2.83-7.76-5.96-7.99-10.7-.79-21.4-1.6-32.1-2.42-.68-9.63-1.7-19.31-3.02-28.87Z"/>
    <path d="M1181.4,188.33c-18.8-1.07-37.6-2.2-56.4-3.37-1.57-10.23-3.49-20.47-5.7-30.58,19.2.99,38.4,1.94,57.6,2.84,1.82,10.3,3.33,20.72,4.5,31.11Z"/>
    <path d="M1081.73,6.34c12.44.02,24.88.05,37.32.07,10.27,1.24,17.63,11.32,21.08,20.27,14.39,38.76,26.22,77.91,34.53,118.42-19.36-.84-38.71-1.72-58.07-2.63-9.92-39.92-23.31-78.35-39.18-116.28-4.64-10.85-2.92-19.86,4.32-19.85ZM1120.82,43.73c-4.24-.06-6.37-.08-10.61-.14-3.53-.05-4.71,4.25-2.73,9.54,6.94,18.98,13.48,38.09,18.92,57.56,8.95.31,13.43.47,22.39.77-5.14-19.59-11.4-38.83-18.05-57.95-1.89-5.32-6.38-9.73-9.92-9.77h0Z"/>
  </g>
  <g>
    <path d="M1119.07,522.36c13.95,2.04,27.9,3.97,41.87,5.81-3.56,6.42-5.34,9.61-8.86,15.96-10.11-1.33-20.22-2.74-30.31-4.23-.8,1.4-.43,2.75.87,3.18,9.94,3.57,14.97,5.33,25.15,8.8-5.13,9.24-10.2,18.52-15.15,27.86-10.21.3-20.43.55-30.64.74-1.71,0-3.56,1.11-4.37,2.61,10.28,1.57,20.58,3.08,30.88,4.51-3.26,6.25-4.86,9.37-7.97,15.62-14.41-2.06-28.81-4.22-43.2-6.45,4.48-8.56,6.81-12.84,11.54-21.39,3.15-5.69,10.21-9.87,16.63-9.88,8.15-.01,12.25-.03,20.48-.1.62-1.13.94-1.7,1.56-2.83-6.95-2.23-10.39-3.36-17.23-5.64-5.38-1.79-6.9-7.32-3.6-13.06,4.91-8.55,7.39-12.84,12.35-21.5Z"/>
    <path d="M1156.16,454.05c9.78,1.26,19.58,2.44,29.38,3.53,6.63.75,9.24,7.09,5.69,14.08-6.66,12.96-13.48,25.82-20.43,38.62-3.67,6.71-12.12,11.39-18.82,10.5-9.89-1.31-19.77-2.7-29.63-4.16,3.63-6.37,5.45-9.57,9.06-16.03,9.65,1.38,14.5,2.05,24.27,3.33,2.38.31,5.37-1.38,6.69-3.79,4.58-8.4,6.86-12.63,11.35-21.22,1.29-2.46.4-4.7-1.97-4.98-9.73-1.18-14.56-1.8-24.18-3.09,3.49-6.66,5.21-10.01,8.59-16.81Z"/>
    <path d="M1180.98,432.78c.28.03.41.05.69.08.94.1,2.08-.65,2.55-1.69,5.77-13.18,10.89-26.41,15.62-40,1.89-5.61,7.22-9.86,12.03-9.42,3.24.3,4.85.45,8.1.73,4.82.43,7.24,5.39,5.28,11.02-7.36,20.39-15.72,40.1-24.93,59.71-4.96-.51-7.44-.78-12.37-1.32,7.56-16,14.69-32.06,20.93-48.62.4-1.11-.04-2.08-1-2.17-.39-.04-.58-.05-.97-.09-.81-.08-1.73.62-2.07,1.56-5.04,13.46-10.66,26.54-16.63,39.61-2.4,5.14-8.22,8.82-12.93,8.27-3.17-.37-4.74-.56-7.9-.94-4.69-.57-6.49-5.12-4.09-10.21,9.05-19.68,16.66-39.39,23.24-60.04,4.98.52,7.47.77,12.46,1.27-5.56,17.09-11.66,33.72-18.88,50.19-.47,1.04-.08,1.96.86,2.07Z"/>
    <path d="M1230.88,376.53c-14.12-1.22-28.23-2.53-42.34-3.95,2.28-7.8,3.35-11.76,5.34-19.79,14.27,1.37,28.53,2.65,42.82,3.83-2.19,8.09-3.35,12.07-5.81,19.91Z"/>
    <path d="M1215.17,326.44c5.12.44,7.69.65,12.83,1.07.99.08,2-.86,2.25-2.1,3.98-19.8,6.31-39.79,7.94-59.9,5.64.37,8.46.56,14.12.91-2.19,24.38-5.82,48.17-11.06,72.09-1.41,6.12-6.66,10.67-11.58,10.26-10.14-.84-15.19-1.29-25.26-2.22-4.88-.45-7.69-5.67-6.43-11.74,4.9-23.64,7.62-47.41,9.12-71.48,5.61.42,8.42.62,14.04,1.02-1.41,20.04-3.53,39.96-7.32,59.71-.23,1.24.38,2.31,1.36,2.4Z"/>
    <path d="M1252.82,258.89c-15.15-.95-30.28-1.96-45.42-3.03.31-9.3.36-14.02.21-23.65,15.37.98,30.73,1.91,46.11,2.79-.13,9.72-.32,14.5-.9,23.89Z"/>
    <path d="M1205.78,118.87c12.43.39,24.86.76,37.3,1.11,1.8,9.28,3.38,18.64,4.72,28-6.42-.22-9.63-.34-16.04-.57,2.56,17.61,4.51,35.16,5.78,52.91,6.2.31,9.31.46,15.53.76.52,10.21.66,15.23.69,25.08-11.64-.64-23.28-1.3-34.92-1.99-6.33-.38-11.65-7.66-12.21-16.47-1.55-24.04-4.99-47.74-9.36-71.41-1.89-9.72,1.75-17.63,8.51-17.42ZM1218.01,146.89c-2.86-.11-4.61,3.16-3.97,7.26,1.97,12.68,3.53,25.43,4.64,38.22.34,3.89,2.8,7.12,5.57,7.27-1.42-17.7-3.52-35.2-6.23-52.74Z"/>
    <path d="M1157.11,2.08c17.72,0,35.45.02,53.17.03,5.07,14.44,9.86,28.92,14.38,43.54,3.4,11.3.81,20.64-5.68,22.47-7.86,2.22-11.78,3.31-19.61,5.48-1.74.48-2.4,2.95-1.6,5.85,12.15.25,24.3.49,36.45.71,2.48,9.75,4.76,19.6,6.78,29.45-16.62-.42-33.24-.89-49.86-1.37-3.22-13.32-6.92-26.49-10.79-39.63-3.27-10.83-1.3-20.29,5.16-22.19,7.93-2.34,11.9-3.52,19.87-5.91.81-.24,1.08-1.45.62-2.87-.43-1.33-.65-2-1.08-3.33-11.97-.1-23.93-.2-35.9-.31-3.84-10.7-7.81-21.31-11.92-31.91Z"/>
  </g>
  <g>
    <path d="M1188.87,528.95c15.08,1.24,30.16,2.34,45.25,3.32-3.3,6.53-4.95,9.77-8.22,16.23-10.99-.76-21.97-1.57-32.96-2.44-.76,1.42-.26,2.72,1.17,3.07,9.24,2.5,18.52,4.91,27.81,7.24-4.75,9.4-9.45,18.83-14.04,28.31-11.04.8-22.07,1.56-33.11,2.28-1.84.08-3.76,1.26-4.52,2.78,11.26,1.03,22.52,2,33.8,2.92-3.02,6.35-4.5,9.51-7.37,15.85-15.75-1.31-31.49-2.8-47.21-4.44,4.15-8.59,6.32-12.88,10.76-21.5,2.95-5.73,10.22-10.17,17.14-10.5,8.8-.43,13.22-.66,22.11-1.17.58-1.15.87-1.72,1.46-2.87-7.69-1.82-11.5-2.75-19.04-4.62-5.93-1.47-7.95-6.84-4.82-12.65,4.67-8.65,7.04-13,11.79-21.79Z"/>
    <path d="M1224.82,459.3c10.24.77,20.51,1.43,30.76,1.99,6.96.39,10.04,6.5,6.73,13.59-6.21,13.14-12.57,26.2-19.04,39.21-3.41,6.82-12.11,11.93-19.34,11.45-10.65-.74-21.29-1.49-31.92-2.4,3.49-6.47,5.24-9.73,8.73-16.31,9.97,1.07,15.49,1.21,25.97,1.91,2.55.17,5.63-1.67,6.86-4.12,4.31-8.54,6.47-12.85,10.71-21.58,1.22-2.5.16-4.66-2.34-4.81-10.29-.63-15.62-.79-25.52-1.74,3.4-6.8,5.09-10.24,8.4-17.19Z"/>
    <path d="M1249.94,436.84c.29.02.43.03.72.05.97.06,2.13-.75,2.59-1.81,5.62-13.45,10.91-26.97,15.9-40.67,2.01-5.69,7.49-10.24,12.35-10.11,3.27.09,4.91.13,8.19.21,4.88.12,7.3,4.96,5.28,10.76-7.37,20.61-15.42,40.85-24.15,60.92-5.21-.25-7.8-.38-12.97-.66,7.24-16.35,14.02-32.81,20.37-49.51.42-1.13-.03-2.08-1.01-2.12-.39-.02-.59-.02-.99-.04-.82-.03-1.77.71-2.13,1.67-5.18,13.58-10.62,27.01-16.37,40.36-2.29,5.23-8.21,9.18-13.13,8.87-3.31-.21-4.96-.32-8.25-.54-4.89-.33-6.87-4.8-4.51-10.01,8.86-19.99,16.91-40.15,24.1-60.8,5.07.36,7.52.32,12.55.5-5.95,17.22-12.44,34.12-19.49,50.92-.45,1.06-.04,1.97.94,2.03Z"/>
    <path d="M1300.77,377.79c-14.21-.25-28.41-.61-42.62-1.11,2.52-7.83,3.72-11.81,5.99-19.89,14.24.32,28.48.5,42.72.57-2.31,8.29-3.54,12.37-6.09,20.43Z"/>
    <path d="M1286.18,328.99c5.05,0,7.58,0,12.65-.03.98,0,2.01-1.03,2.28-2.3,4.48-20.05,7.45-40.33,9.77-60.73,5.47-.16,8.21-.24,13.71-.42-2.94,24.78-7.2,49.02-12.89,73.31-1.53,6.25-6.85,11.24-11.75,11.23-10.1-.03-15.13-.07-25.12-.21-4.84-.07-7.46-5.03-5.99-11.14,5.48-23.9,9.4-47.69,11.9-72.08,5.66.31,8.16-.12,13.61-.25-2.18,20.28-5.03,40.44-9.44,60.37-.27,1.25.29,2.27,1.27,2.27Z"/>
    <path d="M1325.36,257.89c-14.66.48-29.32.9-43.99,1.18.71-9.39.96-14.17,1.23-23.9,14.84-.36,29.67-.85,44.5-1.4-.49,9.8-.84,14.62-1.73,24.11Z"/>
    <path d="M1285.69,119.75c12.02-.35,24.03-.72,36.04-1.11,1.3,9.26,2.39,18.58,3.26,27.89-6.19.23-9.29.34-15.47.56,1.71,17.71,2.83,35.36,3.32,53.15,5.97-.22,8.96-.34,14.96-.58.09,10.25.02,15.29-.32,25.21-11.22.42-22.44.81-33.66,1.17-6.09.19-10.93-6.75-11.1-15.66-.46-24.25-2.77-48.27-6.01-72.29-1.42-9.84,2.45-18.15,8.98-18.34ZM1296.29,147.53c-2.76.09-4.58,3.55-4.14,7.69,1.37,12.82,2.32,25.68,2.85,38.57.16,3.92,2.4,7,5.06,6.91-.62-17.8-1.9-35.45-3.76-53.16Z"/>
    <path d="M1243.33,2.09c17.6-.01,35.2-.02,52.8-.03,4.11,14.25,7.96,28.53,11.54,42.93,2.69,11.16-.35,20.57-6.78,22.65-7.79,2.51-11.67,3.77-19.4,6.28-1.72.56-2.47,3.1-1.83,6.01,11.82-.26,23.64-.53,35.46-.81,1.91,9.69,3.62,19.46,5.1,29.22-16.09.5-32.18.98-48.27,1.34-2.55-13.48-5.6-26.83-8.8-40.16-2.73-10.98-.36-20.69,6.07-22.79,7.89-2.58,11.85-3.86,19.8-6.44.81-.26,1.14-1.48.76-2.89-.35-1.33-.53-1.99-.88-3.32-11.77.13-23.54.26-35.31.36-3.29-10.84-6.7-21.59-10.26-32.35Z"/>
  </g>
  <g>
    <path d="M1323.56,1022.43c4.56.06,6.85.08,11.41.14.88.01.96-.81.17-1.84-11.36-15.03-22.35-30.26-32.95-45.83,4.98.18,7.47.27,12.46.44,12.85,18.97,26.3,37.41,40.28,55.56,4.03,5.16,3.91,9.4-.44,9.39-8.97-.02-13.45-.02-22.41-.04-4.34,0-11.41-4.36-15.61-9.64-14.52-18.48-28.62-37.24-41.78-56.71,4.96.18,7.45.28,12.42.46,10.74,15.7,21.88,31.04,33.4,46.18.8,1.03,2.16,1.89,3.05,1.9Z"/>
    <path d="M1262.63,906.2c6.54.4,14.34,5.67,17.64,11.89,7.34,13.88,15.33,27.42,23.67,40.72,4.14,6.57,2.52,11.8-3.87,11.56-6.78-.26-10.16-.39-16.93-.65-6.38-.25-15.23-5.97-19.49-12.66-8.55-13.49-16.74-27.24-24.22-41.36-3.36-6.3-.6-10.98,5.91-10.57,6.9.44,10.36.65,17.3,1.08ZM1271.81,925.29c-1.24-2.25-4.12-4.18-6.44-4.31-2.79-.16-4.19-.24-6.98-.4-2.32-.13-3.21,1.58-1.96,3.85,4.62,8.39,9.48,16.69,14.52,24.83,1.44,2.35,4.5,4.35,6.8,4.45,2.76.12,4.14.19,6.9.31,2.3.1,2.98-1.72,1.55-4.05-4.99-8.1-9.81-16.35-14.39-24.68Z"/>
    <path d="M1204.51,831.54c13.58,1.14,27.15,2.22,40.74,3.27,1.64,5.4,2.52,8.12,4.41,13.61-9.8-.73-19.6-1.48-29.4-2.25.41,1.23,1.79,2.36,3.24,2.66,9.5,2.15,19.02,4.26,28.54,6.33,3.56,9.82,5.54,14.81,9.93,24.97-10.03,1.04-15.01,1.56-24.92,2.6-1.42.12-2,1.24-1.37,2.65,9.83.68,19.65,1.34,29.48,1.98,2.61,5.79,3.99,8.71,6.88,14.61-13.66-.84-27.31-1.71-40.96-2.61-4.03-8.24-5.9-12.29-9.36-20.3-2.3-5.32.1-9.47,5.49-9.88,6.85-.52,10.29-.77,17.19-1.29-.41-1.02-.61-1.53-1.01-2.55-7.72-1.57-11.57-2.36-19.23-3.94-6.03-1.25-11.89-5.99-13.66-11.1-2.64-7.61-3.84-11.36-5.98-18.77Z"/>
    <path d="M1202.03,775c3.42.31,5.13.47,8.57.77,4.96.44,9.4,4.09,10.01,8.21,1.51,10.56,3.77,20.91,6.14,31.31,5.34.44,8.02.66,13.4,1.08,1.32,5.27,2.03,7.93,3.58,13.29-13.56-1.05-27.12-2.15-40.67-3.3-3.78-14.86-6.79-29.59-9.05-44.76-.54-4.12,3.1-7.05,8.03-6.6ZM1208.45,787.76c-.38-.03-.57-.05-.95-.08-.91-.08-1.55.46-1.43,1.22,1.56,9.88,2.54,14.89,4.95,25.08,1.72.15,2.58.22,4.29.36-2.43-10.19-3.42-15.2-5.01-25.07-.12-.75-.95-1.43-1.86-1.51Z"/>
    <path d="M1191.88,724.21c10.63,1.05,15.99,1.56,26.84,2.53,6.08.55,10.99,4.97,11.05,9.94.07,9.46.58,19.04,1.53,28.45.49,5.12-4.15,8.88-10.48,8.32-9.34-.81-18.68-1.65-28.01-2.53-.48-5.03-.66-7.52-.93-12.47,9.06.86,13.61,1.29,22.8,2.11,2.23.2,3.93-1.12,3.81-2.93-.42-6.33-.55-9.47-.67-15.7-.03-1.79-1.83-3.39-4.02-3.59-9.01-.82-13.47-1.24-22.34-2.11.08-4.84.17-7.24.43-12.02Z"/>
    <path d="M1212.16,677.59c-1.95,6.63-2.87,9.95-4.54,16.65,10.12.94,15.24,1.39,25.59,2.25-1.17,4.79-2.33,7.29-2.64,12.01-10.38-.9-15.51-1.36-25.65-2.34-.65,6.63-.9,9.96-1.23,16.68-4.68-.44-7.01-.67-11.65-1.13,1.28-15.75,4.5-29.96,8.79-45.14,4.52.42,6.79.62,11.35,1.03Z"/>
    <path d="M1217.54,663.56c.85.07,1.27.11,2.12.18,3.76-11.03,7.7-21.88,11.88-32.76,3,.22,4.51.32,7.53.53-4.14,10.9-8.06,21.79-11.78,32.84.85.07,1.28.1,2.14.17.84.07,1.7-.44,1.93-1.13,3.59-10.64,7.35-21.13,11.33-31.64,4.32.29,6.49.43,10.86.71-4.85,12.69-9.32,25.53-13.3,38.53-1.06,3.47-5.33,6.03-9.57,5.69-8.73-.7-13.05-1.07-21.63-1.83-4.15-.37-6.65-3.47-5.55-6.9,4.13-12.85,8.79-25.53,13.84-38.04,4.24.33,6.36.49,10.64.81-4.04,10.45-7.87,20.88-11.51,31.47-.23.69.26,1.3,1.09,1.37Z"/>
    <path d="M1259.29,589.26c6.46-3.75,9.7-5.65,16.18-9.47-2.58,5.82-3.86,8.73-6.36,14.53-6.4,3.74-9.6,5.6-15.97,9.28-.11.06-.19.15-.23.25-2.04,4.76-3.05,7.14-5.02,11.9,4.75.3,7.14.44,11.93.72-1.89,4.67-2.82,7-4.63,11.67-12.05-.74-24.09-1.58-36.13-2.5,5.5-13.11,11.24-26.09,17.16-39.02,1.82-3.93,7.04-6.9,11.65-6.63,2.7.16,4.06.23,6.77.38,4.64.25,6.96,3.67,5.19,7.64-.22.5-.34.75-.56,1.26ZM1246.12,591.43c-1.04-.06-2.2.6-2.59,1.48-3.95,8.78-5.88,13.15-9.59,21.91,1.52.1,2.28.16,3.81.26,3.69-8.77,5.61-13.16,9.54-21.94.39-.88-.13-1.64-1.17-1.71Z"/>
    <path d="M1268.99,543.75c4.04.18,6.07.27,10.14.43.79.03,1.69-.51,2.01-1.21,5.04-10.82,10.08-21.64,15.04-32.49,4.21.12,6.32.18,10.56.28-5.94,13.15-11.93,26.28-17.92,39.41-1.59,3.49-6.12,6.19-10.1,6.03-8.21-.33-12.28-.52-20.36-.93-3.92-.2-5.73-3.16-4.06-6.61,6.3-12.99,12.58-25.98,18.82-39,4.14.17,6.21.25,10.38.4-5.06,10.81-10.19,21.58-15.32,32.36-.33.69.03,1.29.81,1.32Z"/>
    <path d="M1307.06,455.54c5.46.14,8.2.2,13.72.29,5.2.09,7.74,4.41,5.58,9.63-4.53,10.98-9.22,21.89-14.03,32.75-2.24,5.06-8.46,9.04-13.83,8.89-5.7-.16-8.53-.25-14.17-.45-5.32-.19-7.68-4.4-5.34-9.42,5.04-10.77,9.97-21.61,14.72-32.51,2.26-5.19,8.2-9.31,13.35-9.18h0ZM1313.33,471.86c.79-1.85-.09-3.38-1.96-3.42-2.24-.05-3.36-.07-5.6-.13-1.86-.05-4.01,1.41-4.81,3.26-3.46,7.94-5.22,11.87-8.76,19.66-.82,1.81.04,3.32,1.93,3.38,2.27.07,3.41.1,5.69.16,1.9.05,4.1-1.38,4.91-3.19,3.48-7.81,5.2-11.75,8.6-19.71Z"/>
    <path d="M1323.87,385.81c10.58.06,21.17,0,31.74-.15-1.89,5.94-2.85,8.88-4.83,14.72-9.22.06-13.79.05-22.88-.02-.44,1.28-.03,2.38.97,2.59,7.73,1.85,11.62,2.76,19.46,4.54-3.58,10.28-5.44,15.35-8.9,24.66-9.07,1.55-13.58,2.29-22.57,3.72-1.26.17-2.55,1.23-3.05,2.49,9.18.22,13.81.29,23.14.37-1.98,5.22-2.99,7.8-5.03,12.95-10.8-.15-21.59-.32-32.38-.66,2.95-7.05,4.39-10.61,7.22-17.81,1.88-4.79,6.69-8.82,11.41-9.49,6.01-.84,9.03-1.29,15.11-2.26.38-1.03.57-1.54.95-2.57-5.31-1.11-7.95-1.68-13.2-2.82-4.13-.9-5.74-5.37-3.88-10.59,2.77-7.77,4.11-11.7,6.7-19.66Z"/>
    <path d="M1348.98,318.99c2.75-.08,4.13-.13,6.9-.22,3.98-.13,6.34,3.94,5.17,9.05-2.87,12.53-6.1,24.98-9.66,37.33,4.19-.08,6.29-.12,10.51-.22-1.74,6.07-2.64,9.08-4.49,15.05-10.58.19-21.16.27-31.74.25,5.26-17.15,9.96-34.35,14.11-51.8,1.15-5.07,5.23-9.32,9.21-9.44ZM1349.35,334.16c-.3,0-.46.01-.76.02-.72.02-1.48.78-1.7,1.69-2.36,9.87-4.98,19.72-7.83,29.45,1.35-.02,2.02-.02,3.37-.04,2.85-9.75,5.48-19.61,7.84-29.5.22-.92-.19-1.65-.91-1.63Z"/>
    <path d="M1352.1,251.84c9.15-.4,13.75-.62,22.98-1.09,5.17-.26,8.78,5.3,7.9,12.33-1.63,12.98-3.67,25.92-6.08,38.78-1.26,6.72-6.54,12.26-11.64,12.46-9.09.35-13.61.5-22.6.76,1.3-6.37,1.92-9.59,3.06-16.09,7.43-.25,11.16-.39,18.65-.7,1.82-.08,3.65-2.09,4.07-4.51,1.46-8.44,2.12-12.71,3.32-21.37.34-2.48-.89-4.43-2.72-4.34-7.55.36-11.3.52-18.79.83.84-6.75,1.21-10.17,1.87-17.07Z"/>
    <path d="M1364.94,178.71c.21,10.63.2,15.85-.03,26.15,9.07-.44,13.62-.68,22.75-1.17-.24,7.31-.41,10.93-.84,18.09-9.06.5-13.57.73-22.57,1.17-.52,10.08-.87,15.04-1.78,24.81-4.03.19-6.04.28-10.05.46,1.8-23.04,2.47-45.92,2.13-69.03,4.15-.19,6.22-.28,10.38-.48Z"/>
    <path d="M1364.99,155.64c.78-.04,1.18-.05,1.96-.09-1.17-18.87-2.96-37.59-5.31-56.35,2.92-.1,4.38-.15,7.31-.25,2.26,18.74,3.96,37.43,5.05,56.28.79-.04,1.18-.05,1.97-.09.77-.04,1.36-.99,1.3-2.13-1.06-18.14-2.68-36.14-4.82-54.17,4.18-.14,6.27-.22,10.45-.36,2.42,21.68,4.06,43.3,4.86,65.1.16,5.63-2.9,10.29-6.72,10.49-7.89.4-11.83.59-19.68.95-3.81.18-7.02-4.2-7.29-9.85-1.24-21.96-3.37-43.71-6.32-65.51,4.17-.13,6.25-.2,10.42-.34,2.32,18.08,4.11,36.13,5.32,54.32.07,1.14.74,2.04,1.51,2.01Z"/>
    <path d="M1357.21,20.43c3.15-7.75,4.71-11.64,7.81-19.47,2.27,9.23,4.38,18.52,6.31,27.83-3.26,7.58-4.9,11.36-8.21,18.86-.06.13-.07.3-.03.48,1.74,8.92,2.54,13.33,3.99,22.04,4.73-.12,7.09-.18,11.83-.31,1.34,8.47,1.94,12.66,3.02,20.95-11.78.39-23.57.76-35.35,1.11-4.04-24.83-9.1-49.3-15.06-73.74-1.94-7.72.39-14.09,5.39-14.1,2.93,0,4.4,0,7.33-.01,5,0,10.64,6.29,12.42,13.94.23.97.34,1.45.56,2.42ZM1345.97,26.05c-1.09.01-1.66,1.4-1.27,3.09,3.06,13.75,5.97,27.51,8.42,41.38,1.53-.04,2.29-.06,3.82-.09-2.41-13.85-5.27-27.6-8.29-41.33-.38-1.69-1.59-3.06-2.68-3.05Z"/>
  </g>
  <g>
    <path d="M1827.64,970.61c.71,9.87,1.08,14.8,1.86,24.69,11.8-.01,23.6-.04,35.41-.08v17.64c-11.33.01-22.66.02-34,.02.82,9.91,1.24,14.87,2.12,24.81-5.76,0-8.64,0-14.41,0-2.78-22.32-5.35-44.66-7.71-67.02,6.68-.02,10.03-.03,16.74-.05Z"/>
    <path d="M1864.9,966.31c-18.14.15-36.28.25-54.41.32-.72-6.98-1.06-10.47-1.74-17.44,18.72-.12,37.43-.29,56.15-.52,0,7.06,0,10.58,0,17.64Z"/>
    <path d="M1801.32,860.15c21.2-.62,42.39-1.35,63.58-2.17v17.64c-14.96.49-29.93.94-44.89,1.34.08,1.54,1.7,2.82,3.81,3.01,13.69,1.45,27.38,2.87,41.08,4.27,0,10.42,0,20.84,0,31.26-12.82,2.06-25.65,4.08-38.48,6.08-2.15.3-3.65,1.76-3.54,3.44,14.01-.19,28.01-.41,42.02-.67,0,7.06,0,10.58,0,17.64-18.93.26-37.85.46-56.78.6-.91-9.59-1.34-14.38-2.18-23.94-.56-6.36,5.09-11.85,13.39-13,10.55-1.46,15.87-2.21,26.62-3.75-.03-1.27-.05-1.9-.08-3.17-10.86-1.04-16.29-1.56-27.13-2.62-8.53-.84-15.18-6.13-15.66-12.45-.73-9.42-1.08-14.13-1.74-23.53Z"/>
    <path d="M1821.55,836.01c1.5-.06,2.26-.09,3.76-.15-.65-16.27-1.24-32.54-1.77-48.81,5.63-.33,8.46-.51,14.14-.86.36,16.37.75,32.73,1.18,49.1,1.52-.07,2.28-.1,3.79-.17,1.49-.07,2.69-.95,2.67-1.98-.31-15.79-.6-31.58-.86-47.37,8.13-.52,12.22-.79,20.44-1.35,0,19.3,0,38.61,0,57.91,0,5.19-6,9.65-13.35,9.94-12.53.5-25.07.95-37.61,1.36-7.23.24-13.34-3.7-13.67-8.76-1.22-18.77-2.34-37.54-3.37-56.31,7.93-.43,11.91-.65,19.92-1.11.59,15.61,1.25,31.22,1.96,46.83.05,1.02,1.28,1.8,2.76,1.74Z"/>
    <path d="M1845.43,678.06c12.55-1.43,19.48,5.48,19.48,14.53,0,17.99,0,35.98,0,53.96-23.26,1.92-46.53,3.73-69.81,5.33-.73-16.12-1.4-32.25-1.99-48.38.22-10.43,9.44-17.36,19.2-18.19,6.69-.57,11.98,1.1,15.17,4.49,2.69-6.15,8.94-10.72,17.95-11.74ZM1821.41,732.69c-.28-10.5-.41-15.74-.66-26.23-.03-1.31-1.76-2.21-3.85-2.02-2.09.2-3.75,1.41-3.72,2.72.29,10.45.44,15.68.77,26.13,2.98-.24,4.47-.36,7.46-.61ZM1840.97,698.8c-2.42.24-4.35,1.66-4.33,3.16.15,9.79.31,19.58.48,29.38,3.43-.29,5.15-.44,8.6-.74-.12-9.83-.23-19.67-.33-29.5-.02-1.51-2-2.53-4.41-2.29Z"/>
    <path d="M1812.84,608.06c17.37-2.29,34.72-4.67,52.06-7.13,0,7.06,0,10.58,0,17.64-9.35,1.27-13.99,1.89-23.2,3.09-.14,11.69-.27,23.38-.4,35.07,9.37-1.09,14.09-1.65,23.6-2.81v17.64c-17.94,2.04-35.9,3.99-53.86,5.86-9.61.99-17.16-3.19-16.97-9.27.5-15.64,1.04-31.29,1.62-46.93.23-6.08,7.85-11.94,17.15-13.15ZM1822.08,624.17c-4.06.51-7.39,3.05-7.46,5.68-.26,10.08-.39,15.12-.63,25.21-.06,2.63,3.22,4.4,7.35,3.94.24-11.61.48-23.22.74-34.83Z"/>
    <path d="M1819.62,584.2c.45-.06.68-.1,1.13-.16,1.54-.22,2.8-1.23,2.83-2.25.31-12.61.63-25.22.95-37.83.13-5.11,6.29-10.26,13.82-11.54,5.07-.86,7.61-1.3,12.73-2.18,7.6-1.32,13.83,1.79,13.83,6.98,0,19.3,0,38.61,0,57.91-8.33,1.21-12.47,1.81-20.68,2.96.18-15.81.37-31.63.57-47.44.01-1.03-1.22-1.66-2.75-1.42-.62.1-.93.15-1.55.25-1.29.21-2.35,1.08-2.36,1.95-.21,12.77-.42,25.54-.62,38.31-.08,5.14-6.51,10.19-14.29,11.25-5.23.71-7.83,1.06-13.01,1.74-7.7,1.02-13.73-2.29-13.53-7.35.76-18.84,1.55-37.67,2.36-56.51,7.64-1.21,11.49-1.84,19.23-3.11-.48,15.66-.94,31.31-1.39,46.97-.03,1.02,1.19,1.67,2.72,1.45Z"/>
    <path d="M1821.64,512.47c1.49-.26,2.24-.39,3.74-.66.44-16.33.88-32.66,1.32-48.99,5.19-1.04,7.8-1.57,13.03-2.65-.29,16.41-.58,32.81-.87,49.22,1.51-.27,2.27-.41,3.78-.69,1.49-.27,2.71-1.33,2.72-2.36.21-15.82.42-31.64.63-47.47,7.51-1.55,11.3-2.35,18.91-3.96,0,19.3,0,38.61,0,57.91,0,5.19-6.2,10.51-13.78,11.84-12.84,2.26-25.69,4.45-38.55,6.57-7.37,1.22-13.11-1.93-12.89-7,.83-18.87,1.67-37.73,2.52-56.6,7.28-1.41,10.94-2.13,18.31-3.6-.49,15.68-.98,31.35-1.47,47.03-.03,1.02,1.13,1.64,2.6,1.38Z"/>
    <path d="M1817.49,390.5c11.66-2.72,23.3-5.5,34.93-8.34,6.86-1.68,12.49,1.13,12.49,6.32,0,19.97,0,39.93,0,59.9-20.78,4.44-41.58,8.73-62.42,12.87.87-19.58,1.74-39.15,2.57-58.73.22-5.1,5.75-10.46,12.43-12.01ZM1839.62,402.69c-4.13.96-6.19,1.44-10.29,2.38-3.42.78-6.23,3.48-6.31,6.05-.29,9.64-.58,19.29-.87,28.93,9.22-1.95,13.87-2.94,23.26-4.99.13-9.71.27-19.43.4-29.14.03-2.58-2.74-4.01-6.18-3.21h0Z"/>
    <path d="M1812.01,269.98c17.66-4.06,35.29-8.23,52.89-12.51,0,7.05,0,10.58,0,17.64-12.94,3.24-25.89,6.4-38.87,9.48-.06,1.6,1.22,2.64,3.03,2.46,11.96-.99,23.9-2.1,35.83-3.32,0,10.42,0,20.84,0,31.26-12.38,5-24.78,9.95-37.2,14.85-2.09.79-3.68,2.64-3.75,4.37,13.67-3.39,27.32-6.84,40.95-10.36,0,7.06,0,10.58,0,17.64-19.23,5-38.48,9.91-57.8,14.57.61-9.92.91-14.88,1.5-24.82.39-6.61,6.32-13.58,14.06-16.48,9.84-3.69,14.78-5.57,24.74-9.36.02-1.29.04-1.93.06-3.22-9.87,1.16-14.74,1.7-24.36,2.71-7.57.79-12.78-3.55-12.41-10.18.54-9.88.81-14.82,1.32-24.72Z"/>
    <path d="M1830.51,241.51c1.19-.27,1.79-.4,2.98-.67.51-16.92,1-33.84,1.42-50.76,4.09-.82,6.15-1.24,10.26-2.08-.29,16.8-.61,33.6-.95,50.4,1.2-.28,1.8-.41,3.01-.69,1.18-.27,2.16-1.34,2.17-2.39.25-16.11.48-32.21.69-48.32,5.9-1.21,8.86-1.83,14.8-3.08,0,19.3,0,38.61,0,57.91,0,5.19-4.95,10.6-11,12.05-10.28,2.47-20.58,4.88-30.88,7.24-5.92,1.36-10.46-1.9-10.2-7.25,1-19.97,1.9-39.95,2.7-59.93,5.78-1.13,8.68-1.71,14.51-2.87-.47,16.34-1.01,32.68-1.58,49.01-.04,1.06.88,1.71,2.05,1.45Z"/>
    <path d="M1827.68,113.37c10.94-1.52,16.44-2.29,27.5-3.89,5.36-.77,9.72,2.79,9.72,7.98,0,19.97,0,39.93,0,59.9-16.35,3.37-32.72,6.61-49.11,9.77.79-20.85,1.47-41.71,2.05-62.57.14-5.45,4.53-10.45,9.84-11.19ZM1845.19,128.89c-3.24.52-4.86.77-8.09,1.28-2.69.42-4.91,2.94-4.97,5.62-.21,10.08-.45,20.17-.71,30.25,7.27-1.34,10.93-2.02,18.27-3.41.12-9.92.23-19.83.33-29.75.03-2.63-2.15-4.42-4.84-3.99h0Z"/>
    <path d="M1864.9,101.8c-15.54,2.18-31.09,4.27-46.65,6.3.17-7.42.25-11.14.39-18.59,15.43-1.74,30.85-3.52,46.27-5.35,0,7.06,0,10.58,0,17.64Z"/>
    <path d="M1830.63,7.54c11.43-.13,22.85-.26,34.28-.39,0,7.06,0,10.58,0,17.64-6.01.24-9.01.35-15.01.58-.02,12.04-.07,24.07-.13,36.11,6.05-.53,9.08-.8,15.14-1.34,0,7.06,0,10.58,0,17.64-11.59,1.29-23.18,2.55-34.78,3.8-6.29.67-11.27-4.14-11.18-10.73.24-17.04.36-34.08.41-51.12.01-6.65,5.04-12.11,11.27-12.18ZM1837.03,25.86c-2.68.1-4.85,2.46-4.86,5.27-.04,10.75-.08,16.12-.18,26.83-.03,2.8,2.13,4.88,4.83,4.65.11-12.25.18-24.49.22-36.74Z"/>
  </g>
  <g>
    <path d="M1686.83,1031.25c-31.83-.12-63.67-.26-95.5-.42-7-12.4-13.79-24.89-20.39-37.51,33.82.57,67.64,1.04,101.47,1.41,4.59,12.26,9.4,24.43,14.43,36.52Z"/>
    <path d="M1504.67,816.86c39.53.74,79.06.98,118.6.75,2.12,11.13,4.34,22.21,6.69,33.29-28.17-.07-56.33-.34-84.49-.81.79,2.94,4.37,5.5,8.42,6.04,26.58,3.89,53.17,7.62,79.79,11.22,4.91,20.4,10.32,40.61,16.23,60.74-22.76,3.18-45.53,6.34-68.3,9.5-3.8.45-5.59,3.27-4.2,6.69,25.98.56,51.96,1.02,77.94,1.38,3.8,11.9,7.82,23.73,12.05,35.48-34.49-.43-68.98-.99-103.47-1.67-7.88-16.23-15.34-32.59-22.39-49.2-5.86-12.75,3.92-23.99,16.81-24.81,16-1.74,31.99-3.5,47.98-5.31-.75-2.47-1.12-3.71-1.85-6.17-17.51-2.35-35.01-4.75-52.5-7.2-14.53-1.69-29.97-11.43-35.28-25.34-4.37-14.78-8.38-29.59-12.04-44.56Z"/>
    <path d="M1523.11,678.59c30.12-.92,60.22-2.23,90.31-3.89-1.3,11.06-2.52,22.12-3.67,33.2-13.6.61-27.2,1.14-40.81,1.59-.49,21.42,3.31,42.81,6.48,63.97,13.51-.14,27.02-.35,40.53-.64,1.62,10.93,3.34,21.83,5.17,32.73-30.12.27-60.24.27-90.36,0-13.11.26-29.09-7.38-32.84-20.72-5.02-28.24-11-56.62-6.63-85.22,3.32-13.32,18.88-21.07,31.83-21.02ZM1534.93,710.44c-6.99.16-13.78,4.37-13.3,9.08,1.66,15.21,3.59,30.33,5.83,45.46.74,4.79,7.02,8.7,14.02,8.69-3.28-20.9-7.18-42.06-6.55-63.23Z"/>
    <path d="M1542.91,635.38c11.41-.59,22.81-1.22,34.21-1.9,2.68-.16,5.12-1.86,5.44-3.77,2.98-17.41,6.11-34.79,9.35-52.15.36-1.92-1.45-3.28-4.03-3.06-9.65.85-19.31,1.64-28.98,2.37,2.32-10.74,4.67-21.48,7.04-32.21,22.69-2.12,45.35-4.49,68-7.09-6.02,36.1-11.8,72.21-16.83,108.46-2.7,12.25-16.09,18.43-27.57,19.06-23.11,1.19-46.22,2.18-69.35,2.95-9.4.57-22.1-4.74-20.13-16.22,7.31-34.79,15.76-69.29,24.52-103.75,11.01-.84,22.02-1.74,33.02-2.68-6.56,28.87-12.93,57.76-18.74,86.79-.37,1.88,1.44,3.31,4.05,3.18Z"/>
    <path d="M1636.04,525.09c-36.07,4.34-72.18,8.05-108.39,11.02,2.74-10.67,5.48-21.34,8.21-32.01,35.35-3.39,70.6-7.53,105.79-12.31-1.87,11.1-3.74,22.2-5.61,33.3Z"/>
    <path d="M1567.81,372.19c32.2-4.4,64.27-9.49,96.27-15.16-3.03,16.71-6.52,33.38-8.83,50.2-1.97,14.26-16.04,24.79-28.71,28.95-14.54,4.27-29.1,8.44-43.7,12.51-3.84,1.06-7.13,4.16-7.84,7.37,24.82-3.17,49.56-6.71,74.28-10.57-1.82,11.22-3.66,22.43-5.52,33.64-34.86,4.93-69.78,9.22-104.81,12.77,3.7-14.7,7.33-29.41,10.87-44.15,3.78-12.85,15.5-23.89,28.5-27.31,14.34-4.17,28.64-8.44,42.92-12.81,1.78-.55,3.26-2.07,3.52-3.61.25-1.44.37-2.16.61-3.6-22.29,3.56-44.61,6.83-67,9.76,3.22-12.65,6.42-25.31,9.44-38Z"/>
    <path d="M1610.28,315.09c2.14-.32,3.22-.49,5.37-.81,6.88-37.99,12.47-76.09,16.55-114.49,7.43-.95,11.16-1.44,18.66-2.45-3.95,38.17-9.28,76.07-15.79,113.88,2.18-.35,3.28-.53,5.47-.89,2.15-.35,4.22-2.51,4.61-4.83,6-36.33,10.96-72.74,14.68-109.37,10.75-1.47,16.17-2.23,27.06-3.8-4.19,43.77-9.96,87.28-16.96,130.68-2.35,11.85-11.93,21.65-23.77,24.15-18.67,3.14-37.35,6.1-56.08,8.86-10.17,2.24-17.57-9.1-14.5-18.08,9.31-44.31,16.62-88.81,21.52-133.82,10.43-1.23,15.68-1.86,26.24-3.19-3.97,37.08-9.39,73.85-16.08,110.53-.43,2.33.91,3.96,3.01,3.64Z"/>
    <path d="M1618.48,8.83c18.2-.13,36.39-.26,54.59-.4,12.21.51,19.63,12.3,19.83,23.6.68,48.46-.94,96.74-4.69,145.05-29.83,4.04-59.69,7.76-89.6,11.16,4.23-51.23,5.04-102.29,2.47-153.64-.78-11.09,4.6-25.03,17.4-25.77ZM1655.28,54.41c-6.23.28-9.35.43-15.57.7-5.18.23-9.23,5.91-9.14,12.64.2,24.78-.27,49.48-1.42,74.24,11.25-1.13,22.5-2.29,33.75-3.47,1.2-24.21,1.83-48.38,1.88-72.62-.02-6.56-4.3-11.72-9.49-11.48h0Z"/>
  </g>
  <g>
    <path d="M1725.32,995.95c2.64.02,3.96.03,6.6.04-9.24-34.38-17.27-68.96-24.13-103.89,11.11-.04,22.22-.11,33.32-.19,5.52,34.94,11.98,69.66,19.45,104.24,11.19.04,22.38.08,33.57.1,1.81,11.81,3.71,23.61,5.71,35.4-31.42-.04-62.83-.11-94.25-.21-17.03-45.68-31.4-92.01-42.98-139.37,10.91.04,21.82.06,32.73.06,7.08,33.66,15.31,66.96,24.71,100.04.6,2.07,2.96,3.77,5.27,3.79Z"/>
    <path d="M1638.62,757.3c30.54-1.04,61.05-2.39,91.56-4.02,14.88-1.31,38.55,5.16,40.34,23.03,1.85,26.5,3.97,52.97,6.4,79.43,2.08,17.21-18.86,25.73-32.46,26.2-28.05.3-56.09.43-84.14.37-2.48-11.09-4.85-22.17-7.12-33.3,23.7-.12,47.4-.39,71.1-.79,7.03-.13,12.25-4.29,11.64-9.26-1.73-14.39-3.35-28.79-4.85-43.2-.5-4.93-6.89-8.67-14.23-8.39-24.63.91-49.26,1.64-73.9,2.2-1.53-10.75-2.98-21.49-4.34-32.26Z"/>
    <path d="M1681.84,622.91c-1.65,15.58-3.18,31.18-4.58,46.79,30.33-2.35,60.62-5.03,90.9-8-.51,11.46-.99,22.92-1.44,34.38-30.72,2.62-61.45,4.95-92.21,6.95-.37,15.49,1.29,30.56,2.82,45.97-13.17.59-26.34,1.12-39.52,1.58-4.77-42.33.38-82.11,5.72-124.25,12.78-1.07,25.55-2.21,38.31-3.42Z"/>
    <path d="M1662.6,494.29c27.22-3.98,54.38-8.31,81.5-12.96,12.29-1.94,34.96,2.08,33.02,19.47-1.64,26.6-3.24,53.2-4.77,79.81-1.74,17.8-23.24,28.67-39.14,30.03-29.57,3.27-59.15,6.23-88.78,8.85,1.46-10.91,2.95-21.81,4.47-32.71,23.76-2.44,47.49-5.11,71.2-7.99,7.11-.88,13.27-5.65,13.7-10.62,1.24-14.47,2.5-28.95,3.78-43.42.44-4.98-4.79-8.15-11.61-7.11-22.75,3.41-45.53,6.62-68.34,9.6,1.65-10.98,3.31-21.97,4.97-32.95Z"/>
    <path d="M1750.86,356.34c12.86-13.09,25.61-26.27,38.28-39.55-1.17,15.12-2.38,30.25-3.61,45.36-12.68,12.77-25.54,25.33-38.52,37.78-.26.25-.42.55-.45.83-.99,11.7-2,23.39-3.04,35.09,12.7-2.46,25.39-5,38.06-7.63-.7,11.5-1.4,23.01-2.1,34.51-38.25,7.22-76.59,13.8-115.08,19.65,5.77-38.59,10.62-77.34,17.22-115.8,2.94-12.97,14.27-25.35,27.75-27.78,7.82-1.56,11.76-2.36,19.7-4,11.62-2.78,23.87,4.58,22.25,17.55-.18,1.59-.27,2.39-.45,3.98ZM1714.07,372.96c-3.09.63-5.92,3.41-6.35,6.23-2.78,21.55-5.13,43.16-7.74,64.73,4.69-.83,7.04-1.25,11.77-2.11,2.42-21.63,4.59-43.3,7.2-64.91.4-2.81-1.79-4.57-4.88-3.94Z"/>
    <path d="M1725.89,286.41c2.28-.45,3.41-.67,5.7-1.12,4.08-36.01,7.53-72.06,10.21-108.2,7.69-1.2,11.55-1.82,19.31-3.08-2.36,35.76-5.37,71.45-8.9,107.11,2.32-.48,3.48-.72,5.81-1.2,2.29-.48,4.31-2.65,4.51-4.85,3.09-34.16,5.74-68.34,7.86-102.57,9.35-1.53,18.69-3.11,28.02-4.72-1.91,40.7-4.38,81.35-7.26,121.99-1.46,12.17-11.61,21.61-23.19,24.45-19.98,4.36-39.98,8.59-60.05,12.53-10.48,2.45-19.31-5.56-17.36-16.27,6.18-42.5,11.28-85.09,14.97-127.88,10.78-1.58,16.2-2.39,27.13-4.07-2.71,34.96-6.19,69.82-10.31,104.65-.27,2.24,1.31,3.69,3.55,3.26Z"/>
    <path d="M1739.63,124.92c.61-.07.91-.11,1.52-.18,2.07-.25,3.83-2.35,3.94-4.7,1.19-29.42,1.8-58.82,1.8-88.26-.05-10.84,7.03-21.78,18.64-22.28,7-.08,10.51-.12,17.51-.2,11.03.17,18.86,9.8,18.87,20.45-.24,41.79-1.26,83.54-2.94,125.3-9.27,1.52-18.55,3-27.84,4.45,1.85-35.27,3.06-70.54,3.56-105.86.03-2.34-1.64-4.14-3.71-4.02-.84.05-1.26.07-2.1.12-1.75.1-3.18,1.8-3.2,3.8-.39,28.92-1.29,57.8-2.65,86.69-.8,11.26-8.88,21.44-20.17,23.58-7.04,1.05-10.55,1.56-17.54,2.57-11.16,1.6-18.13-8.64-17.26-18.86,2.65-45.8,3.5-91.55,2.43-137.41,10.84-.11,16.26-.17,27.11-.29.55,37.12.02,74.18-1.51,111.28-.11,2.36,1.48,4.08,3.54,3.83Z"/>
  </g>
  <g>
    <path d="M1388.47,1003.07c9.57.2,14.36.3,23.95.5,1.85.04,2.27-1.52.95-3.47-18.34-27.54-35.23-55.73-50.23-85.22,10.75.53,16.15.79,26.98,1.3,18.02,36.08,38.81,70.23,61.6,103.48,6.86,9.86,5.59,18.01-3.37,17.98-15.38-.05-30.77-.1-46.15-.15-12.2-1.06-23.28-9.48-30.55-18.88-25.03-34.15-47.89-69.29-67.48-106.85,10.58.59,15.89.89,26.55,1.45,15.46,29.91,32.93,58.4,51.9,86.21,1.37,1.98,4,3.62,5.85,3.66Z"/>
    <path d="M1285.96,790.29c12.1.85,24.21,1.65,36.32,2.4,12.8,1.24,25.55,8.43,29.77,21.12,6.59,24.8,14.76,48.67,24.45,72.43,5.43,11.42-3.45,21.7-15.45,20.42-12.14-.62-24.28-1.27-36.42-1.94-14.23-.68-28.55-11.05-34.81-23.48-9.94-23.95-18.07-47.92-24.27-73.1-2.78-12.37,9.85-18.95,20.42-17.86h0ZM1328.39,826.14c-1.12-3.97-5.99-7.41-10.94-7.72-5.95-.38-8.91-.57-14.82-.97-4.91-.33-8.06,2.59-6.96,6.57,4.35,14.88,9.25,29.41,14.71,43.93,1.64,4.19,7.05,7.87,11.97,8.16,5.92.36,8.89.53,14.84.88,4.96.29,7.58-2.9,5.95-7.07-5.44-14.47-10.36-28.96-14.76-43.78Z"/>
    <path d="M1269.28,661.62c26.85,1.6,53.7,2.82,80.58,3.7-2.76,10.02-4.05,15.05-6.41,25.16-19.65-.76-39.3-1.73-58.93-2.94-.57,2.2.97,4.21,3.62,4.72,17.49,3.69,35,7.22,52.56,10.6-3.02,15.21-1.65,28.94-.32,44.33-18.27,1.55-36.54,3.01-54.82,4.38-3.06.17-5.16,2.08-4.93,4.52,20.38,1.45,40.78,2.67,61.18,3.78,1.29,10.14,2.08,15.26,4.01,25.61-28.58-1.61-57.13-3.5-85.67-5.65-1.74-11.58-2.91-23.25-3.51-34.94-.51-9.63,10.47-17.05,19.18-16.77,12.21-.66,24.42-1.39,36.63-2.17-.07-1.78-.1-2.67-.15-4.45-12.19-2.17-24.37-4.44-36.53-6.81-9.02-.61-18.47-10.12-15.93-19.63,2.91-11.25,6.03-22.32,9.43-33.43Z"/>
    <path d="M1327.67,555.63c6.46.11,9.72.15,16.27.21,9.44.08,14.64,6.63,11.52,14.66-7.63,19.8-15.03,39.66-21.95,59.72,10.55.3,15.88.42,26.67.61-3.2,9.97-4.73,14.95-7.62,24.95-26.77-.78-53.51-1.92-80.25-3.43,9.67-28.06,20.76-55.47,32.41-82.75,4.17-8.58,13.54-13.85,22.96-13.96ZM1326.89,579.66c-.73-.02-1.09-.02-1.82-.04-1.73-.04-3.61,1.1-4.19,2.54-6.34,15.54-12.42,31.2-18.12,46.98,3.33.14,5,.2,8.35.33,5.64-15.83,11.63-31.54,17.89-47.13.58-1.44-.36-2.64-2.1-2.68Z"/>
    <path d="M1354.28,452.06c16.54-.07,33.08-.36,49.61-.94,10.78-.71,17.84,8.95,13.98,19.02-7.07,20.15-14.4,40.19-21.84,60.21-4.89,11.51-16.98,18.73-29.28,19.11-17.7.01-35.39-.15-53.09-.5,4.29-9.83,6.46-14.76,10.79-24.73,14.26.17,28.52.21,42.78.14,4.23-.03,8.87-3.09,10.33-6.84,4.28-10.97,8.51-21.96,12.64-32.99,1.43-3.83-.76-6.85-4.85-6.76-13.8.26-27.6.45-41.41.42,3.55-8.67,7-17.38,10.34-26.14Z"/>
    <path d="M1413.12,330.6c-3.68,15.12-7.66,30.1-11.95,45.05,15.8-.69,31.6-1.56,47.38-2.67-3.01,10.5-6.12,20.95-9.33,31.4-15.9.96-31.81,1.64-47.73,2.13-4.5,13.27-8.94,26.57-13.7,39.75-8.63.16-12.91.2-21.4.24,13.92-37.74,26.28-75.73,35.88-114.81,8.29-.39,12.46-.61,20.85-1.09Z"/>
    <path d="M1423.23,290.28c1.57-.1,2.35-.16,3.92-.26,5.71-33.55,9.3-67.11,10.86-101.11,5.77-.38,8.66-.57,14.45-.97-1.73,33.98-5.45,67.54-11.18,101.08,1.58-.12,2.37-.18,3.96-.29,1.56-.12,3.11-1.84,3.47-3.86,5.39-32.33,8.94-64.68,10.68-97.41,8.29-.59,12.45-.89,20.79-1.52-2.35,39.35-7.27,78.12-14.7,116.83-1.98,9.93-10.16,18.37-17.99,18.95-13.29.99-26.59,1.86-39.89,2.6-7.64.43-11.99-7.07-10.03-16.9,7.41-38.71,11.73-77.41,13.09-116.8,8.17-.48,12.26-.73,20.48-1.26-1.4,32.76-4.72,65.12-10.05,97.47-.35,2.01.61,3.56,2.15,3.46Z"/>
    <path d="M1449.58,39.91c6.53-12.65,12.99-25.33,19.41-38.03,2.88,17.89,5.36,35.78,7.41,53.78-6.86,12.2-13.78,24.36-20.78,36.48-.14.25-.21.57-.18.91.98,13.83,1.8,27.65,2.16,41.51,9.4-.53,14.11-.81,23.55-1.39.19,12.91.06,25.83-.38,38.73-23.3,1.66-46.6,3.19-69.92,4.52-.19-47.27-4.75-93.83-12.87-140.38-2.13-10.09-.38-26.95,12.96-27.94,5.99-.02,8.99-.03,14.99-.06,12.79,1.22,21.62,15.31,22.97,27.17.28,1.88.41,2.82.68,4.7ZM1425.84,51.13c-2.2.05-3.59,2.77-3.13,6.06,3.5,26.25,5.94,52.42,7.22,78.87,3.02-.16,4.54-.24,7.56-.4-1.16-26.38-3.47-52.49-6.83-78.68-.45-3.28-2.62-5.91-4.82-5.86Z"/>
  </g>
  <g>
    <path d="M1486.4,996.01c.62.01.92.02,1.54.03,2.09.04,2.77-1.61,1.53-3.68-14.14-23.97-27.46-48.35-39.13-73.63-4.42-9.58,1.51-16.82,12.88-16.39,7.65.29,11.48.43,19.18.7,11.46.69,22.76,7.25,27.78,17.79,16.7,38.57,36.11,75.47,57.66,111.54-10.46-.05-15.69-.08-26.14-.13-19.11-30.35-36.7-61.37-52.41-93.62-.93-1.94-3.48-3.57-5.71-3.65-.91-.03-1.36-.05-2.26-.08-1.88-.06-2.78,1.21-1.98,2.86,12.7,25.76,26.58,50.72,41.49,75.26,6.47,10.49,4.01,19.14-6.01,19.08-6.74-.04-10.11-.06-16.84-.1-12.78-1.12-24.24-9.61-31.57-19.77-23.65-36.05-44.89-73.13-62.72-112.41,9.73.46,19.46.89,29.19,1.3,13.91,31.41,29.85,61.54,47.44,91.04,1.26,2.08,4,3.8,6.09,3.85Z"/>
    <path d="M1422.39,860.04c9.94.44,19.89.85,29.84,1.23,2.32.09,3.71-1.31,3.12-3.11-8.41-26.48-15.19-53.13-20.35-80.43,10.8.29,21.61.56,32.41.79,6.36,33.51,14.99,66.15,25.86,98.48,3.18,9.16-3.37,16.4-14.88,15.99-19.59-.7-39.18-1.48-58.76-2.36-11.19-.8-22.4-7.31-27.11-17.75-11.82-31.97-20.88-64.26-26.9-97.81,10.33.5,20.66.95,30.99,1.35,5.05,27.28,11.9,53.8,20.52,80.17.61,1.8,2.97,3.35,5.27,3.46Z"/>
    <path d="M1465.8,769.18c-33.89-.67-67.76-1.75-101.62-3.28-1.39-9.29-2.49-18.68-3.29-28.03,33.59,1.37,67.19,2.25,100.81,2.67,1.14,9.57,2.51,19.14,4.1,28.64Z"/>
    <path d="M1395.19,701.04c2.27.05,3.41.07,5.7.12,5.48-26.99,12.21-53.56,19.77-80.04,7.89-.08,11.86-.13,19.88-.28-7.25,26.7-13.72,53.49-18.99,80.65,2.33.03,3.49.04,5.83.07,2.29.02,4.41-1.34,4.73-3.05,5.1-26.2,11.22-52.05,18.04-77.86,9.73-.2,19.46-.47,29.19-.8-7.74,31.65-14.49,63.4-19.64,95.58-1.32,8.66-8.81,15.08-20.51,14.91-19.67-.29-39.34-.75-58.99-1.44-8.65-.27-20.43-5.25-20.32-15.5,6.14-31.25,14.34-61.81,23.8-92.21,10.92.06,16.44.05,27.61-.01-7.4,25.39-14.02,50.83-19.52,76.71-.34,1.68,1.19,3.09,3.43,3.14Z"/>
    <path d="M1421.16,512.85c29.57-1.2,59.09-2.97,88.59-5.27-3.68,13.28-7.4,26.55-11.09,39.83-4.06,12.34-16.22,20.21-28.54,22.51-13.47,2.42-26.95,4.73-40.46,6.92-3.56.58-6.79,2.99-7.68,5.74,22.58-.54,45.13-1.35,67.69-2.42-2.61,9.64-5.16,19.29-7.62,28.97-31.68,1.11-63.35,1.71-95.05,1.75,4.13-12.64,8.42-25.23,12.81-37.78,4.65-11.59,16.35-19.02,28.3-21.19,13.36-2.3,26.69-4.72,40.01-7.25,1.65-.31,3.15-1.5,3.54-2.8.37-1.22.56-1.84.93-3.06-20.5,1.08-41.02,2.01-61.54,2.53,3.38-9.49,6.76-18.98,10.12-28.48Z"/>
    <path d="M1485.95,386.86c-4.47,15.63-9.13,31.2-13.56,46.84,19.46-1.47,38.89-3.31,58.29-5.44-2.48,10.19-5.06,20.35-7.72,30.49-19.83,1.92-39.67,3.67-59.54,5-4.32,13.82-8.73,27.6-13.22,41.36-10.82.58-16.17.83-26.75,1.25,13.55-38.85,25.87-78.03,37.63-117.46,9.85-.74,14.82-1.14,24.87-2.04Z"/>
    <path d="M1544.86,372.67c-27.11,3.22-54.24,5.94-81.45,8.12,3.36-11.84,6.53-23.73,9.49-35.68,26.87-2.38,53.66-5.22,80.44-8.5-2.67,12.06-5.5,24.07-8.47,36.06Z"/>
    <path d="M1510.24,292.87c.53-.05.79-.08,1.32-.14,1.8-.19,3.6-2.14,4.01-4.37,5.01-28.27,8.89-56.58,11.64-85.16.94-10.21,7.11-21.48,18.09-23.24,6.11-.57,9.18-.85,15.33-1.45,10.76-.68,15.88,10.57,14.81,19.81-4.28,42.27-10.83,84.03-19.37,125.64-9.79,1.23-14.64,1.82-24.26,2.92,7.28-34.18,13.13-68.49,17.42-103.18.27-2.33-.99-4.06-2.81-3.87-.74.08-1.11.12-1.84.19-1.53.16-2.95,1.89-3.18,3.86-3.45,28.26-7.94,56.27-13.44,84.2-2.24,10.19-10.01,19.72-20.69,21.46-6.1.63-9.14.93-15.17,1.51-8.98.86-14.11-7.22-11.8-18.15,8.72-42.63,14.55-85.41,17.34-128.84,9.32-.75,13.99-1.14,23.39-1.95-2.52,35.97-6.96,71.54-13.27,107.04-.41,2.23.7,3.88,2.5,3.69Z"/>
    <path d="M1515.46,3.92c2.8,21.82,5,43.64,6.56,65.59,19.07-.77,38.14-1.58,57.21-2.42.44,14.42.66,28.82.65,43.25-18.7,1.29-37.39,2.52-56.1,3.69.17,20.02-.05,40.02-1.16,60.01-9.88.83-14.8,1.23-24.59,1.99,2.25-57.77-1.18-114.82-9.46-172.04,10.75-.02,16.13-.04,26.89-.06Z"/>
  </g>
  <g>
    <path d="M1067.52,800.24c26.47,2.66,52.95,5.22,79.43,7.81,16.41,1.26,32.52,14.38,37.56,29.87,23.22,75.52,69.43,141.58,118.55,202.4-47.47-.09-94.94-.16-142.41-.22-48.77-64.48-94.45-134.87-113.67-214.44-2.85-12.96,5.35-28.1,20.54-25.43ZM1130.89,857.37c-10.16-.87-13.91-1.07-22.87-1.75-7.46-.57-11.26,5.53-8.01,13.85,14.56,35.8,33.02,69.03,53.98,101.45,17.75.51,35.49,1.01,53.23,1.71-21.28-31.71-40.14-64.25-55.27-99.35-3.38-8.16-12.61-15.19-21.07-15.92,0,0,0,0,0,0Z"/>
    <path d="M1087.18,741.48c11.26,1.33,22.52,2.64,33.78,3.94,3.14.36,5.76-1.56,5.89-4.26,1.71-24.62,5.95-47.42,13.04-71.05.81-2.54-.9-4.86-3.83-5.2-26.44-3.17-52.79-6.98-79.12-10.96,5.76-14.29,11.98-28.25,18.67-42.14,31.86,4.9,63.7,9.33,95.78,12.5,13,.88,22.74,12.41,17.8,25.32-13.41,37.91-19.81,72.62-18.47,112.9,1.31,21.27-18.61,33.68-38.03,31.51-14.59-1.5-29.19-2.97-43.78-4.47-1.9-15.93-2.68-32.08-1.73-48.11Z"/>
  </g>
  <g>
    <path d="M252.74,779c26.22-3.65,52.47-6.98,78.78-9.96,16.69-1.13,24.51,16.65,21.65,31.12-10.14,80.98-9.14,161.6,1.67,242.47-47.45.02-94.89.04-142.34.07-4.1-75.74-1.47-151.09,7.27-226.42,1.64-16.98,15.85-34.4,32.97-37.28ZM295.47,836.2c-9.05.99-13.61,1.5-22.76,2.56-7.62.88-14.64,9.34-15.48,18.96-3.06,37.58-4.39,75.09-4,112.79,17.2-.9,34.4-1.77,51.61-2.6-1.19-38.62-.34-77.02,2.61-115.55.81-9.79-4.44-16.97-11.98-16.15,0,0,0,0,0,0Z"/>
    <path d="M292.2,698.99c11.82-1.6,23.65-3.1,35.5-4.5,3.09-.36,6.25-3.49,7.09-6.98,7.35-29.66,15.47-59.12,23.29-88.65.79-2.94-1.19-5.07-4.45-4.76-32.23,3.19-64.35,7.11-96.42,11.65,3.27-16.91,6.64-33.8,10.07-50.68,40.43-4.89,80.92-8.84,121.55-11.7,13.01-.71,27.46,9.12,21.28,23.85-14.38,45.38-27.94,91.16-39.21,137.42-5.4,22.24-23.27,46.34-47.4,49.52-14.42,1.71-28.83,3.51-43.22,5.41,3.6-20.28,7.58-40.46,11.93-60.6Z"/>
  </g>
</svg>