<?xml version="1.0" encoding="UTF-8"?>
<svg id="Layer_1" data-name="Layer 1" xmlns="http://www.w3.org/2000/svg" viewBox="0 0 1864.9 1043.32">
  <g>
    <path d="M23.39,900.95c22.68-7.78,45.4-15.41,68.22-22.75-1.28,13.1-2.38,26.22-3.3,39.35-9.49,2.5-18.97,5.05-28.43,7.64-1.32,25.53-2.2,51.04-2.62,76.6,11.14-1.21,16.7-1.8,27.76-2.95-.15,13.96-.02,27.92.21,41.88-21.37.14-42.75.28-64.12.43-11.51-.18-20.94-9.39-21.1-20.96,0-29.99,0-59.99,0-89.98.83-12.83,11.16-25.27,23.39-29.26ZM35.01,932.07c-5.23,1.47-9.62,7-9.76,12.33-.41,17.1-.73,34.2-.96,51.3-.06,5.39,3.97,9.29,8.98,8.73.31-24.13.9-48.24,1.73-72.36Z"/>
    <path d="M0,782.24c37.28-16.78,74.73-33.13,112.45-48.89-3.12,16.65-5.94,33.35-8.65,50.08-2.32,15.12-14.16,28.79-26.83,36.43-13.87,7.78-27.74,15.55-41.62,23.33-3.75,2.1-6.61,6.08-6.76,9.44,22.94-9.13,45.94-18.07,69.04-26.8-1.69,12.77-3.22,25.56-4.59,38.36C61.89,874.8,30.89,885.82,0,897.19v-44.68c1.03-14.79,13.05-28.45,25.69-35.31,14.89-8.54,29.78-17.06,44.69-25.56,1.8-1.03,3.25-2.95,3.45-4.58.19-1.52.28-2.28.47-3.81C49.43,793.71,24.68,804.39,0,815.25v-33.01Z"/>
    <path d="M115.06,719.61C76.46,735.78,38.14,752.57,0,769.8c0-11,0-22.01,0-33.01,40.54-18.33,81.28-36.17,122.35-53.29-2.53,12.02-4.96,24.06-7.29,36.11Z"/>
    <path d="M0,567.05c51.01-16.46,102.23-32.19,153.77-46.88-1.92,10.05-3.84,20.1-5.75,30.16-34.84,11.02-69.52,22.51-104.09,34.36-.15,2.86,3.52,3.97,8.6,2.65,30.84-7.65,61.73-15.07,92.69-22.19-3.37,18.08-6.66,36.17-9.83,54.29-29.14,14.42-58.05,29.28-86.79,44.5-5.09,2.64-8.98,6.93-9.12,10.07,30.95-13.34,62.02-26.37,93.27-38.99-2.19,11.72-5.02,23.32-7.53,34.97-42.04,17.45-83.74,35.64-125.23,54.35v-45.48c1.81-17.97,20.85-31.48,35.61-38.69,20.83-10.16,41.73-20.16,62.73-29.97.28-2.27.42-3.4.7-5.67-20.92,5.84-41.8,11.79-62.66,17.85C25.58,624.59,1.56,629.64,0,612.08v-45.03Z"/>
    <path d="M46.08,413.51c43.59-8.52,87.27-16.51,131.08-23.83-1.54,9.95-3.17,19.89-4.87,29.81-18.06,3.45-36.11,7-54.13,10.64-2.34,20.62-4.8,41.22-7.33,61.81,16.88-4.32,33.78-8.55,50.7-12.69-1.87,9.98-3.76,19.96-5.67,29.94-38.57,10.57-76.96,21.7-115.24,33.26C30.03,544.82,2.51,551.64,0,533.89v-89.98c1.5-18.58,32-27.65,46.08-30.4ZM69.75,440.27c-10.28,2.21-18.92,8.02-19.15,12.89-.73,15.55-1.5,31.1-2.28,46.65-.25,4.88,7.5,6.65,17.13,4.06,1.48-21.2,2.93-42.4,4.3-63.61Z"/>
    <path d="M57.62,283.09c.91,14.82,1.75,29.63,2.54,44.46,41.51-5.78,83.06-11.08,124.7-15.82,3.04,9.18.33,20.32-.84,29.55-41.44,5.51-82.78,11.6-124.07,18.15-.59,15.03-1.23,30.06-1.91,45.09-19.37,3.67-38.72,7.46-58.04,11.36v-125.98c19.2-2.35,38.4-4.62,57.62-6.8Z"/>
    <path d="M42.9,146c20.39-.73,40.77-1.38,61.17-1.88,16-.76,41.44,5.02,47.92,21.93,7.65,25.83,14.4,51.77,20.31,78.05,2.76,19.65-32.07,24.06-44.46,25.95-24.91,2.34-49.8,4.86-74.68,7.54C40.18,278.34,1.12,280.7,0,259.06v-86.66c2.22-19.78,27.2-24.59,42.9-26.4h0ZM109.3,183.55c-.91-4.54-8.67-7.96-17.39-7.59-10.48.45-15.75.69-26.38,1.2-8.85.43-15.73,4.63-15.3,9.33,1.55,16.82,2.93,33.65,4.21,50.49.35,4.68,8.67,7.74,18.47,6.91,9.72-.83,19.45-1.63,29.18-2.39,9.63-.76,16.77-4.95,16.03-9.42-2.68-16.22-5.58-32.41-8.82-48.53Z"/>
    <path d="M66.75,28.51c7.27-9.42,12.97-17.96,18.58-28.43,6.72,13.61,13.24,27.28,19.56,41.08-7.64,9.91-16.31,19-25.52,27.45-.2.19-.28.44-.2.7,3.08,10.92,6.06,21.86,8.96,32.83,14-.12,28-.2,42-.24,3.85,10.34,7.59,20.7,11.22,31.12C94.2,133.65,47.1,134.9,0,136.75c0-37.27,0-74.55,0-111.82C.38,13.65,9.71,4.69,20.95,4.56c6.78,0,10.17,0,16.94,0,12.26.49,23.42,9.01,27.71,20.4.46,1.42.69,2.13,1.15,3.55ZM34.81,36.52c-3.04,0-5.23,2.02-4.89,4.52,2.72,20.59,5.24,41.21,7.57,61.85,5.61-.11,8.4-.16,13.98-.25-3.19-20.58-6.63-41.11-10.33-61.61-.46-2.49-3.29-4.5-6.33-4.5Z"/>
  </g>
  <g>
    <path d="M125.66,887.6c20.34-5.68,40.71-11.17,61.15-16.48-1.16,11.41-2.17,22.79-3.04,34.23-14.48,3.13-28.93,6.34-43.37,9.63-.21,2.9,1.16,5.04,3.2,5.05,13.07.45,26.13,1.26,39.16,2.4-.91,21.35-1.19,42.63-.85,63.99-13.32,5.02-26.69,9.88-40.12,14.59-2.29.72-3.95,3.71-3.89,7.08,14.87-1,29.74-1.98,44.62-2.93.54,12.73,1.34,25.45,2.4,38.15h-63.77c-.62-15.54-.98-31.1-.95-46.65.03-10.62,5.07-22.11,15.3-26.5,9.14-3.33,18.26-6.73,27.35-10.2.04-2.54.07-3.81.13-6.34-10.74-.91-16.12-1.29-26.96-1.86-9.51-.73-15.07-12.8-13.79-21.13.95-14.37,2.09-28.7,3.45-43.03Z"/>
    <path d="M152.11,838.95c1.46-.47,2.19-.7,3.65-1.17,4.47-28.73,9.94-57.18,16.4-85.54,5.61-2.11,8.4-3.14,13.91-5.18-6.86,28.68-12.66,57.48-17.35,86.6,1.44-.45,2.15-.68,3.58-1.12,1.4-.44,2.78-2.32,3.08-4.19,4.7-28.14,10.45-55.98,17.24-83.69,7.8-2.85,11.64-4.24,19.24-6.94-8.89,34.28-15.99,68.77-21.28,103.78-1.39,9.7-7.86,19.17-14.74,21.07-12.04,3.32-24.06,6.73-36.06,10.22-7.11,2.07-12.15-3.59-11.03-12.59,4.24-32.74,9.67-65.21,16.2-97.57,8.31-3.22,12.4-4.79,20.49-7.85-6.01,27.09-11.16,54.28-15.42,81.7-.27,1.82.68,2.93,2.11,2.47Z"/>
    <path d="M191.98,635.81c15.27-5.85,30.59-11.57,45.98-17.09,8.62-3.1,12.79,1.13,9.64,9.36-12.22,32.41-23.19,65.14-32.72,98.44-22.7,8.14-45.24,16.69-67.71,25.43,7.03-31.93,15-63.59,23.77-95.09,3.31-9.65,11.76-17.23,21.03-21.06ZM212.46,652.28c-5.1,1.91-7.67,2.88-12.87,4.87-4.33,1.65-8.89,6.33-10.13,10.44-4.71,15.59-9.12,31.28-13.28,47.02,8.79-3.41,17.59-6.76,26.42-10.06,4.67-15.97,9.63-31.86,14.95-47.62,1.39-4.15-.86-6.24-5.1-4.65h0Z"/>
    <path d="M257.32,603.43c-26.63,9.33-53.07,19.13-79.4,29.29,3.2-10.82,4.55-15.77,6.74-24.82,27.28-10.11,54.68-19.84,82.27-29.07-3.23,8.67-5.16,13.58-9.62,24.59Z"/>
    <path d="M208.98,515.68c22.54-6.17,45.12-12.16,67.8-17.79,14.61-3.62,23.06.46,19.43,8.89-6.89,16.07-13.63,32.19-20.16,48.41-5.73,11.44-17.54,19.24-29.25,23.54-20.14,6.83-40.18,13.88-60.17,21.13,2.23-9,3.37-13.48,5.67-22.38,17.12-5.81,34.28-11.49,51.49-17.02,4.84-1.54,9.63-5.32,10.76-8.46,3.28-9.09,6.64-18.15,10.06-27.19,1.17-3.09-1.99-4.47-7.12-3.05-18.21,5.08-36.38,10.32-54.51,15.69,2.39-8.74,3.59-13.1,5.99-21.77Z"/>
    <path d="M238.43,405.82c35.85-5.97,71.77-11.41,107.8-16.2-3.08,7.89-4.67,11.84-7.92,19.73-24.85,3.77-49.64,7.84-74.4,12.17-.56,1.86,1.65,2.95,5.18,2.6,21.73-1.9,43.46-3.61,65.21-5.12-4.93,11.76-9.99,23.47-15.09,35.16-21.98,6.29-43.86,12.86-65.67,19.69-3.8,1.16-7.1,3.53-7.75,5.57,22.96-5.33,45.95-10.48,69.03-15.23-3.51,8-5.28,12.02-8.82,20.1-31.76,7.33-63.35,15.23-94.85,23.58,2.74-9.9,5.49-19.79,8.21-29.69,4.99-12.32,18.49-17.03,29.85-21.32,15.44-4.44,30.92-8.77,46.45-12.9.56-1.47.84-2.2,1.39-3.67-14.77,1.6-29.53,3.29-44.29,5.05-8.6-.12-21.34,1.45-21.73-10.42,2.55-9.68,5.02-19.38,7.4-29.1Z"/>
    <path d="M282.59,371.16c2.95-.39,4.42-.58,7.35-.96,5.52-20.69,11.09-41.43,13.87-62.68,10.92-.91,21.83-1.78,32.76-2.62-3.14,20.92-9.29,41.18-15.4,61.4,11.74-1.4,23.48-2.73,35.24-3.99-2.8,7.92-4.26,11.88-7.27,19.78-36.33,4.58-72.56,9.82-108.72,15.59,6.68-28.32,13.56-56.88,16.67-85.85,11.37-1.11,22.74-2.18,34.12-3.21-2.51,20.63-7.65,40.81-12.71,60.94-.32,1.23,1.52,1.95,4.1,1.61Z"/>
    <path d="M312.27,224.54c11.16-.21,22.32-.38,33.49-.51,10.41,23.76,19.13,47.66,26.25,72.6-38.79,2.32-77.51,5.33-116.21,8.9-1.67-8.08-2.56-12.13-4.46-20.29,26.83-2.08,53.66-3.91,80.53-5.45-5.48-18.79-12.27-37.11-19.6-55.25Z"/>
    <path d="M201.05,139.46c23.4,0,46.8.12,70.2.47,13.82.62,29.35,5.35,38.15,16.68,9.66,15.83,18.73,31.86,27.24,48.34,5.32,13.33-16.61,14.48-23.69,15.32-26.39.5-52.77,1.26-79.15,2.25-2.77-8.45-4.23-12.7-7.33-21.28,21.3-.56,42.59-.97,63.89-1.23,6.08-.07,9.83-2.56,8.35-5.61-4.38-9.11-9.03-18.15-13.88-27.01-1.71-3.14-7.79-5.75-13.55-5.78-20.12-.11-40.23-.03-60.34.13-3.76-8.83-5.73-13.29-9.89-22.28Z"/>
    <path d="M293.69,132.5c-32.15-.7-64.29-1.09-96.44-1.17-4.3-9.06-6.56-13.62-11.29-22.86,30.62.27,61.24.78,91.85,1.55,6.68,9.13,9.85,13.63,15.88,22.48Z"/>
    <path d="M137.51,4.36c12.75.03,25.49.06,38.24.1,10.02.77,19.51,6.82,26.3,13.94,24.24,26.75,47.47,54.21,69.33,82.95-29.99-.77-59.97-1.31-89.97-1.63-14.98-28.03-31.18-55.25-48.42-81.95-4.82-7.37-2.9-13.42,4.52-13.41ZM183,29.92c-4.95-.07-7.42-.1-12.38-.16-4.13-.05-5.32,2.89-2.73,6.53,9.44,13.21,18.52,26.68,27.32,40.32,10.64.18,21.27.39,31.9.63-10.1-13.75-20.57-27.2-31.23-40.52-2.97-3.68-8.77-6.73-12.89-6.79h0Z"/>
  </g>
  <g>
    <path d="M383.46,406.33c24.98-3.24,49.97-6.12,75.03-8.57-3.78,5.95-5.71,8.93-9.61,14.91-17.35,1.9-34.67,4.14-51.97,6.48-.76,1.39.45,2.31,2.85,2.18,14.77-.58,29.53-1.04,44.31-1.35-5.91,8.95-11.87,17.85-17.84,26.76-15.87,3.78-31.67,7.86-47.42,12.11-2.73.71-5.38,2.38-6.25,3.92,16.14-3,32.32-5.82,48.54-8.36-4.1,6.13-6.15,9.21-10.26,15.43-22.33,4-44.57,8.38-66.76,13.08,4.67-9.04,7.02-13.52,11.67-22.44,5.09-8.13,14.96-12.71,23.94-14.94,11.07-2.69,22.14-5.31,33.24-7.85.69-1.11,1.04-1.67,1.72-2.78-10.06.56-20.11,1.22-30.16,1.96-9.75.71-14.93-2.99-11.95-8.84,4.45-8.7,6.64-13.04,10.91-21.7Z"/>
    <path d="M412.96,339.88c19.45-1.42,38.93-2.58,58.41-3.5,12.67-.59,20.2,4.1,16.98,10.28-6.14,11.77-12.74,23.31-19.64,34.65-6.34,8.34-17.96,12-27.96,13.09-18.19,1.88-36.35,3.96-54.5,6.21,3.09-6.35,4.6-9.52,7.56-15.86,15.34-1.67,30.69-3.22,46.05-4.65,4.36-.39,8.86-2.5,10.09-4.73,4.28-7.79,6.35-11.69,10.3-19.51,1.13-2.24-1.58-3.85-6.09-3.56-15.88,1.01-31.75,2.23-47.6,3.58,2.65-6.38,3.93-9.58,6.38-15.99Z"/>
    <path d="M449.37,317.02c.56-.02.84-.04,1.4-.06,1.91-.08,3.72-.9,4.06-1.84,4.93-14.38,4.22-18.54-.25-32.85-1.42-4.29,5.13-7.9,14.59-7.95,6.36-.03,9.52-.04,15.78-.03,9.31.02,17.97,3.49,19.36,7.63,8.09,18.55-.15,31.33-7.93,48.55-9.23.29-13.9.47-23.39.88,4.93-11.65,16.14-28.4,9.81-41.22-.25-.83-1.98-1.49-3.86-1.47-.76,0-1.14.01-1.91.03-1.59.02-2.71.62-2.49,1.33,2.93,14.16-.82,19.92-6.05,33.42-1.86,4.58-10.89,8.62-20.25,9.12-6.3.34-9.47.52-15.88.91-9.53.58-15.99-2.71-14.32-7.46,7.02-20.93,6.63-30.32-.17-50.93,10.37-.26,15.48-.36,25.6-.51,5.38,15.92,8.52,24.54,3.04,40.89-.33.94.95,1.63,2.86,1.54Z"/>
    <path d="M499.81,269.48c-27.93-.26-55.85-.1-83.78.43-2.2-6.06-3.37-9.11-5.9-15.28,27.87-.26,55.73-.16,83.61.34,2.64,5.88,3.85,8.78,6.07,14.52Z"/>
    <path d="M430.72,233.68c9.89.11,14.78.18,24.47.37,1.87.04,3.01-.67,2.53-1.57-7.94-15-16.85-29.3-26.24-43.43,9.91.38,14.82.58,24.57,1.03,11.46,16.66,22.39,33.64,31.43,51.76,2.23,4.42-3.54,7.77-12.84,7.62-16.35-.28-32.7-.37-49.05-.35-9.72.02-19.29-3.61-21.38-8.23-8.29-18.49-18.17-36.12-28.58-53.47,10.29.22,15.4.34,25.52.63,9.04,14.33,17.62,28.82,25.28,43.94.46.92,2.39,1.68,4.3,1.7Z"/>
    <path d="M452.19,184.69c-26.66-1.2-53.32-2.12-79.99-2.78-4.31-6.83-6.58-10.29-11.35-17.3,26.17.78,52.32,1.79,78.47,3.05,5.44,6.93,8.01,10.33,12.87,17.03Z"/>
    <path d="M313.63,83.66c17.05.65,34.1,1.34,51.15,2.13,6.72,6.55,13.36,13.2,19.89,19.93-9.21-.46-13.84-.68-23.15-1.1,11.36,12.32,22.52,24.79,33.24,37.68,9.92.45,14.85.7,24.63,1.21,6.28,7.27,9.25,10.84,14.91,17.85-19.41-.95-38.82-1.78-58.24-2.49-10.07-.5-21.1-4.13-27.77-12.05-13.01-17.53-26.59-34.49-40.69-51.14-5.92-6.9-3.36-12.36,6.03-12.01ZM341.47,103.75c-4.2-.17-5.5,2.08-2.96,5,7.77,8.94,15.36,18.03,22.75,27.28,2.22,2.79,7.62,5.16,12.11,5.34-10.28-12.85-20.98-25.31-31.89-37.62Z"/>
    <path d="M217.32,1.54c17.85.02,35.7.05,53.55.07,12.28,10.23,24.43,20.63,36.45,31.17,9.2,8.07,10.53,14.6,3.5,15.71-8.52,1.35-12.86,2.01-21.71,3.34-1.97.3-1.92,2,.1,4.04,15.19.48,30.38,1,45.57,1.54,7.54,6.91,15,13.91,22.37,21-22.35-.97-44.7-1.83-67.06-2.6-8.53-9.43-17.21-18.72-26.03-27.88-7.31-7.59-7.87-14.12-1.11-15.34,8.29-1.5,12.35-2.26,20.3-3.81.81-.16.59-1-.53-2.01-1.05-.94-1.57-1.42-2.63-2.36-13.3-.24-26.61-.47-39.91-.67-7.54-7.48-15.2-14.85-22.88-22.2Z"/>
  </g>
  <g>
    <path d="M503.3,392.05c21.4-1.34,42.79-2.32,64.22-2.89-4.67,5.33-7.06,7.99-11.9,13.35-14.83.61-29.64,1.41-44.46,2.37-.98,1.24-.23,2.19,1.77,2.24,12.25.45,24.5,1.09,36.73,1.94-7.38,8.04-14.77,16.05-22.18,24.06-13.95,2.41-27.86,4.99-41.75,7.73-2.39.46-4.99,1.83-6.12,3.22,13.81-1.51,27.62-2.92,41.46-4.02-5.11,5.54-7.67,8.34-12.81,13.99-19.05,1.92-38.03,4.22-57,6.86,6.2-8.2,9.31-12.25,15.46-20.29,4.09-5.34,14.06-10.58,23.37-12.25,9.69-1.75,19.41-3.38,29.14-4.9.87-1,1.31-1.5,2.18-2.5-9.75-.26-14.76-.34-25.08-.4-8.12-.04-11.35-3.87-7.42-9.1,5.86-7.79,8.75-11.67,14.35-19.41Z"/>
    <path d="M541.73,332.52c16.66-.11,33.31-.11,49.96.24,10.83.22,16.4,5.05,12.49,10.61-7.55,10.7-15.63,21.03-24.04,31.08-6.73,6.9-17.1,9.92-26.5,10.35-15.56.45-31.12,1.21-46.66,2.14,4.05-5.67,6.03-8.51,9.9-14.18,13.14-.61,26.29-1.07,39.44-1.36,3.73-.08,7.98-1.75,9.51-3.75,5.34-6.97,7.92-10.46,12.83-17.49,1.41-2.01-.57-3.67-4.43-3.68-13.58-.03-27.17.11-40.74.42,3.44-5.73,5.09-8.6,8.24-14.38Z"/>
    <path d="M576.09,313.49c.48,0,.72.01,1.2.02,1.63.03,3.28-.62,3.7-1.47,5.58-12.08,5.76-17.13.82-29.73-1.25-3.93,4.36-6.85,12.57-6.41,5.52.3,8.26.46,13.7.79,8.08.49,15.58,4.11,16.68,7.94,5.74,19.13-.78,27.33-10.87,44.16-7.88-.29-11.87-.4-19.98-.59,5.74-10.05,18.61-25.15,12.14-37.31-.2-.76-1.67-1.45-3.28-1.53-.66-.03-.98-.05-1.64-.08-1.37-.07-2.34.41-2.17,1.06,6.32,9.81-3.28,21.96-7.6,30.24-2.28,4.15-10.6,7.35-18.61,7.27-5.38-.06-8.1-.07-13.58-.09-8.15-.02-13.07-3.43-10.95-7.72,8.87-18.82,8.89-26.74,1.62-46.03,9,.29,13.45.45,22.23.83,5.26,14.51,8.35,22.71,1.81,37.07-.41.85.58,1.56,2.21,1.6Z"/>
    <path d="M621,273.05c-24.31-1.65-48.62-2.9-72.97-3.81-2.18-5.55-3.38-8.37-6.03-14.08,24.52,1.08,48.99,2.49,73.47,4.28,2.48,5.53,3.58,8.25,5.52,13.61Z"/>
    <path d="M558.56,236.95c8.79.53,13.14.82,21.76,1.42,1.66.12,2.62-.49,2.12-1.35-8.53-14.69-18.28-28.39-28.55-41.9,9.02.71,13.49,1.07,22.36,1.84,12.21,15.91,23.93,32.2,33.18,50.06,2.2,4.2-2.76,7.02-10.96,6.45-14.41-.97-28.82-1.84-43.24-2.6-8.56-.43-17.28-4.17-19.55-8.48-9.32-17.91-20.7-34.53-32.59-50.8,9.35.57,13.99.88,23.19,1.51,10.15,13.6,19.79,27.39,28.29,42.1.5.87,2.27,1.66,3.97,1.76Z"/>
    <path d="M571.99,191.66c-24.3-2.04-48.61-3.84-72.94-5.39-5.12-6.63-7.84-10-13.6-16.88,24.06,1.57,48.09,3.36,72.12,5.37,6.15,6.91,9.03,10.29,14.42,16.91Z"/>
    <path d="M421.93,88.21c16.25.91,32.49,1.88,48.73,2.93,7.95,6.79,15.82,13.69,23.58,20.69-8.71-.63-13.08-.94-21.88-1.53,13.47,12.51,26.65,25.24,39.53,38.36,9.22.7,13.8,1.07,22.9,1.82,7.24,7.36,10.65,10.95,17.08,17.98-17.89-1.49-35.79-2.86-53.7-4.13-10.22-.94-20.71-5.12-28-12.5-16.13-17.91-33.17-34.88-50.57-51.54-7.46-7.06-6.61-12.57,2.32-12.06ZM453.44,109.05c-3.96-.25-4.58,1.99-1.48,4.96,9.43,9.01,18.68,18.21,27.71,27.62,2.68,2.8,8.18,5.27,12.34,5.56-12.56-13.04-25.43-25.7-38.58-38.14Z"/>
    <path d="M304.12,1.63c17.72.03,35.44.06,53.15.09,14.87,11.03,29.65,22.17,44.34,33.46,11.15,8.62,14.19,15.5,7.75,16.61-7.8,1.35-11.77,2.01-19.85,3.31-1.8.29-1.24,2.07,1.29,4.21,14.66.65,29.32,1.33,43.97,2.03,8.99,7.3,17.92,14.66,26.81,22.08-21.36-1.28-42.72-2.47-64.08-3.57-10.96-9.8-22.01-19.46-33.17-29.03-9.35-7.96-11.96-14.82-5.79-16.07,7.58-1.53,11.29-2.32,18.57-3.92.74-.16.29-1.06-1.09-2.14-1.29-1.01-1.94-1.51-3.24-2.52-13.04-.31-26.07-.6-39.11-.88-9.78-7.97-19.63-15.86-29.55-23.67Z"/>
  </g>
  <g>
    <path d="M392.9,1009.11c4.3-.12,6.45-.19,10.75-.31.83-.02,1.16-1.43.75-3.15-5.85-25.06-10.73-50.14-14.51-75.6,4.14-.38,6.21-.57,10.34-.94,4.98,31.46,11.75,62.41,19.94,93.19,2.41,8.79,1.06,16.06-3.25,16.08-8.89.04-13.33.05-22.22.09-4.31.02-9.6-7-11.62-15.53-6.85-30.03-12.34-60.14-16.19-90.7,4.17-.41,6.26-.61,10.42-1.01,3.42,25.19,7.92,50.03,13.37,74.85.38,1.69,1.38,3.05,2.21,3.03Z"/>
    <path d="M384.69,820.03c4.77-.81,8.32,6.36,8.32,16.24.23,22,1.5,43.77,3.69,65.66,1.18,10.74-1.8,20.09-7.06,20.6-5.58.55-8.37.83-13.97,1.39-5.29.54-10.55-7.75-11.37-18.26-1.48-21.51-2.11-42.9-1.78-64.46.25-9.73,4.64-18.14,9.46-18.98,5.11-.9,7.65-1.34,12.7-2.19ZM383.63,850.27c-.05-3.57-1.46-6.22-3.2-5.95-2.09.33-3.14.49-5.24.83-1.75.28-3.19,3.36-3.18,6.9.05,13.05.53,26.11,1.4,39.13.25,3.72,1.98,6.58,3.82,6.36,2.2-.27,3.31-.4,5.5-.66,1.83-.22,3.03-3.46,2.74-7.21-1.03-13.11-1.66-26.25-1.84-39.41Z"/>
    <path d="M380.72,714.39c9.44-2.12,18.92-4.11,28.42-5.97-2.11,7.97-3.09,12.01-4.88,20.23-8.05,1.57-12.13,2.4-20.4,4.17-.41,1.82-.03,3.23.89,3.32,7.03.96,10.51,1.49,17.43,2.64-2.46,12.6-4.4,25.3-5.85,38.06-7.83,4.1-11.8,6.18-19.81,10.4-1.13.55-2.14,2.53-2.37,4.69,8.5-1.64,12.71-2.42,21.04-3.91-.82,8.98-1.13,13.53-1.57,22.8-9.98,1.67-19.95,3.43-29.9,5.29.68-10.3,1.69-20.65,3.02-30.89,1.02-8.05,5.13-15.4,9.42-17.48,5.45-2.65,8.16-3.96,13.53-6.54.24-1.55.36-2.33.62-3.87-4.85-.57-7.29-.83-12.2-1.31-3.86-.38-5.69-6.33-4.07-13.92,1.94-9.28,4.19-18.56,6.7-27.7Z"/>
    <path d="M417.28,630.85c2.51-.51,3.76-.75,6.24-1.23,3.58-.69,4.26,3.36,1.71,9.12-6.51,14.55-12.19,29.47-17.24,44.58,3.69-.75,5.53-1.12,9.17-1.82-2.52,7.63-3.71,11.5-5.94,19.38-9.48,1.85-18.95,3.84-28.37,5.96,6.6-21.89,14.28-43.13,23.18-64.2,2.53-5.8,7.65-11.04,11.27-11.77ZM413.07,647.44c-.27.06-.41.08-.69.14-.65.13-1.55,1.1-1.99,2.17-4.92,11.78-9.4,23.75-13.42,35.87,1.22-.26,1.82-.39,3.04-.65,4.02-12.11,8.5-24.07,13.43-35.85.45-1.07.28-1.82-.37-1.69Z"/>
    <path d="M447.82,564.04c8.65-1.43,12.87-2.06,21.12-3.16,4.62-.61,4.84,4.11.72,10.63-7.7,12.48-14.98,25.08-21.93,38-3.64,6.96-10.01,13.35-14.5,14.17-8.01,1.46-12.09,2.25-20.43,3.98,3.31-7,5.02-10.46,8.53-17.28,6.92-1.37,10.31-2.01,16.99-3.19,1.62-.29,3.99-2.52,5.33-4.99,4.65-8.6,7.06-12.81,12.03-21.11,1.42-2.38,1.27-4.09-.38-3.84-6.78,1.04-10.23,1.61-17.27,2.87,3.84-6.51,5.8-9.73,9.79-16.08Z"/>
    <path d="M496.26,509.68c-5.35,6.25-7.99,9.43-13.14,15.93,8.53-1.01,12.69-1.43,20.82-2.12-3.83,4.57-5.16,5.87-9.53,11.81-7.97.73-12.05,1.18-20.41,2.23-6.01,8.54-8.95,12.88-14.69,21.72-3.72.55-5.59.84-9.39,1.46,11.28-17.34,23.05-33.99,36.3-49.9,4.06-.49,6.07-.72,10.04-1.14Z"/>
    <path d="M508.74,496.45c.76-.07,1.14-.11,1.89-.18,9.13-9.97,18.54-19.68,28.16-29.19,2.87-.18,4.3-.26,7.13-.42-9.76,9.44-19.31,19.09-28.57,29.02.74-.06,1.11-.09,1.86-.15.73-.06,1.79-.61,2.38-1.24,8.99-9.51,18.25-18.76,27.7-27.81,4.01-.2,6-.29,9.93-.43-11.72,10.87-23.1,22.11-34.1,33.7-2.98,3.15-8.18,5.95-11.7,6.24-7.28.6-10.99.95-18.58,1.78-3.68.4-4.48-1.89-1.7-5.11,10.25-11.84,20.86-23.37,31.79-34.59,4.21-.34,6.3-.49,10.43-.77-9.18,9.17-18.18,18.53-26.92,28.12-.57.63-.43,1.09.31,1.02Z"/>
    <path d="M586.01,431.52c8.34-3.27,12.52-4.85,20.88-7.94-5.18,4.51-7.79,6.77-13.03,11.36-8.2,3.17-12.3,4.79-20.47,8.15-.14.06-.26.13-.35.21-4.25,3.89-6.38,5.85-10.64,9.81,4.59-.17,6.86-.24,11.34-.35-4.25,3.82-6.37,5.75-10.61,9.66-11.55.47-23.03,1.11-34.56,1.9,11-11.2,22.17-22.22,33.43-33.16,3.34-3.25,10.18-6,15.2-6.12,2.95-.07,4.41-.1,7.32-.14,4.96-.08,6.09,2.44,2.59,5.61-.44.4-.67.6-1.11,1ZM571.15,434.09c-1.09.03-2.6.64-3.36,1.37-7.61,7.2-11.46,10.85-19.12,18.28,1.52-.08,2.28-.12,3.8-.19,7.72-7.4,11.59-11.03,19.26-18.2.77-.72.51-1.27-.58-1.24Z"/>
    <path d="M611.87,396.33c4.71.06,7.05.1,11.66.21.89.02,2.07-.39,2.64-.91,8.45-7.95,16.77-15.97,24.99-24.17,5.08.26,7.59.41,12.56.72-10.12,9.93-20.62,19.44-31.17,28.9-2.93,2.6-8.81,4.63-13.15,4.54-8.96-.18-13.53-.22-22.86-.19-4.52.01-6-2.16-3.26-4.89,9.88-9.92,19.69-19.88,29.12-30.23,5.32.15,7.96.23,13.17.43-8.01,8.33-16.11,16.48-24.36,24.58-.55.54-.26.98.65.99Z"/>
    <path d="M668.19,330.28c7.45.56,11.13.87,18.36,1.52,6.83.61,9.96,4.21,6.97,7.94-6.49,8.12-13.55,15.99-20.82,23.42-3.52,3.64-11.65,6.23-18.17,5.87-6.91-.38-10.41-.55-17.52-.84-6.71-.27-9.49-3.51-6.2-7.31,6.85-7.82,13.46-16.03,19.55-24.45,2.82-3.88,10.8-6.68,17.83-6.15h0ZM676.61,343.32c1.09-1.34,0-2.59-2.44-2.78-2.93-.23-4.4-.34-7.36-.55-2.47-.18-5.33.79-6.39,2.15-4.59,5.86-7.01,8.76-12.05,14.55-1.17,1.34-.17,2.53,2.24,2.66,2.89.16,4.33.24,7.19.41,2.38.14,5.28-.8,6.48-2.13,5.17-5.69,7.65-8.55,12.34-14.32Z"/>
    <path d="M665.41,281.61c15.4,1.5,30.77,3.15,46.14,4.98.82,3.67,1.14,5.48,1.65,9.05-10.76-1.32-21.54-2.45-32.33-3.56.16.8,1.44,1.6,3.02,1.88,9.97,1.88,19.93,3.88,29.85,6.02.65,6.25.72,9.31-3.35,15.98-10.06-.1-20.14-.09-30.2.04-1.73,0-3.42.69-3.99,1.61,10.42.88,20.83,1.89,31.22,3.05-2.43,3.73-3.7,5.58-6.37,9.24-14.52-1.42-29.04-2.65-43.59-3.72,3.47-5.26,5.11-7.91,8.15-13.27,2.03-3.57,8.35-6.25,14.96-6.24,8.4.02,12.47.08,20.22.28-.04-.63-.06-.94-.1-1.57-7.86-1.49-11.87-2.22-20.03-3.64-6.43-1.11-11.6-4.3-12.24-7.61-.95-4.93-1.54-7.43-3.01-12.52Z"/>
    <path d="M657.31,239.34c4.24.45,6.35.68,10.55,1.15,6.06.67,12.51,4.01,14.28,7.35,5.3,9.98,7.39,14.76,10.65,24.02,6.12.7,9.15,1.07,15.16,1.81,1.27,3.82,1.82,5.69,2.76,9.4-15.45-1.84-30.9-3.51-46.38-5.04-3.7-11.71-8.73-22.98-14.67-33.73-1.84-3.35,1.53-5.62,7.65-4.97ZM668.7,250.04c-.46-.05-.69-.08-1.16-.13-1.1-.12-1.74.27-1.44.87,3.99,7.85,5.66,11.65,8.41,19.07,2.02.21,3.03.32,5.04.53-2.71-7.41-4.36-11.21-8.32-19.05-.3-.6-1.44-1.18-2.54-1.3Z"/>
    <path d="M613.01,192.26c11.6,1.19,23.19,2.43,34.79,3.71,7.7.87,17.34,5.67,21.22,10.54,6.61,8.6,13.15,17.18,18.94,26.36,2.85,4.48-1.21,7.25-8.84,6.35-11.52-1.32-23.04-2.58-34.58-3.79-2.58-4.25-3.96-6.41-6.9-10.8,9.56.97,19.12,2,28.66,3.1,2.75.31,4.11-.73,3.01-2.36-3.86-5.68-5.96-8.59-10.51-14.53-1.3-1.7-4.63-3.35-7.4-3.67-9.57-1.08-19.15-2.11-28.74-3.08-3.66-4.66-5.58-7.03-9.65-11.85Z"/>
    <path d="M578.01,141.5c8.39,7.88,12.34,11.71,19.77,19.19,10.99,1.11,21.97,2.24,32.95,3.41,5.37,5.37,7.93,8.01,12.81,13.18-11.05-1.22-22.1-2.41-33.16-3.56,6.77,7.21,9.92,10.72,15.81,17.58-6.1-.64-9.16-.96-15.32-1.58-15.17-17.31-31.13-33.65-47.74-49.59,5.98.54,8.95.81,14.89,1.36Z"/>
    <path d="M560.39,124.38c1.09.09,1.63.14,2.72.24-16.95-14.9-34.23-29.36-51.78-43.55,3.69.24,5.53.36,9.2.61,17.72,14.27,35.17,28.81,52.28,43.8,1.08.1,1.62.15,2.7.24,1.06.1,1.12-.53.13-1.4-16.62-14.48-33.55-28.54-50.73-42.34,5.24.35,7.85.53,13.07.9,20.74,16.59,41.09,33.54,60.94,51.18,4.78,4.3,4.15,7.27-1.2,6.75-11.04-1.08-16.6-1.6-27.79-2.62-5.42-.49-13.4-4.22-18-8.42-18.97-17.14-38.4-33.65-58.21-49.82,5.29.34,7.93.5,13.2.85,16.86,13.66,33.47,27.56,49.78,41.87.98.86,2.62,1.64,3.69,1.73Z"/>
    <path d="M438.18,17.47c-3.82-6.41-5.94-9.71-10.61-16.51,11.26,7.94,22.5,15.92,33.67,23.99,3.67,6.29,5.3,9.35,8.19,15.28.05.1.19.24.38.39,8.05,5.98,16.06,12.01,24.02,18.11,5.61.29,8.41.44,14,.74,7.47,5.67,14.9,11.4,22.27,17.19-14.62-.94-29.24-1.86-43.86-2.75-25.38-20.16-51.19-39.71-77.32-58.89-8.63-6.3-11.81-11.52-6.75-11.5,2.97.01,4.45.02,7.41.03,9.29,1.09,18.29,6.56,25.75,11.88,1.14.82,1.71,1.23,2.84,2.05ZM431.19,21.81c-1.17-.03-.57,1.09,1.33,2.48,15.01,11.06,29.91,22.25,44.71,33.59,1.82.09,2.73.14,4.55.23-14.89-11.39-29.89-22.61-44.99-33.72-1.91-1.4-4.43-2.56-5.6-2.59Z"/>
  </g>
  <g>
    <path d="M795.04,907.44c9.41,14.66,19.38,28.94,29.5,43.12,9.45.55,18.9,1.1,28.36,1.66,8.32,10.8,16.85,21.43,25.46,32-9.81-.36-19.62-.71-29.43-1.07,12.79,16.54,26.01,32.74,39.4,48.8-5.61-.04-8.41-.05-14.02-.09-32.69-40.28-63.66-81.66-91.4-125.52,4.86.43,7.28.65,12.14,1.09Z"/>
    <path d="M817.38,903.25c-12.9-1.26-25.8-2.51-38.7-3.73-5.68-9.48-11.21-18.98-16.61-28.62,12.43,1.48,24.85,2.99,37.27,4.51,5.89,9.38,11.89,18.63,18.04,27.84Z"/>
    <path d="M714.79,746.06c10.25,2.65,20.49,5.34,30.72,8.05,1.88,8.14,3.02,12.33,5.75,20.94-9.2-2.17-13.77-3.24-22.91-5.36.53,1.96,1.81,3.82,2.99,4.38,9.24,4.67,13.94,7,23.51,11.65,5.28,14.07,11.14,27.68,17.57,41.26-7.63,1.44-11.46,2.22-19.17,3.86-1.12.18-1.1,2.12.09,4.6,10.14,1.58,15.22,2.38,25.41,3.99,4.57,8.73,9.42,17.37,14.47,25.83-12.24-1.62-24.49-3.22-36.74-4.8-6.13-11.94-12.08-23.93-17.42-36.24-4.02-9.28-3.41-16.24.78-16.76,5.32-.66,7.98-.97,13.26-1.55-.7-1.71-1.05-2.56-1.72-4.25-6.65-2.9-9.94-4.35-16.45-7.26-5.13-2.29-11.02-10.33-13.36-18.63-2.81-9.7-5.13-19.76-6.77-29.73Z"/>
    <path d="M721.6,721.67c.68.2,1.01.31,1.69.51-.71-16.79-.48-33.47,3.2-49.95,2.19.86,3.29,1.29,5.49,2.15-3.49,16.41-3.52,32.98-2.61,49.64.68.21,1.02.31,1.7.52.67.2,1.13-.54,1.04-1.65-1.14-15.79-.72-31.92,2.51-47.47,3.15,1.24,4.72,1.86,7.89,3.11-2.84,19.74-2.69,38.12-.36,57.96.86,5.69-.98,9.69-4.44,8.74-7.15-1.96-10.71-2.94-17.81-4.86-3.44-.93-6.94-6.6-7.47-12.47-1.29-20.19-.94-39.92,3.67-59.73,3.11,1.21,4.67,1.81,7.8,3.03-3.58,15.69-4.39,32.03-3.6,48.06.06,1.13.66,2.21,1.33,2.41Z"/>
    <path d="M783.81,592.62c3.87,2.21.09,7.86-6.31,13.36-10.83,11.22-18.9,25.92-25.15,40.06-9.93-4.62-14.82-6.9-24.56-11.35,7.19-13.89,15.17-26.29,24.68-38.71,5.3-6.56,14.51-9.22,18.21-7.02,2.06,1.22,1.91,3.54.12,6.38,5.23-3.13,10.25-4.29,13-2.71ZM744.57,624.9c4.82-8.37,7.53-12.38,13.41-20.11.74-.97.81-2.04.14-2.4-.66-.36-1.81.13-2.55,1.09-5.93,7.76-8.66,11.78-13.53,20.17,1.01.5,1.51.75,2.52,1.24ZM767.57,604.19c-.75-.42-2.06.11-2.89,1.19-6.56,8.47-9.56,12.87-14.8,22.11,1.15.57,1.73.86,2.89,1.43,5.18-9.21,8.15-13.59,14.66-22.03.83-1.08.91-2.29.15-2.71Z"/>
    <path d="M838.31,546.54c6.2,4.11,9.3,6.18,15.55,10.35-6.57,3.38-9.82,5.1-16.18,8.61-2.77-1.8-4.14-2.7-6.89-4.49-10.47,5.77-20.76,11.88-30.74,18.45,2.83,1.74,4.25,2.61,7.11,4.36-5.8,3.82-8.62,5.78-14.08,9.79-6.65-3.94-9.93-5.89-16.47-9.73-2.97-1.74-1.36-6.1,3.78-9.63,13.62-9.24,27.77-17.75,42.29-25.52,5.77-3.11,12.82-4.07,15.64-2.21ZM824.9,557.18c-1.22-.8-4.2-.34-6.62,1.02-9.26,5.23-13.78,7.92-22.49,13.5-2.27,1.46-3.07,3.28-1.81,4.05,10.05-6.61,20.39-12.76,30.91-18.57Z"/>
    <path d="M862.54,536.64c.14.09.21.14.34.23.47.32,1.66.18,2.66-.3,12.5-5.98,25.11-11.73,37.74-17.45,5.15-2.32,11.2-2.89,13.51-1.28,1.55,1.08,2.33,1.62,3.88,2.71,2.31,1.61,0,4.79-5.14,7.1-18.89,8.54-37.67,17.26-56.24,26.48-2.46-1.65-3.68-2.47-6.13-4.12,15.29-7.68,30.78-14.91,46.34-22.03,1.03-.47,1.48-1.1,1.02-1.43-.19-.13-.28-.2-.47-.33-.39-.27-1.41-.17-2.28.22-12.63,5.78-25.24,11.61-37.72,17.73-4.97,2.44-10.84,3.18-13.18,1.61-1.58-1.05-2.36-1.58-3.94-2.63-2.34-1.56-.24-4.85,4.75-7.32,18.81-9.16,37.8-17.89,56.87-26.51,2.42,1.67,3.63,2.5,6.05,4.18-15.75,7.09-31.46,14.27-47.07,21.67-1.01.48-1.44,1.13-.98,1.45Z"/>
    <path d="M934.44,503.77c.47.33.71.49,1.18.82,16.13-7.31,32.17-14.75,48.09-22.51,1.74,1.17,2.6,1.75,4.33,2.91-15.95,7.76-32.03,15.21-48.18,22.53.47.33.71.49,1.18.82.46.32,1.67.21,2.7-.25,15.54-7.05,31.07-14.14,46.37-21.71,2.46,1.66,3.69,2.49,6.14,4.15-18.69,9.09-37.56,17.75-56.51,26.27-5.15,2.31-11.2,2.87-13.51,1.26-4.76-3.33-7.14-4.99-11.93-8.3-2.32-1.6-.04-4.78,5.09-7.09,18.78-8.49,37.49-17.1,56.01-26.14,2.51,1.66,3.75,2.5,6.24,4.16-15.24,7.56-30.7,14.62-46.18,21.66-1.02.46-1.48,1.1-1.01,1.42Z"/>
    <path d="M1045.26,441.51c5.31,3.16,7.93,4.73,13.13,7.86,2.52,1.51,1.23,5.08-3.01,7.89-17,11.23-34.86,20.9-52.96,30.2-8.29-5.57-12.46-8.38-20.94-13.97,17.71-9.14,35.18-18.63,51.78-29.7,4.11-2.75,9.42-3.8,12-2.27ZM1039.56,456.07c-1.49-.93-2.24-1.39-3.75-2.32-1.25-.77-4-.3-6.16,1.04-8.3,5.16-16.84,10.05-25.46,14.64,3.22,2.1,4.82,3.14,8,5.23,8.69-4.63,17.31-9.55,25.68-14.74,2.19-1.35,2.93-3.08,1.68-3.85h0Z"/>
    <path d="M1091.83,351.52c9.04,3.55,18.07,7.11,27.11,10.67-1.08,6.42-1.79,9.54-3.5,15.61-7.44-3.17-11.18-4.77-18.77-8-.33,1.32.03,2.71.87,3.3,6.41,4.8,9.53,7.21,15.63,12.01-3.54,10.48-5.8,15.45-11.06,24.97-7.22-1.5-10.83-2.29-18.12-3.93-1.02-.26-2.28.47-3.01,1.71,6.99,3.58,10.43,5.37,17.25,8.89-3.22,5.23-4.95,7.78-8.63,12.75-9.22-5.06-13.9-7.63-23.49-12.81,4.72-6.64,6.87-10.07,10.66-17.19,2.52-4.73,6.97-7.67,10.84-6.77,4.92,1.14,7.37,1.7,12.26,2.78.44-1,.66-1.51,1.09-2.52-4.03-3.12-6.08-4.68-10.24-7.8-3.27-2.46-4.35-7.99-2.89-13.26,2.18-7.86,3-11.93,4-20.4Z"/>
    <path d="M1102.37,333.03c.66.23.99.35,1.65.58-.35-17.83-3.62-34.74-8.04-51.94,2.6.69,3.9,1.03,6.49,1.72,4.22,17.34,7.29,34.37,7.43,52.29.66.23.98.35,1.64.58.64.23,1.17-.41,1.17-1.43-.23-17.32-3.15-33.83-7.15-50.62,3.7.98,5.54,1.46,9.22,2.43,4.4,20.07,7.55,40.33,5.89,60.95-.36,4.97-3.39,7.9-6.49,6.72-6.4-2.45-9.62-3.68-16.11-6.16-3.15-1.2-5.39-5.95-5.31-10.75.53-20.17-3.79-39.72-9.22-59,3.74.99,5.61,1.48,9.33,2.47,4.36,16.53,7.66,32.81,8.28,49.96.03,1,.56,2,1.21,2.22Z"/>
    <path d="M1043.76,183.48c8.59,1.24,12.87,1.85,21.42,3.08,4.14.59,11.09,7.26,15.09,14.66,13.09,25,24.92,50.52,32.53,77.78-10.55-2.67-21.11-5.34-31.66-8.02-9.15-26.6-22.32-51.28-36.63-75.4-4.38-7.18-4.91-12.7-.75-12.1ZM1071.81,210.35c-2.4-.41-3.61-.61-6.01-1.02-2-.34-2.03,2.25-.17,5.72,6.39,12.31,12.53,24.67,17.77,37.52,4.96,1.11,7.44,1.67,12.38,2.78-4.97-12.99-10.86-25.5-17.01-37.96-1.79-3.52-4.95-6.69-6.95-7.03h0Z"/>
    <path d="M1067.21,178.35c-12.31-1.64-24.62-3.3-36.94-4.97-5.96-8.93-12.22-17.63-18.5-26.33,12.77,1.4,25.54,2.79,38.3,4.18,5.84,8.96,11.65,17.93,17.13,27.12Z"/>
    <path d="M908.62,14.22c11.26.1,22.52.19,33.78.29,9.99,11.28,19.88,22.63,29.65,34.1-5.69-.17-8.54-.26-14.24-.43,17.65,20.5,34.81,41.31,51.37,62.71,5.29.4,7.94.6,13.23,1,7.12,9.59,14.07,19.31,20.82,29.17-9.73-.97-19.46-1.94-29.19-2.92-9.6-2.49-17.63-11.46-23.53-18.91-23.15-28.86-47.5-56.58-72.66-83.7-10.88-11.63-15.36-21.37-9.23-21.31ZM945.59,47.82c-2.55-.08-1,3.88,3.32,8.76,12.96,14.78,25.78,29.69,38.12,45,3.66,4.52,8.43,8.28,10.8,8.46-16.86-21.23-34.3-41.88-52.23-62.22Z"/>
  </g>
  <g>
    <path d="M738.9,1017.81c-30.38-.35-60.75-.67-91.13-.96-12.96-25.16-25.12-50.61-36.28-76.62,28.19,1.14,56.38,2.4,84.57,3.76,13.45,25.11,27.8,49.63,42.84,73.82Z"/>
    <path d="M576.67,654.08c19.47,3.99,38.78,8.84,57.9,14.22-3.15,13.84-4.61,27.71-5.57,41.85-14.76-3.35-29.55-6.5-44.4-9.44-.47,4.05.82,7.87,2.91,8.93,13.81,7.6,27.6,15.23,41.43,22.8,1.04,31.38,7.88,62.04,16.52,92.1-14.46,4.05-28.84,8.3-43.19,12.74-2.53.66-3.25,5.49-1.49,11.52,18.22,1.67,36.43,3.46,54.63,5.34,8.25,21.74,17.46,42.91,27.46,63.9-27.39-1.72-54.79-3.32-82.21-4.76-10.87-29.29-20.6-59.02-27.09-89.62-1.66-12.44-5.19-34.65,10.08-40.52,9.82-2.01,19.67-3.88,29.55-5.6-.6-3.84-.88-5.74-1.37-9.51-10.36-4.74-20.73-9.49-31.09-14.23-13.05-7.85-16.59-25.1-15.78-39.25,2.07-20.58,5.4-40.69,11.71-60.46Z"/>
    <path d="M692.28,520.44c11.87,4.55,23.52,9.69,34.93,15.3-10.48,7.19-20.64,14.85-30.34,23.06-6.01-2.68-9.03-3.97-15.16-6.44-18.8,17.81-33.36,38.01-46.18,60.45,6.88,2.2,10.28,3.34,17.07,5.71-5.82,11.43-10.61,23.38-14.3,35.66-14.02-4.1-28.06-7.91-42.23-11.44-11-4.12-7.59-19.64-3.36-27.32,17.72-32.28,39.77-59.67,67.64-83.74,8.34-6.91,20.68-13.77,31.93-11.24ZM668.42,547.27c-2.8-1.01-8.83,1.24-12.9,5.51-12.91,14.09-24.38,28.61-34.94,44.56-3.18,5.06-3.03,10.02.09,10.93,13.45-22.63,28.64-42.83,47.75-61Z"/>
    <path d="M741.4,493.89c5.66,2.5,8.44,3.79,13.91,6.45,1.06.51,3.54,0,5.56-1.14,18.32-10.18,36.88-19.82,55.61-29.23,2.04-1.02,2.81-2.3,1.72-2.86-4.96-2.55-7.49-3.8-12.62-6.25,11.24-5.75,22.51-11.45,33.75-17.19,10.17,5.02,20.12,10.19,30.07,15.64-38.45,18.56-76.9,36.92-113.85,58.37-7.53,4.48-18.04,9.09-26.95,6.35-8.99-4.33-18.25-8.34-27.56-11.93-5.51-2.14-2.36-9.21,7.42-15.54,35.74-22.62,73.04-42.27,110.36-62.12,6.77,2.86,10.07,4.33,16.53,7.35-31.01,15.94-62.05,31.76-92.31,49.1-2.01,1.17-2.73,2.52-1.64,3Z"/>
    <path d="M882.14,453.09c-16.79-9.14-33.78-17.47-51.3-25.13,10.19-5.59,20.29-11.26,30.34-17.09,18.21,7.79,36.08,16.17,53.48,25.64-10.74,5.73-21.6,11.22-32.53,16.58Z"/>
    <path d="M939.37,337.15c21.45,7.45,42.59,15.49,63.57,24.17-4.56,11.1-10.71,22.81-20.46,30.22-8.22,7.01-19.83,10.07-30.39,7.64-9.53-2.55-19.09-5-28.67-7.32-2.61-.64-6.21.2-8.62,1.94,13.56,5.98,26.91,12.26,40.16,18.89-9.44,6.1-18.91,11.84-28.65,17.44-17.73-9.51-35.91-17.93-54.43-25.77,11.71-7.52,23.22-15.18,33.97-24.04,8.38-6.73,19.65-10.02,30.29-7.94,9.96,2.22,19.89,4.55,29.8,6.97,1.19.29,2.71-.15,3.59-1.06.82-.85,1.23-1.27,2.03-2.13-14.43-6.29-29.08-12.07-43.85-17.49,6.53-8.02,8.28-12.49,11.65-21.53Z"/>
    <path d="M967.44,311.48c1.56.5,2.33.75,3.88,1.25-1.32-33.48-18.23-62.81-36.25-90.04,6.17,1.23,9.23,1.85,15.32,3.1,17.63,27.83,33.88,57.67,34.64,91.44,1.51.51,2.26.76,3.77,1.27,1.48.5,2.67-.41,2.61-2.05-1.4-32.81-16.82-61.87-33.78-89.17,8.64,1.79,12.92,2.69,21.41,4.51,18.89,32.74,35.46,68.24,30.13,107.02-1.2,7.87-8.67,11.59-15.69,8.85-12.45-4.86-25-9.49-37.64-13.86-7.59-2.62-12.38-10.25-11.74-17.55,2.63-37.35-18-70.17-38.78-99.33,9.04,1.7,13.51,2.57,22.37,4.31,17.71,26.17,34.35,54.26,36.83,86.51.1,1.59,1.39,3.26,2.92,3.75Z"/>
    <path d="M696.48,11.55c18.09.14,36.17.28,54.26.42,21.24,2.76,42.11,19.83,57.6,33.49,58.12,51.82,117.27,106.41,161.06,171.39-24.96-4.82-49.96-9.45-75-13.83-50.07-61.33-113.54-111.87-175.65-160.28-5-4.15-35.11-26.02-22.27-31.19ZM802.96,71.27c-5.96-.3-8.95-.46-14.93-.76-4.98-.25-1.1,6.16,8.07,14.04,29.8,25.82,59.1,52.31,86.13,81.05,9.91,1.34,19.81,2.71,29.7,4.11-26-29.45-54.43-56.63-83.39-83.13-7.08-6.39-15.96-13.45-25.59-15.31,0,0,0,0,0,0Z"/>
  </g>
  <g>
    <path d="M740.18,947.64c2.16.11,3.24.17,5.4.28-31.8-54.01-61.31-111.28-74.51-173.05,7.42,1.42,11.12,2.14,18.53,3.6,15.12,61.24,46.25,117.58,79.37,170.68,10.91.59,16.36.88,27.27,1.49,16.03,23.42,32.78,46.25,50.09,68.74-29.82-.39-59.64-.76-89.45-1.11-48.72-75.78-95.64-158.22-111.37-248.15,7.44,1.34,11.15,2.03,18.57,3.42,12.25,59.32,38.96,114.35,68.52,166.76,2.26,3.93,5.69,7.24,7.58,7.34Z"/>
    <path d="M670.66,607.29c11.59,4.53,23.07,9.35,34.45,14.38,9.82,5.75,7.4,20.52,4.24,29.31-8.7,28.62-10.5,55.96-7.77,85.7.28,8.65,2.55,30.38-12.51,28.64-15.22-3.23-30.45-6.35-45.7-9.36-1.66-15.23-2.49-30.1-2.32-45.41,11.65,2.84,23.27,5.82,34.86,8.91,3.38.9,5.9-3.32,5.95-9.24.23-16.13,1.96-32.41,6.13-48.03,1.32-5.11.22-10.02-2.74-11.12-10.12-3.72-20.25-7.33-30.45-10.85,4.32-11.41,9.66-22.43,15.88-32.92Z"/>
    <path d="M795.96,519.68c-15.61,8.54-30.84,17.48-45.79,27.15,9.9,5.54,19.69,11.2,29.44,17-9.93,6.46-19.57,13.37-28.77,20.84-10.01-5.49-20.05-10.84-30.2-16.06-12.91,9.4-22.83,25.11-31.13,38.43-5.94-2.54-8.92-3.78-14.9-6.18,27.52-40.68,65.62-65.29,107.96-88.91,5.41,3.03,8.08,4.58,13.38,7.73Z"/>
    <path d="M918.93,444.62c10.96,6.25,21.74,12.8,32.38,19.57,7.38,9.03-4.58,16.88-12.63,20.13-27.02,12.47-54.21,24.55-81.15,37.19-10.35,5.14-26.48,9.96-37.64,4.82-9.92-6.31-19.98-12.42-30.22-18.21,11.35-6.05,22.83-11.86,34.38-17.51,8.48,4.91,16.86,10.08,25.1,15.4,2.39,1.54,8.48.83,13.63-1.57,14.9-6.92,29.86-13.71,44.79-20.57,5.08-2.34,7.2-5.53,4.74-7.11-8.53-5.51-17.2-10.86-25.98-15.95,10.94-5.26,21.83-10.62,32.61-16.19Z"/>
    <path d="M1045.18,394.34c9.44-3.91,18.9-8.61,27.67-13.86-4.27,11.22-10.08,21.81-17.02,31.59-11.35,4.27-23.55,6.49-35.4,8.88-.25.05-.51.17-.72.32-9.18,6.66-18.37,12.8-27.98,18.82,6.11,3.64,9.11,5.46,15.03,9.11-10.18,6.07-20.58,11.75-31.13,17.15-14.96-9.58-30.07-18.82-45.48-27.66,29.8-16.52,62.68-33.86,80.32-64.09,4.15-7.97,12.57-12.29,19.95-9.08,4.32,1.88,6.46,2.83,10.7,4.72,7.23,3.22,10.21,13.1,5.57,21.46-.59,1.06-.89,1.59-1.5,2.63ZM1024.04,391.46c-1.56-.77-3.74.03-4.9,1.76-11.99,15.1-29.79,25.93-45.83,36.2,2.06,1.16,3.09,1.75,5.13,2.91,16.19-10.29,34.2-21.14,46.34-36.31,1.18-1.74.83-3.79-.73-4.56Z"/>
    <path d="M1042.7,331.17c1.37.5,2.05.76,3.41,1.26.44-35.59-13.5-68-29.81-98.87,5.74,1.22,8.59,1.84,14.28,3.06,15.83,31.51,28.81,64.48,27.64,100.33,1.34.51,2.01.76,3.34,1.26,1.31.5,2.45-.55,2.5-2.36.67-34.85-11.7-66.94-26.71-97.78,8.09,1.75,12.11,2.62,20.11,4.37,16.26,36.48,29.72,76.84,21.33,117.23-1.69,8.66-8.85,13.03-14.98,10.32-10.79-4.77-21.63-9.44-32.52-13.98-6.49-2.7-10.23-10.99-9.4-19.04,4.54-39.09-14.08-76.62-33.16-109.23,8.34,1.73,12.48,2.61,20.7,4.35,16.1,29.63,30.02,60.71,30.82,95.01.02,1.76,1.09,3.56,2.44,4.06Z"/>
    <path d="M972.16,173.38c.5.07.76.11,1.26.18,1.71.24,1.35-1.85-.88-4.7-33.69-42.54-71.01-81.66-109.83-119.53-4.88-5.11-30.77-28.4-17.18-33.6,6.91.07,10.37.1,17.27.17,19.47,1.97,39.97,21.98,52.44,35.18,50.2,53.88,100.34,110.94,134.8,176.57-8.19-1.63-12.3-2.44-20.57-4.08-28.99-50.7-67.23-95.52-106.55-138.41-3.22-3.48-7.46-6.42-9.38-6.52-.78-.04-1.17-.06-1.95-.11-1.62-.09-.65,2.24,2.11,5.16,33.74,36.12,66.39,73.48,93.89,114.66,9.05,13.57,8.51,22.57.48,21.01-5.39-1.05-8.1-1.58-13.54-2.63-12.84-4.03-23.09-15.44-31.08-25.71-49.38-65.56-110.88-121.89-172.3-175.85,10.72.11,16.08.16,26.8.27,52.06,47.67,102.97,97.11,147.07,152.37,2.26,2.84,5.41,5.31,7.13,5.55Z"/>
  </g>
  <g>
    <path d="M459.75,970.55c8.38-.41,12.56-.61,20.91-1,1.61-.07,2.06-3.05,1.04-6.61-13.45-48.78-22.71-97.82-25.31-148.4,7.28-.93,10.89-1.37,18.08-2.21,4.56,63.81,20.04,125.17,41.07,185.45,2.42,8.28,10.73,31.1-2.7,34.85-15.08.1-30.15.2-45.23.31-14.36-2.81-22.04-20.59-25.71-33.02-15.76-59.04-25.8-118.53-26.33-179.73,7.49-1.12,11.21-1.65,18.6-2.68,1.36,49.87,9.09,98.41,20.98,146.82.9,3.51,2.97,6.31,4.59,6.23Z"/>
    <path d="M469.69,633.07c8.94-1.17,13.31-1.67,21.88-2.5,11.02,3.17,6.97,17.1,3.58,25.35-12.03,35.22-18.61,70.57-21.03,107.69-.24,11.59-3.55,33-16.78,37.12-9.72,1.27-14.62,1.95-24.52,3.39-14.51-.38-15.72-21.81-14.81-32.21,4.31-37.52,12.36-73.44,24.93-109.05,4.76-12.03,13.48-26.05,26.75-29.78h0ZM472.81,677.38c1.72-5.7.87-9.91-2.09-9.52-3.56.47-5.35.71-8.96,1.23-3,.43-7.03,5.36-8.81,11.1-6.35,21.66-11.1,43.28-14.54,65.58-.9,6.45,1.12,11.38,4.3,10.89,3.82-.58,5.72-.87,9.5-1.42,3.15-.46,6.16-6.16,6.95-12.6,3.07-22.2,7.5-43.7,13.65-65.26Z"/>
    <path d="M557.99,488.85c19.19-.22,38.19.27,57.32,1.67-8.26,6.72-16.36,13.74-24.14,21-12.85-.98-25.75-1.4-38.63-1.3-1.95,1.98-2.18,3.67-.6,3.98,9.38,2.09,18.89,4.86,27.9,8.21-14.89,14.56-27.57,31.07-39.77,47.88-13.3,3.15-26.42,6.89-39.52,10.8-2.26.64-5.36,3.41-7.26,6.56,12.15-1.1,24.34-1.81,36.54-2.07-6.65,10.46-12.79,21.26-18.35,32.34-17.33,1.04-34.54,3.09-51.73,5.44,7.96-15.92,16.53-31.3,25.85-46.47,6.89-10.45,16.67-20.19,28.83-24.08,9.08-2.23,18.27-4.24,27.46-5.97,1.64-2.09,2.46-3.13,4.12-5.19-7.42-2.25-11.25-3.3-19.25-5.19-6.29-1.49-5.72-9.18,1.89-17.61,9.52-10.3,19.27-20.25,29.35-30Z"/>
    <path d="M673.13,406.71c6.18.48,9.23.75,15.23,1.33,8.65.84,9.33,6,1.62,11.46-19.86,14.05-39.65,28.14-59.09,42.77,7.82.53,11.64.85,19.12,1.62-8.54,6.15-16.98,12.49-25.23,19.01-19.41-1.73-38.81-2.14-58.29-2.01,25.02-22.6,51.16-43.79,77.42-64.93,8.22-6.21,18.9-9.68,29.22-9.26ZM659.38,424.21c-.65-.05-.97-.07-1.62-.11-1.54-.11-3.91.65-5.27,1.69-15.24,11.63-30.38,23.35-45.32,35.36,2.67.08,3.99.12,6.62.23,15.12-11.93,30.45-23.56,45.87-35.1,1.38-1.03,1.26-1.96-.28-2.07Z"/>
    <path d="M731.97,333.72c18.52,2.51,36.94,5.38,55.33,8.67,11.78,2.18,15.83,9.78,8.6,16.57-14.7,13.75-30.82,25.72-47.14,37.44-10.04,7.06-24.21,10.29-36.3,9.34-16.68-2.11-33.42-3.52-50.19-4.7,8.53-7.02,12.7-10.5,20.71-17.47,14.38,1.28,28.71,2.79,43.04,4.56,4.02.52,9.8-.98,12.9-3.39,8.68-6.89,17.09-13.87,25.43-21.17,2.71-2.45,1.46-5.02-2.74-5.7-15.01-2.31-30.03-4.35-45.12-6.15,6.66-7.11,9.78-10.69,15.48-18Z"/>
    <path d="M762.59,261.98c3.81,8.62,6.84,18.57,8.22,27.92,18.89,3.19,37.7,6.67,56.48,10.47.13,7.51-.25,11.11-1.75,18.12-17.81-3.78-35.66-7.2-53.6-10.31,1.65,9.07-6.82,19.08-12.04,25.33-9.78-1.53-14.77-2.26-25-3.62,16.9-24.54,10.02-45.94-.67-72.17,9.46,1.34,18.92,2.76,28.36,4.26Z"/>
    <path d="M751.07,236c2.14.32,3.2.49,5.33.81-17.16-27.17-39.14-50.59-61.87-73.13,7.74.96,11.59,1.44,19.26,2.42,22.7,22.66,44.68,46.22,61.5,73.69,2.09.34,3.13.51,5.22.85,2.04.34,3.04-.49,2.2-1.87-16.5-26.57-37.78-49.47-59.79-71.5,10.89,1.42,16.3,2.15,27.04,3.62,25.28,25.71,50.14,52.79,66.02,85.54,3.12,6.58-2.89,10.16-12.72,8.39-17.34-3.06-34.69-5.94-52.09-8.63-9.49-1.56-19.6-6.12-25.17-14.29-18.35-31.1-43.12-57.44-68.7-82.66,9.33,1.06,18.66,2.16,27.98,3.29,22.02,21.82,43.42,44.37,60.43,70.42.89,1.36,3.28,2.71,5.38,3.03Z"/>
    <path d="M562.39,38.73c-8.3-12.62-17.07-24.71-26.31-36.66,25.29,17.54,50.36,35.34,75.16,53.56,5.8,10.33,10.9,20.32,15.66,31.15.08.2.34.48.72.78,15,11.8,29.82,23.78,44.44,36.04,9.84,1.02,19.68,2.07,29.51,3.15,12.41,10.69,24.67,21.52,36.59,32.76-30.75-3.96-61.52-7.65-92.33-11.07-45.45-42.12-94.95-79.64-145.02-116.03-6.04-4.88-27.7-17.61-16.09-24.73,6.12.05,9.18.08,15.3.13,19.49,1.42,40.87,15.57,56.16,26.46,2.5,1.79,3.74,2.68,6.2,4.46ZM547.96,47.4c-2.48-.11-1.2,2.2,2.77,5.13,29.27,21.76,58.15,44,86.05,67.5,3.89.38,5.83.57,9.71.96-28.2-23.6-57.22-46.08-86.73-68-4-2.95-9.32-5.47-11.8-5.59Z"/>
  </g>
  <g>
    <path d="M543.04,949.02c.51-.02.76-.04,1.27-.06,1.73-.08,1.97-3.42.6-7.4-14.57-43.67-25.74-87.69-31.29-133.44-.08-9.27-1.51-26.07,10.18-29.81,4.58-.42,6.86-.62,11.4-1.01,12.26,3.42,14.78,19.53,17.28,29.83,11.99,74.79,41.24,145.52,74.58,213.06-10.08-.08-15.15-.15-25.11-.04-27.25-58.33-50.2-118.12-63.69-181.2-.7-3.44-2.41-6.1-3.87-5.98-.6.05-.89.07-1.49.13-1.24.1-1.83,2.52-1.27,5.42,9.99,49.1,25.68,96.12,44.63,142.45,3.06,8.62,14.58,34.71.06,39.46-6.43.07-9.64.11-16.08.19-15.99-1.83-27.55-24.89-32.05-38.13-22.79-65.03-38.99-131.29-40.85-200.4,7.28-.84,10.89-1.24,18.08-1.98,2.02,55.42,14.98,109.28,32.02,161.83,1.33,3.98,3.86,7.17,5.59,7.09Z"/>
    <path d="M511.63,715.12c6.59-.61,9.86-.88,16.35-1.38,1.25-.1,2.51-2.34,2.86-4.99,5.82-37.83,17.1-72.13,35.75-105.58,6.17.3,9.5,1.06,15.98,2.46-22.5,41.33-33.02,83.95-35.2,130.86,0,8.23-2.18,23.79-13.05,24.54-11.53,1.01-23.03,2.11-34.53,3.3-10.78-.98-11.7-17.24-10.81-25.05,5.43-48.72,18.86-93.48,42.32-136.55,6.61-.15,9.86-.17,16.25-.1-18.83,34.25-30.82,69.35-37.53,107.84-.41,2.68.33,4.77,1.6,4.66Z"/>
    <path d="M588.9,595.18c-16.89-3.4-33.72-3.6-50.93-3.71,7.03-11.35,14.69-22.31,22.9-32.85,16.62,1.11,34.05,1.92,50.19,6.44-8.02,9.55-15.45,19.6-22.16,30.11Z"/>
    <path d="M613.31,522.7c1.21.19,1.81.28,3.01.47,25.63-22.65,53.03-42.44,81.7-61.03,4.89.88,7.3,1.34,12.05,2.31-29.18,18.37-57.06,37.99-83.15,60.59,1.17.22,1.75.34,2.91.57,1.14.23,3.38-.76,5.02-2.19,25.47-21.49,52.56-40.24,80.85-57.79,6.7,1.45,9.53,2.54,15.32,4.63-34.79,20.85-67.66,43.43-97.63,70.87-7.9,7.48-18.26,12.83-23.74,11.82-9.65-1.83-19.5-3.24-29.27-4.2-5.87-.61-4.44-8.88,2.96-16.52,27.82-27.81,58.4-51.53,90.75-73.81,7.38.98,10.98,1.52,18.06,2.71-27.33,17.97-53.52,37.03-78.11,58.63-1.59,1.44-1.91,2.76-.72,2.94Z"/>
    <path d="M779.69,388.87c21.86,4.44,45.24,8.16,65.88,16.88-12.52,7.48-25.16,14.69-37.9,21.77-10.47,5.6-22.7,8.68-34.6,7.63-10.46-.97-20.97-1.72-31.46-2.26-2.85-.15-6.99,1-9.83,2.73,14.01,2.73,28.78,4.73,41.96,10.48-10.42,5.71-20.8,11.49-31.11,17.41-17.84-7.48-38.81-9.47-57.81-12.29,12.83-8.45,25.73-16.78,38.67-25.07,10.75-6.64,23.66-10.51,36.34-10.07,10.98.76,21.91,1.64,32.86,2.65,1.32.13,3.2-.31,4.48-1.05,1.19-.69,1.79-1.04,2.97-1.74-15.15-3.79-30.46-6.96-45.83-9.71,8.57-5.62,17.07-11.39,25.39-17.36Z"/>
    <path d="M870.45,320.51c-2.64,10.87-7.54,18.22-14.28,26.94,15.8,4.31,31.62,8.68,47.05,14.21-6.63,7.17-10.44,10.61-18.8,17.36-14.88-5.77-30.55-9.66-46-13.55-9.85,8.73-20.35,16.7-31.16,24.19-8.65-1.97-13.08-2.92-22.15-4.71,23-17.44,55.89-39.52,60.31-70.48,10.23,2.35,15.23,3.56,25.03,6.05Z"/>
    <path d="M922.77,330.06c-25.17-8.09-50.97-14.29-76.7-20.27.89-8.15.82-12.39-.54-21.29,27.26,5.88,54.63,11.84,81.39,19.77-.38,9.16-1.26,13.49-4.14,21.79Z"/>
    <path d="M866.66,262.79c.61.13.92.19,1.53.32,2.08.43,3.26-.44,2.59-1.97-10.51-23.8-26.6-44.1-43.34-63.77-8.54-9.68-7.74-16.7,3.25-15,7.39,1.15,11.06,1.72,18.39,2.89,12.01,2.72,23.98,11.61,31.66,21.1,21.54,27.42,43.41,57.89,46.1,93.86-7.94-2.23-11.64-3.28-21.62-5.72-2.61-27.67-17.71-51.43-33.34-73.56-1.38-1.85-4.29-3.69-6.45-4.08-.88-.16-1.32-.24-2.19-.4-1.83-.33-2.32.68-1.14,2.24,13.41,18.67,26.74,38.35,32.36,61.01,1.86,7.25-5.44,10.88-15.31,8.63-6.64-1.52-9.99-2.26-16.75-3.74-9.08-2.09-18.34-7.7-22.25-16.48-13.22-36.71-41.76-67.1-68.37-94.5,9.75,1.38,19.5,2.8,29.24,4.25,23.34,24.57,46.26,50.37,60.65,81.41.69,1.52,2.91,3.09,4.99,3.52Z"/>
    <path d="M585.81,4.49c32.29,22.57,64.22,45.59,95.6,69.43,20.62,1.47,41.23,3.14,61.88,4.2,18.69,14.93,37.19,30.08,55.2,45.82-20.85-1.86-41.65-4.31-62.47-6.53,20.53,17.34,40.49,35.11,59.71,53.89-10.22-1.48-20.44-2.92-30.67-4.33-62.58-61.2-134.77-112.7-206.38-162.61,10.85.05,16.28.08,27.13.13Z"/>
  </g>
  <g>
    <path d="M802.47,824.26c16.44,3.03,32.87,6.06,49.31,9.05,9.5,15.13,20,29.55,30.73,43.82-9.26-1.24-13.88-1.86-23.08-3.09,26.95,36.82,56.6,71.23,87.63,104.65,10.47.46,15.72.68,26.21,1.14,20.04,20.22,40.49,40,61.27,59.47-21.3-.05-42.61-.11-63.91-.16-22.05-1.8-44.4-25.42-57.98-40.83-40.36-46.42-79.24-94.63-110.38-147.84-3.62-7.77-13.5-23.62.19-26.21ZM839.75,871.39c-4.09-.55-3.48,4.91,1.78,12.43,19.06,26.81,39.46,52.47,60.73,77.55,6.19,6.19,13.27,14.3,22.36,16.33-30.2-33.98-58.95-68.94-84.87-106.32Z"/>
    <path d="M757.11,682.09c17.2,6.89,34.42,13.72,51.69,20.43-1.03,13.66.61,26.71,2.95,40.13,2.41,11.47.13,20.42-7.27,20.42-8.97,0-13.43.05-22.37.27-1.99.05-2.67,2.69-1.46,6.35,14.4,3.69,28.81,7.37,43.23,11.02,5.49,13.09,12.09,25.52,19.01,37.91-21.29-4.28-42.56-8.6-63.84-12.91-7.51-17.58-13.79-35.06-18.61-53.55-3.13-13.27,1.28-22.07,8.6-21.81,8.98.32,13.47.54,22.52,1.09.92.06,1.44-.95,1.26-2.38-.17-1.34-.25-2-.38-3.32-12.47-4.2-24.92-8.45-37.38-12.7-.43-10.12.26-20.97,2.07-30.94Z"/>
    <path d="M810.03,692.35c-16.93-6.92-33.79-13.98-50.63-21.1,2.18-9.06,5.59-18.44,9.7-26.8,15.96,7.71,31.95,15.32,48.03,22.76-3.9,9.56-5.37,14.56-7.11,25.14Z"/>
    <path d="M897.27,548.5c13.01,8.93,26.09,17.78,39.42,26.23-10.18,4.94-20.27,9.97-30.33,15.15-9.83-6.14-19.57-12.37-29.28-18.7-2.69,1.39-3.96,3.23-3.02,4.34,5.8,7.52,11.89,14.91,18.2,22-15.86,9.14-30.98,18.8-45.61,29.83-12.14-3.55-24.27-7.13-36.42-10.64-1.98-.63-5.08.27-7.25,2.15,10.83,6.05,21.72,11.99,32.7,17.76-8.34,7.56-9.87,12.51-14.51,21.73-15.8-7.62-31.49-15.43-47.14-23.34,7.02-12.35,14.61-21.39,25.59-30.35,7.96-6.06,18.94-10.02,28.92-7.33,9.4,3.22,14.13,4.87,23.73,8.16,1.89-1.23,2.84-1.84,4.77-3.06-5.66-5.8-8.37-8.71-13.63-14.52-4.14-4.57.56-12.47,11.51-18.35,13.91-7.42,28.05-14.41,42.34-21.08Z"/>
    <path d="M1046.92,488.48c9.74,6.22,19.5,12.36,29.36,18.39-10.26,5.84-20.69,11.4-31.22,16.74-5.14-3.23-7.68-4.86-12.76-8.17-21.46,10.6-43.18,20.61-64.97,30.52,5.11,3.42,7.68,5.12,12.89,8.49-10.7,4.91-21.4,9.83-32.06,14.83-9.99-6.4-19.85-12.99-29.63-19.69-5.27-3.61-.25-10.78,11.29-15.97,29.54-13.25,59.06-26.45,87.98-41.01,8.29-4.26,20.02-8.29,29.12-4.13ZM1021.44,508.3c-2.26-1.5-7.98-.79-12.84,1.56-15.66,7.48-31.42,14.73-47.23,21.88-4.97,2.24-7.18,5.31-4.93,6.85,21.8-9.83,43.52-19.77,64.99-30.29Z"/>
    <path d="M1139.19,402.6c-6.14,13.12-13.04,24.96-21.32,36.85,9.62,5.05,19.26,10.02,28.96,14.9-5.83,9.19-15.55,15.69-23.93,22.25-9.36-5.08-18.59-10.39-27.82-15.71-12.52,9.41-25.84,17.78-39.39,25.63-4.87-3.09-7.31-4.66-12.21-7.8,37.35-22.13,63.31-42.3,81.26-82.59,5.81,2.62,8.69,3.91,14.45,6.47Z"/>
    <path d="M1135.66,249.39c10.49,2.08,15.73,3.11,26.19,5.12,13.98,4.63,22.99,22.47,24.83,36.22,4.37,33.2,3.76,64.54-4.83,97.03-2.55,9-11.01,20.71-21.88,17.46-7.85-3.29-11.77-4.97-19.68-8.4-9.35-5.25-9.4-18.63-7.43-27.74,6.12-31.09,2.43-61.6-4.98-92.08-1.27-7.02-6.95-29.27,7.77-27.6h0ZM1171.61,307.69c-.63-5.81-4.05-11.31-7.33-12.12-3.94-.97-5.92-1.46-9.87-2.45-3.29-.82-5.02,3.27-4.16,8.96,2.33,19.13,2.86,37.21.97,56.42-.63,4.81.96,9.45,3.8,10.5,3.41,1.26,5.11,1.89,8.51,3.13,2.83,1.03,5.99-1.99,6.82-6.9,2.64-19.49,2.85-37.96,1.26-57.54Z"/>
    <path d="M1054.34,57.78c-4.68-19.39-9.98-38.61-15.48-57.78,20.2,27.13,39.62,54.73,58.01,83.12,2.71,16.5,5.15,33.01,6.95,49.64.03.32.21.76.48,1.22,10.58,18.21,20.79,36.62,29.79,55.68,8.97,1.16,13.46,1.73,22.42,2.85,6.94,16.38,13.39,32.86,18.73,49.84-21.19-3.65-42.36-7.45-63.51-11.32-28.66-66.43-71.79-125.6-116.71-181.82-3.63-4.84-29.96-36.96-13.35-40,6.53.03,9.8.05,16.33.08,21.01,3.13,39.62,25.41,51.3,41.48,2.04,2.81,3.05,4.21,5.04,7ZM1038.9,72.32c-2.32-.1-1.37,3.63,2,8.27,24.35,33.96,47,68.73,66.68,105.61,2.91.39,4.36.58,7.27.96-19.29-37.06-41.59-72.02-65.63-106.17-3.32-4.66-7.99-8.57-10.31-8.67Z"/>
  </g>
  <g>
    <path d="M887.72,858.19c17.36,2.69,34.73,5.35,52.11,7.95,9.28,10.92,18.96,21.46,28.75,31.92-13.02-1.51-26.05-3.05-39.07-4.6,2.66,3.05,6.36,5.84,8.64,6.54,15.45,5.02,30.94,9.91,46.48,14.61,22.51,22.74,46.09,44.36,70,65.6-10.14,4.17-15.23,6.35-25.48,10.92-1.55.56.51,3.95,4.99,8.05,14.61.44,29.23.87,43.84,1.31,16.95,14.42,34.06,28.64,51.32,42.69-21.25,0-42.51,0-63.76,0-22.12-19.8-43.92-39.91-65.32-60.49-6.85-7.38-20.9-18.22-15.98-28.97,7.44-2.2,11.15-3.27,18.56-5.33-2.84-2.73-4.24-4.09-7-6.78-10.75-2.92-21.49-5.88-32.21-8.89-14.71-4.76-28.37-16.69-38.29-28.25-12.99-15.06-25.68-30.33-37.58-46.27Z"/>
    <path d="M876.4,820.28c1.14.23,1.71.35,2.85.57-13.73-22.49-26.27-45.5-32.82-71.21,3.68,1.12,5.54,1.68,9.26,2.79,6.94,25.52,19.82,48.26,33.83,70.47,1.15.23,1.72.34,2.88.57,1.13.22,1.16-.92.09-2.55-13.32-21.2-25.55-42.9-32.34-67.17,5.35,1.59,8.04,2.38,13.48,3.95,8.88,30.24,26.78,56.97,45.13,82.17,6.32,8.4,7.35,14.76,1.45,13.81-10.06-1.63-20.12-3.29-30.18-4.98-9.07-2.57-16.51-10.45-21.57-18.06-16.81-26.78-32.76-55.1-39.4-86.35,5.16,1.61,7.75,2.41,12.98,4.01,6.08,24.63,17.67,46.82,30.46,68.55,1.02,1.66,2.78,3.2,3.9,3.42Z"/>
    <path d="M847.45,664.2c9.02,4.17,13.63,6.24,23.14,10.34,4.61,1.99,6.43,7.32,4.48,12.11-8.5,20.86-7.64,41.43-3.6,63.08-14.72-4.49-29.38-9.1-44.02-13.83-2.68-23.9-.89-43.82,7.73-66.4,2.23-5.04,7.91-7.32,12.28-5.3ZM855.18,687.51c-2.78-1.14-4.16-1.72-6.9-2.87-2.28-.96-4.83.34-5.58,2.96-3.16,10.45-3.69,20.75-4.02,31.57,6.35,2.26,9.57,3.39,16.08,5.63.07-10.59.34-20.67,3.27-30.96.69-2.57-.53-5.38-2.85-6.33h0Z"/>
    <path d="M882.08,672.61c-13.14-5.75-26.15-11.7-39.09-17.87,3.98-6.45,6.6-9.4,12.91-14.87,12.5,6.43,25.17,12.47,37.93,18.37-5.72,5.38-8.1,8.24-11.75,14.38Z"/>
    <path d="M937.6,588.78c9.02,5.43,13.64,8.11,23.21,13.34,5.36,2.93,2.56,9.06-5.98,13.82-15.1,8.63-29.89,17.55-43.86,27.94-6.9,5.2-17,7.28-23.08,4.35-8.82-4.22-17.58-8.63-26.24-13.18,6.62-5.34,10.16-7.93,17.57-12.96,8.07,4.43,12.2,6.63,20.71,10.98,2.07,1.06,5.87.42,8.54-1.4,8-5.46,16.34-10.6,24.76-15.39,2.99-1.72,3.87-3.96,1.92-5.02-8.01-4.36-11.91-6.58-19.53-11.05,8.55-4.64,12.97-6.92,21.98-11.43Z"/>
    <path d="M1059.51,530.15c10.07,5.9,20.14,11.53,30.45,16.99-9.45,5.13-14.22,7.62-23.76,12.51-9.11-4.79-13.52-7.28-22.2-12.39-2.14,1.06-3.21,2.4-2.52,3.17,5.02,6.16,7.6,9.19,13.06,15.13-13.92,6.99-27.92,13.8-41.9,20.65-9.45-2.62-18.87-5.41-28.23-8.34-1.52-.51-4.32-.1-6.59.98,9.02,5.35,13.64,7.98,23.21,13.08-9.17,4.54-13.7,6.8-22.52,11.35-11.1-5.85-22.01-12.06-32.74-18.56,10.69-5.24,21.44-10.33,32.23-15.38,8.73-4.09,19.37-5.65,25.06-3.73,7.24,2.45,10.89,3.65,18.27,5.97,1.72-.83,2.59-1.25,4.31-2.08-3.86-4.01-5.73-6.03-9.38-10.13-2.87-3.22,1.61-8.68,10.47-12.93,11-5.28,21.93-10.68,32.77-16.29Z"/>
    <path d="M1101.39,517.9c.79.43,1.18.65,1.97,1.07,22.35-13.65,43.56-28.07,63.01-45.68,3.52,1.61,5.28,2.4,8.83,3.94-19.55,17.77-40.81,32.43-63.25,46.3,4.03,2.09,6.06,3.12,10.17,5.13-9.13,5.59-13.78,8.28-23.16,13.53-10.29-5.4-20.35-10.96-30.41-16.79,30.46-16.62,59.88-34.53,85.76-57.79,3.49,1.69,5.24,2.53,8.75,4.16-18.66,16.93-39.04,30.83-60.48,44-1.34.8-1.87,1.75-1.18,2.13Z"/>
    <path d="M1227.7,385.57c4.74,1.4,7.12,2.08,11.89,3.42-10.84,32.48-26.84,60.25-48.66,86.61-10.7-4.41-21.2-9-31.71-13.85,6.19-7.6,9.1-11.53,14.47-19.73,9.04,3.93,13.57,5.81,22.74,9.39,13.78-20.94,23.79-41.91,31.26-65.85Z"/>
    <path d="M1197.98,256.28c11.08,1.91,22.17,3.78,33.27,5.59,11.2,3.67,16.04,17.81,17.02,28.38,1.78,24.39,1.79,48.41-2.47,72.58-2.07,11.71-9.62,19.22-15.76,17.47-9.11-2.6-18.2-5.34-27.23-8.2,2.15-10.4,2.93-15.8,3.78-27.05,9.41,2.6,14.12,3.87,23.58,6.3,2.3.59,4.61-2.36,5-6.68,1.19-13.19,1.33-26.47.55-39.68-.28-4.78-2.7-9.15-5.23-9.64-10.41-2.04-15.59-3.1-25.95-5.27-1.82-11.43-3.99-22.5-6.56-33.78Z"/>
    <path d="M1242.33,250.8c-15.93-2.29-31.84-4.76-47.73-7.34-3.58-12.67-7.75-25.18-12.4-37.5,16.77,2.16,33.55,4.24,50.35,6.17,3.81,12.74,7.11,25.63,9.79,38.66Z"/>
    <path d="M1085.08,8.96c12.38.05,24.76.1,37.14.15,12.91,2.47,24.37,18,30.4,28.63,29.51,50.74,56.5,103.18,75.06,159.01-17.13-1.82-34.25-3.73-51.37-5.71-22.41-54.54-52.71-105.31-85.18-154.37-4.54-7.78-15.1-20.56-6.06-27.72ZM1141.66,61.25c-4.1-.12-6.16-.18-10.26-.3-3.42-.1-2.51,5.79,1.78,13.01,14.74,25.14,28.54,50.65,41.13,76.94,8.17.68,12.26,1.02,20.44,1.68-11.92-26.56-25.1-52.36-39.24-77.8-4.12-7.3-10.42-13.42-13.84-13.52h0Z"/>
  </g>
  <g>
    <path d="M1075.38,568.78c9.3,4.57,18.89,8.82,28.53,12.63-7.74,4.28-11.6,6.37-19.27,10.5-8.67-3.52-12.86-5.37-21.03-9.2-1.74.89-2.5,1.99-1.8,2.58,5.14,4.75,7.83,7.08,13.51,11.62-10.99,5.88-21.99,11.74-32.94,17.68-10.5-2.2-15.65-3.38-25.77-5.84-1.39-.37-3.72.04-5.49.97,8.63,4.05,13.07,6.01,22.27,9.8-7.09,3.91-10.56,5.86-17.32,9.77-10.6-4.47-21.01-9.11-31.42-14.03,8.3-4.51,16.68-8.89,25.09-13.18,6.85-3.51,15.76-5.04,20.95-3.66,6.6,1.76,9.94,2.61,16.7,4.24,1.36-.71,2.04-1.07,3.4-1.78-3.98-3.08-5.9-4.64-9.64-7.8-2.94-2.49.19-6.97,7.36-10.58,8.98-4.52,17.94-9.08,26.85-13.73Z"/>
    <path d="M1156.01,521.33c7.6,3.25,11.48,4.79,19.41,7.68,4.45,1.62,2.04,7.32-5.67,12.56-14.55,9.69-29.34,18.87-44.42,27.73-7.98,4.62-18.28,6.73-22.88,4.78-8.2-3.46-12.18-5.28-19.96-9.04,7.9-4.17,11.85-6.3,19.71-10.66,6.34,3,9.57,4.45,16.17,7.24,1.61.68,5.24-.11,8.09-1.79,8.32-4.84,16.57-9.87,24.66-15.08,2.79-1.79,3.75-3.76,2.17-4.39-6.51-2.57-9.69-3.92-15.96-6.72,7.59-4.79,11.33-7.25,18.67-12.34Z"/>
    <path d="M1188.84,507.22c.18.07.27.1.46.17.62.23,1.95-.26,2.97-1.1,12.52-10.39,23.79-21.57,33.96-34.28,4.11-5.08,9.93-8.55,13.27-7.58,2.25.65,3.37.97,5.64,1.6,3.37.93,2.85,5.96-1.42,11.07-16.5,19-34.29,35-54.2,50.37-3.37-1.12-5.04-1.69-8.35-2.88,16.27-12.36,31.58-25.14,45.51-40.15.88-.98,1.06-1.94.41-2.14-.26-.08-.4-.12-.66-.2-.55-.17-1.59.38-2.32,1.21-10.6,12.43-23.33,23.01-36.15,33.05-5.21,4.06-12.1,6.29-15.22,5.09-2.09-.81-3.14-1.22-5.21-2.05-3.08-1.24-1.21-5.36,4-9.31,19.69-15.39,35.44-31.15,50.53-51.09,3.4,1.13,5.1,1.68,8.54,2.75-11.97,16.24-25.38,30.84-41.04,43.55-1.01.83-1.34,1.69-.72,1.91Z"/>
    <path d="M1255.95,461.39c-9.92-2.5-19.83-5.39-29.55-8.59,4.95-7.28,7.28-11.04,11.6-18.83,10.08,3.09,20.32,5.89,30.58,8.33-4.75,7.9-7.29,11.72-12.64,19.1Z"/>
    <path d="M1262.25,409.37c3.77.96,5.66,1.42,9.46,2.33.73.18,1.77-.71,2.31-1.99,8.24-21.2,13.72-42.18,17.25-64.67,4.47.81,6.72,1.21,11.23,1.98-4.75,27.34-12.29,52.13-24.03,77.27-3.07,6.18-8.72,10.3-12.28,9.41-7.36-1.83-10.99-2.8-18.18-4.84-3.49-.99-3.83-6.55-1.09-12.64,10.42-24.88,16.56-49.18,19.82-75.95,4.41.91,6.62,1.35,11.05,2.21-3.06,22.32-8.1,43.14-15.91,64.24-.51,1.27-.34,2.44.39,2.63Z"/>
    <path d="M1303.63,338.46c-12.12-1.99-24.2-4.19-36.24-6.58.68-10.53.78-15.97.46-27.21,12.55,2.19,25.13,4.22,37.73,6.06-.29,11.46-.69,17-1.95,27.73Z"/>
    <path d="M1248.42,163.89c11.35.83,22.7,1.64,34.05,2.41,3.8,12.11,7.24,24.34,10.26,36.67-5.74-.49-8.6-.74-14.31-1.25,5.49,22.05,9.78,44,12.57,66.54,5.26.68,7.9,1.01,13.19,1.65.96,10.03,1.48,20.24,1.51,30.32-9.64-1.34-19.27-2.78-28.87-4.33-5.21-.83-9.86-9.73-11.09-20.33-4.04-30.54-11.13-59.92-20.34-89.3-4.12-12.59-3.13-22.85,3.04-22.39ZM1266.17,200.61c-2.55-.24-3.37,3.89-1.98,9.13,4.01,15.86,7.55,31.73,10.08,47.9.73,4.78,3.11,8.83,5.45,9.15-3.13-22.44-7.74-44.27-13.54-66.18Z"/>
    <path d="M1158.08,2.98c17.7.02,35.4.04,53.1.06,10.91,20.39,21.35,40.96,31.27,61.85,2.96,7.74,11.39,23.91,2.5,31.08-6.69,2.94-10.01,4.38-16.61,7.22-1.47.63-1.22,3.98.52,7.92,11.46.53,22.91,1.05,34.37,1.55,5.18,13.19,10.2,26.41,14.74,39.84-15.3-.94-30.6-1.94-45.9-2.99-7.12-18.11-15.14-35.83-23.45-53.42-3.07-7.52-11.81-23.14-3.61-30.49,6.7-3.17,10.08-4.79,16.87-8.07.7-.33.48-2.03-.51-4.02-.93-1.87-1.41-2.81-2.36-4.69-11.68-.21-23.36-.44-35.03-.67-8.34-15.23-17.03-30.24-25.9-45.17Z"/>
  </g>
  <g>
    <path d="M1125.76,586.79c11.99,2.88,24.11,5.23,36.28,7.21-7.18,4.57-10.77,6.81-17.88,11.24-11.17-1.92-16.57-2.99-27.08-5.3-1.64.95-2.12,1.96-1.12,2.38,7.46,3.44,11.36,5.1,19.55,8.28-10.18,6.3-20.37,12.58-30.52,18.94-10.47-.62-20.96-1.43-31.4-2.45-1.71-.19-4.18.39-5.83,1.36,9.57,2.34,19.23,4.46,28.9,6.35-6.56,4.18-9.78,6.26-16.03,10.42-13.59-2.93-27.12-5.99-40.53-9.66,9.03-5.43,13.74-8.14,23.39-13.63,6.42-3.65,15.82-5.79,22.16-5.13,8.07.84,12.15,1.22,20.43,1.88,1.26-.76,1.9-1.14,3.17-1.9-5.67-2.19-8.41-3.32-13.76-5.62-4.2-1.81-2.2-5.97,4.62-9.79,8.58-4.8,17.13-9.65,25.63-14.59Z"/>
    <path d="M1203.93,535.75c8.41,2.34,13.37,2.83,22.71,4.32,5.24.84,3.89,6.1-3.31,11.62-13.4,10.32-27.3,20-41.38,29.37-7.41,4.92-18.29,8.01-24.12,6.96-10.41-1.88-16.45-2.25-25.23-5.23,7.59-4.46,11.39-6.74,18.98-11.42,7.12,2.33,11.85,2.64,20.1,4.14,2.01.37,5.83-.77,8.52-2.55,7.86-5.19,15.65-10.54,23.28-16.05,2.64-1.9,3.21-3.73,1.31-4.06-7.83-1.36-12.14-1.71-19.12-3.79,7.4-5.17,11.06-7.83,18.27-13.32Z"/>
    <path d="M1237.53,518.85c.21.04.31.06.52.1.7.13,2.08-.48,3.06-1.36,12.34-11.21,24-23.18,34.57-36.09,4.37-5.29,10.54-9.46,14.03-9.17,2.35.2,3.53.29,5.91.46,3.54.25,3.06,5.05-1.32,10.57-16.11,19.66-33.24,36.94-52.49,53.51-3.95-.54-5.91-.83-9.77-1.44,15.95-13,30.54-27.22,44.29-42.51.91-1.05,1.08-1.97.37-2.05-.28-.04-.43-.05-.71-.09-.59-.07-1.69.58-2.46,1.46-11.23,12.42-22.92,24.05-35.58,35.01-4.99,4.29-12.11,7.15-15.73,6.48-2.43-.45-3.64-.69-6.04-1.17-3.57-.72-2.13-4.69,3-8.96,19.18-16.41,36.43-33.68,52.38-53.26,3.66.77,5.29.7,8.86,1.09-13.07,16.37-27,31.35-42.38,45.57-.99.89-1.23,1.71-.53,1.85Z"/>
    <path d="M1306.93,466.46c-10.17-.39-20.45-1.17-30.55-2.42,5.48-7.42,8.1-11.25,13.01-19.2,10.2.84,20.54,1.2,30.77,1.23-5.03,8.4-7.69,12.47-13.23,20.39Z"/>
    <path d="M1315.41,416.88c3.65,0,5.49-.01,9.21-.07.72-.01,1.8-1.09,2.4-2.43,9.77-21.54,16.3-43.81,21.24-66.9,4.16-.34,6.25-.52,10.47-.92-6.3,28.17-15.38,54.49-28.02,80.45-3.32,6.52-9.17,11.63-12.74,11.61-7.37-.06-10.99-.15-18.12-.47-3.45-.15-3.42-5.2-.21-11.42,12.71-24.65,20.58-50.64,25.86-77.78,4.57.67,6.14-.27,10.25-.54-4.74,23-11.33,44.51-20.53,66.1-.59,1.31-.51,2.37.19,2.37Z"/>
    <path d="M1360.4,337.76c-11.19,1.02-22.33,1.9-33.54,2.57,1.35-9.21,2.24-18.62,2.67-27.92,11.58-.84,23.09-1.88,34.64-3.03-.82,9.47-2.09,19.02-3.77,28.38Z"/>
    <path d="M1320.87,166.43c10.55-.75,21.09-1.56,31.63-2.41,2.75,12.12,5.13,24.32,7.09,36.6-5.29.5-7.93.74-13.19,1.21,3.69,22.43,6.18,44.67,7.21,67.37,4.81-.48,7.23-.73,12.08-1.26.2,10.22-.02,20.56-.7,30.76-10.71,1.15-15.99,1.65-26.45,2.55-4.75.41-8.4-7.8-8.76-18.67-1.54-31.11-6.19-61.28-13.06-91.64-3.09-12.91-1.57-24.09,4.15-24.5ZM1335.14,202.8c-2.34.2-3.35,4.76-2.39,10.1,2.72,16.24,4.97,32.45,6.19,48.88.35,4.88,2.25,8.6,4.38,8.41-1.33-22.73-4.15-44.97-8.18-67.39Z"/>
    <path d="M1244.16,3.01c17.56-.02,35.12-.05,52.68-.08,8.87,20.05,17.25,40.25,25.09,60.72,2.56,8.82,8.69,23.93,0,31.6-6.6,3.6-9.86,5.4-16.32,8.99-1.44.8-1.41,4.32,0,8.32,10.84-.57,21.68-1.16,32.52-1.77,3.96,13.1,7.77,26.22,11.08,39.5-14.27,1.05-28.55,2.06-42.83,2.92-5.84-18.48-12.23-36.67-19.14-54.78-2.74-8.58-9.76-24.03-1.54-31.91,6.68-3.7,10.06-5.56,16.9-9.25.7-.38.63-2.09-.19-4.08-.76-1.86-1.14-2.8-1.92-4.67-11.35.27-22.69.54-34.04.77-7.11-15.59-14.61-30.97-22.3-46.28Z"/>
  </g>
  <g>
    <path d="M1304.09,1018.13c4.66.12,6.98.18,11.65.3.9.02.23-.95-1.48-2.16-24.15-17.24-48.05-34.78-71.62-52.79,5.27.39,7.91.58,13.19.96,28.74,21.95,57.99,43.19,87.56,64.01,8.76,6.14,12.61,11.23,8.25,11.21-8.99-.04-13.49-.05-22.48-.09-4.36-.02-15.59-5.35-24.72-11.75-30.7-21.62-61.04-43.68-90.83-66.53,5.23.4,7.85.6,13.1.99,23.89,18.28,48.12,36.07,72.6,53.56,1.73,1.23,3.88,2.26,4.78,2.28Z"/>
    <path d="M1155.61,890.14c9.41,1.64,18.29,6.76,25.45,12.95,16.82,14.79,34,29.1,51.46,43.13,8.99,7.16,11.25,12.76,4.47,12.23-7.19-.56-10.77-.84-17.93-1.41-10.79-1.75-21.01-7.97-29.47-14.62-17.89-14.47-35.47-29.23-52.66-44.53-7.3-6.58-7.08-10.98-.04-10.09,7.46.95,11.2,1.41,18.73,2.34ZM1176.58,909.74c-2.71-2.36-6.88-4.47-9.4-4.76-3.02-.35-4.53-.52-7.54-.87-2.51-.29-2.38,1.38.35,3.76,10.36,9.05,20.93,17.85,31.56,26.59,3.14,2.56,7.73,4.84,10.18,5.07,2.94.27,4.42.41,7.37.68,2.46.22,1.87-1.67-1.24-4.2-10.53-8.64-21-17.34-31.28-26.28Z"/>
    <path d="M1061.02,815.94c14.62,2.45,29.25,4.82,43.9,7.1,3.57,4.82,5.48,7.28,9.58,12.31-10.63-1.59-21.25-3.2-31.86-4.89.9,1.13,2.78,2.28,4.42,2.69,10.86,2.85,21.73,5.65,32.62,8.41,6.9,8.16,14.22,15.9,21.58,23.65-10.12.13-15.12.19-24.99.33-1.43-.01-1.48,1-.1,2.4,10.67,1.48,21.36,2.9,32.04,4.31,5.68,5.67,8.67,8.56,14.96,14.48-14.8-1.84-29.6-3.73-44.38-5.67-6.93-6.6-13.74-13.37-20.34-20.3-5-5.23-4.38-8.86,1.08-8.74,6.94.15,10.44.23,17.49.38-.89-.97-1.33-1.46-2.2-2.43-8.84-2.13-13.22-3.21-21.93-5.39-6.85-1.71-14.99-6.62-18.85-11.39-5.75-7.11-8.34-10.55-13.01-17.23Z"/>
    <path d="M1045.5,768.87c3.56.68,5.34,1.02,8.93,1.68,5.18.96,10.3,4.37,11.62,7.71,3.49,9.01,8.2,18.09,13.34,26.25,5.74.95,8.62,1.43,14.43,2.36,2.86,4.55,4.41,6.87,7.78,11.61-14.6-2.3-29.18-4.69-43.76-7.17-7.7-12.28-14.86-24.48-19.68-38.21-1.16-3.36,2.2-5.2,7.33-4.22ZM1054.08,779.82c-.4-.07-.6-.11-1-.18-.95-.18-1.52.18-1.26.81,3.38,8.15,5.51,12.37,10.76,21.21,1.83.32,2.75.48,4.58.79-5.29-8.83-7.44-13.05-10.88-21.19-.26-.62-1.24-1.26-2.2-1.44Z"/>
    <path d="M1033.56,728.9c10.4,2.28,15.71,3.38,26.59,5.5,6.1,1.19,10.99,5.03,11.12,8.72.29,8.33.91,12.63,3.32,21.66,1.07,4-3.25,6.4-9.89,5.2-9.73-1.74-19.44-3.58-29.13-5.51-1.04-4.01-1.44-5.97-2.03-9.83,9.23,1.88,13.91,2.8,23.42,4.58,2.31.43,3.95-.37,3.68-1.77-.92-4.89-1.21-7.27-1.47-11.94-.07-1.34-1.91-2.76-4.13-3.19-9.12-1.78-13.6-2.7-22.41-4.58.18-3.6.37-5.37.94-8.84Z"/>
    <path d="M1063.74,697.15c-4.24,4.67-6.23,7.03-9.88,11.85,9.71,2.04,14.68,3.03,24.87,4.9-2.54,3.5-5.06,5.48-5.75,8.82-10.26-1.95-15.25-2.97-25.02-5.08-1.41,4.67-1.96,7.04-2.67,11.91-4.61-.97-6.9-1.46-11.42-2.46,1.66-13.33,10.69-22.52,19.1-32.17,4.26.91,6.41,1.35,10.77,2.23Z"/>
    <path d="M1074.25,687.45c.8.15,1.21.23,2.02.38,8.41-7.87,16.91-15.23,25.83-22.53,2.81.47,4.23.7,7.08,1.16-8.85,7.36-17.27,14.79-25.61,22.72.82.15,1.23.22,2.05.37.81.14,1.86-.13,2.35-.62,7.81-7.78,16.18-14.86,24.62-21.93,4.1.64,6.17.94,10.35,1.54-10.13,8.45-19.88,17.37-28.92,26.99-2.31,2.47-7.47,3.91-11.59,3.17-8.48-1.53-12.64-2.33-20.78-3.99-3.95-.8-5.25-3.42-2.86-5.8,9.42-9.32,19.58-17.88,30.1-25.94,3.91.72,5.88,1.07,9.87,1.76-8.57,6.95-17.09,13.9-25.03,21.58-.5.48-.26.99.53,1.14Z"/>
    <path d="M1150.14,637.72c8.17-2.21,12.27-3.35,20.49-5.72-5.61,4.07-8.39,6.09-13.83,10.12-8.1,2.25-12.14,3.34-20.17,5.46-.14.04-.26.09-.35.16-4.44,3.27-6.63,4.9-10.91,8.16,4.45.65,6.7.96,11.25,1.56-4.11,3.23-6.13,4.84-10.07,8.08-11.33-1.67-22.6-3.47-33.88-5.44,12.26-9.04,24.7-17.72,37.31-26.27,3.97-2.66,10.53-4.33,14.66-3.75,2.42.34,3.64.51,6.09.83,4.19.55,4.47,3.2.63,5.94-.49.35-.73.52-1.22.87ZM1136.51,638.2c-.94-.14-2.4.24-3.26.84-8.6,5.97-12.79,8.93-20.85,14.87,1.4.23,2.11.34,3.52.56,8.02-5.96,12.19-8.93,20.75-14.93.86-.6.79-1.2-.16-1.33Z"/>
    <path d="M1185.46,605.18c3.52.39,5.29.58,8.87.93.69.07,1.83-.28,2.53-.78,11.01-7.78,21.93-15.68,32.71-23.78,3.58.27,5.4.39,9.05.6-12.8,9.89-25.85,19.45-38.96,28.92-3.46,2.5-9.18,4.25-12.74,3.89-7.35-.73-10.96-1.13-18.03-2.03-3.43-.43-3.24-2.74.39-5.15,13.76-9.14,27.47-18.39,40.9-28.01,3.43.37,5.16.55,8.66.88-10.97,8.02-22.1,15.82-33.31,23.5-.72.49-.75.96-.07,1.03Z"/>
    <path d="M1271.07,538.11c4.32.3,6.51.43,10.95.63,4.19.19,3.93,3.82-.76,8.04-9.89,8.92-20.08,17.51-30.49,25.82-4.86,3.89-12.61,6.75-17.18,6.43-4.84-.34-7.23-.54-11.94-.98-4.45-.41-3.81-3.79,1.29-7.58,10.92-8.11,21.62-16.51,32-25.3,4.91-4.16,12.06-7.35,16.13-7.07h0ZM1266.84,551.7c1.72-1.48,1.86-2.75.35-2.84-1.82-.11-2.73-.16-4.53-.28-1.5-.1-4.11,1.01-5.86,2.48-7.52,6.31-11.35,9.37-19.05,15.35-1.79,1.39-1.98,2.61-.41,2.73,1.88.15,2.83.22,4.73.36,1.58.11,4.31-.93,6.06-2.33,7.56-6.03,11.32-9.12,18.71-15.47Z"/>
    <path d="M1320.51,474.65c9.47.12,14.33.06,24.35-.33-4.1,5.99-6.2,8.93-10.5,14.72-7.23.12-10.76.11-17.68-.04-.96,1.25-1.19,2.32-.52,2.54,5.03,1.89,7.6,2.79,12.89,4.52-6.01,7.9-12.37,15.89-19.35,22.98-8.04,1.24-12.01,1.79-19.87,2.76-1.09.11-2.68.98-3.76,2.04,7.14.47,10.79.63,18.26.81-4.31,4.42-6.5,6.59-10.94,10.86-10.63-.3-15.76-.59-25.74-1.44,6.4-5.8,9.55-8.78,15.7-14.91,4.08-4.08,9.93-7.45,13.96-7.89,5.11-.56,7.7-.9,12.97-1.74.83-.98,1.24-1.47,2.06-2.46-3.59-1.14-5.35-1.74-8.82-2.96-2.73-.96-1.62-5.28,2.42-10.29,6.02-7.46,8.94-11.29,14.56-19.15Z"/>
    <path d="M1364.95,405.2c2.11-.18,3.16-.28,5.29-.48,3.07-.29,3.65,4.03,1.11,9.54-6.47,13.47-13.41,26.47-21,39.35,3.23-.17,4.86-.26,8.14-.48-3.79,6.29-5.74,9.37-9.76,15.44-10.01.47-14.87.57-24.33.54,11.52-17.24,21.64-34.85,30.67-53.52,2.51-5.42,6.84-10.12,9.88-10.38ZM1360.38,421.4c-.23.02-.35.03-.58.04-.55.04-1.38.87-1.86,1.84-5.18,10.5-10.87,20.75-17.02,30.72,1.02-.03,1.54-.05,2.57-.09,6.15-10,11.85-20.28,17.03-30.82.48-.98.42-1.74-.13-1.7Z"/>
    <path d="M1381.87,329.68c7.19-.87,10.83-1.34,18.19-2.36,4.12-.57,6.2,5.75,4.28,13.91-3.79,14.97-8.14,29.54-13.23,44.12-2.75,7.49-8.44,13.76-12.4,14.19-7.06.76-10.53,1.09-17.37,1.65,2.83-6.93,4.17-10.47,6.66-17.68,5.69-.54,8.56-.85,14.39-1.52,1.42-.16,3.34-2.48,4.24-5.19,3.17-9.47,4.62-14.32,7.21-24.26.74-2.85.13-5.03-1.31-4.84-5.94.78-8.88,1.14-14.71,1.8,1.82-7.77,2.63-11.73,4.05-19.82Z"/>
    <path d="M1395.89,240.28c.23,10.85.4,21.66-.06,32.51,7.42-.96,11.16-1.47,18.7-2.55-.52,8.98-.89,13.39-1.83,22.04-7.39,1.08-11.05,1.59-18.3,2.55-.87,9.88-2.16,19.83-3.86,29.6-3.19.41-4.78.61-7.94,1,4.15-28.04,5.48-55.76,4.63-84.09,3.45-.41,5.19-.62,8.66-1.04Z"/>
    <path d="M1394.8,210.95c.67-.08,1.01-.11,1.68-.19-2.51-24.9-6.43-49.32-11.55-73.82,2.64-.21,3.96-.32,6.6-.53,4.91,24.45,8.65,48.82,10.97,73.65.67-.08,1.01-.12,1.68-.2.66-.08,1.11-1.32.98-2.79-2.03-23.88-5.84-47.43-10.48-70.93,3.78-.31,5.67-.47,9.46-.79,5.23,28.13,8.88,56.2,10.56,84.77.34,7.15-2.18,13.17-5.41,13.59-6.66.86-9.97,1.27-16.55,2.06-3.19.38-6.05-5.01-6.63-12.21-2.66-28.94-7.39-57.29-13.74-85.64,3.75-.29,5.63-.43,9.4-.73,5.02,23.58,9.21,47.23,11.57,71.24.14,1.47.79,2.59,1.45,2.52Z"/>
    <path d="M1363.01,28.81c.97-10.89,1.43-16.39,2.29-27.44,4.77,12.95,9.42,25.92,13.73,39.03-1.26,10.6-1.92,15.85-3.3,26.27-.02.18,0,.41.08.66,3.1,10,6,20.09,8.67,30.21,4.4-.26,6.61-.4,11.02-.67,2.39,9.36,4.59,18.8,6.57,28.25-10.73.83-21.46,1.64-32.19,2.42-8.94-34.61-20.04-68.35-32.74-101.75-4.22-10.89-3.93-19.96,1.05-19.98,2.92,0,4.38-.02,7.3-.03,4.98-.02,12.46,8.89,16.32,19.63.49,1.36.73,2.04,1.22,3.4ZM1353.55,36.76c-1.06.02-1.23,1.97-.38,4.35,6.62,18.9,12.92,37.89,18.31,57.19,1.42-.08,2.13-.12,3.55-.21-5.29-19.25-11.5-38.21-18.02-57.07-.83-2.37-2.39-4.28-3.46-4.25Z"/>
  </g>
  <g>
    <path d="M1820.74,970.87c1.55,9.78,2.36,14.69,4.03,24.53,13.38-.02,26.76-.09,40.13-.18v17.64c-12.36.04-24.71.06-37.07.05,1.77,9.88,2.69,14.84,4.6,24.78-5.87,0-8.8,0-14.66-.01-5.99-22.14-11.58-44.35-16.77-66.69,7.86-.03,11.81-.06,19.73-.12Z"/>
    <path d="M1864.9,966.31c-21.6.32-43.2.55-64.8.69-1.56-6.9-2.31-10.34-3.78-17.21,22.86-.26,45.72-.63,68.58-1.12,0,7.05,0,10.58,0,17.64Z"/>
    <path d="M1780.17,862.7c28.26-1.35,56.5-2.93,84.73-4.71v17.64c-19.73,1.09-39.46,2.07-59.2,2.92.18,1.51,2.36,2.72,5.14,2.84,18.02,1,36.04,1.95,54.06,2.86,0,10.42,0,20.84,0,31.26-16.22,2.36-32.46,4.63-48.7,6.85-2.69.33-4.49,1.79-4.25,3.46,17.65-.41,35.3-.9,52.95-1.45,0,7.05,0,10.58,0,17.64-23.32.56-46.63,1-69.95,1.31-1.98-9.44-2.92-14.14-4.74-23.51-1.21-6.23,5.55-11.71,16.1-13.01,11.36-1.42,22.71-2.86,34.06-4.33-.07-1.26-.11-1.89-.18-3.14-11.73-.61-23.46-1.24-35.18-1.89-11.05-.62-19.99-5.65-21.05-11.82-1.58-9.19-2.34-13.77-3.78-22.9Z"/>
    <path d="M1806.06,838.27c2.03-.13,3.04-.2,5.08-.33-1.4-15.92-2.7-31.85-3.86-47.79,7.8-.73,11.72-1.1,19.61-1.87.77,16.14,1.64,32.28,2.57,48.42,2.06-.14,3.08-.22,5.15-.36,2.02-.14,3.63-1.09,3.59-2.11-.67-15.62-1.3-31.25-1.86-46.88,9.53-.94,19.05-1.92,28.57-2.93,0,19.3,0,38.61,0,57.91,0,5.19-8.1,9.95-17.99,10.58-16.77,1.08-33.55,2.05-50.33,2.95-9.62.51-17.96-3.1-18.69-8-2.65-18.12-5.09-36.26-7.33-54.44,10.88-.93,16.37-1.41,27.44-2.42,1.33,15.24,2.75,30.47,4.27,45.7.1,1,1.8,1.7,3.79,1.57Z"/>
    <path d="M1836.93,680.6c9.13-.96,27.27-2.47,27.97,11.99,0,17.99,0,35.98,0,53.96-32.73,4.15-65.48,8.02-98.27,11.59-1.55-15.45-2.99-30.91-4.32-46.38,1.31-12.33,16.98-18.58,27.4-19.9,9.38-1.18,16.98-.37,21.49,2.58,5.6-8.42,16.5-12.87,25.73-13.84ZM1803.06,737.12c-.61-10.23-.9-15.34-1.44-25.55-.07-1.28-2.54-1.96-5.52-1.53-2.97.43-5.31,1.79-5.23,3.06.63,10.13.96,15.2,1.67,25.35,4.19-.52,6.3-.78,10.52-1.32ZM1830.43,701.71c-3.47.53-6.23,2.15-6.18,3.62.32,9.63.67,19.26,1.04,28.89,4.87-.64,7.31-.96,12.22-1.62-.26-9.72-.5-19.44-.73-29.17-.03-1.49-2.89-2.26-6.36-1.73Z"/>
    <path d="M1791.98,616.44c24.34-5.01,48.64-10.19,72.92-15.51,0,7.06,0,10.58,0,17.64-10.94,2.26-21.88,4.5-32.83,6.71-.3,11.58-.59,23.16-.87,34.74,11.24-2.01,22.47-4.04,33.7-6.1v17.64c-25.59,4.41-51.19,8.66-76.83,12.75-13.59,2.15-24.07-1.01-23.65-6.92,1.1-15.2,2.28-30.39,3.52-45.59,2.73-9.48,15.55-13.68,24.04-15.35ZM1804.51,630.74c-5.68,1.11-10.37,4.08-10.52,6.66-.57,9.87-.84,14.81-1.36,24.69-.14,2.58,4.45,3.88,10.28,2.88.51-11.41,1.05-22.81,1.6-34.22Z"/>
    <path d="M1801.86,592.07c.62-.14.94-.21,1.56-.35,2.12-.48,3.89-1.68,3.94-2.68.67-12.39,1.36-24.77,2.07-37.16.29-5.02,8.73-11.27,19.01-14.05,6.92-1.87,10.4-2.82,17.42-4.74,10.43-2.86,19.03-1.05,19.03,4.14,0,19.3,0,38.61,0,57.91-9.69,2.18-19.38,4.33-29.09,6.44.4-15.68.81-31.35,1.25-47.03.03-1.02-1.66-1.41-3.76-.87-.85.22-1.28.33-2.13.55-1.78.45-3.24,1.52-3.27,2.38-.47,12.62-.92,25.24-1.36,37.86-.18,5.08-9.22,11.13-20.02,13.42-7.27,1.54-10.88,2.3-18.04,3.79-10.66,2.22-18.81-.04-18.37-4.96,1.65-18.29,3.36-36.58,5.12-54.86,10.26-2.64,15.45-3.99,25.94-6.76-1.03,15.34-2.04,30.67-3.02,46.01-.06,1,1.6,1.43,3.72.95Z"/>
    <path d="M1806.25,521.71c2.01-.57,3.01-.86,5.03-1.43.95-16.06,1.91-32.13,2.86-48.19,6.83-2.27,10.28-3.42,17.22-5.75-.63,16.23-1.26,32.46-1.89,48.69,2.05-.59,3.07-.89,5.12-1.49,2.02-.59,3.68-1.9,3.71-2.92.45-15.7.91-31.39,1.36-47.09,9.98-3.38,15.03-5.1,25.24-8.61,0,19.3,0,38.61,0,57.91,0,5.19-8.55,11.82-18.92,14.71-17.44,4.84-34.9,9.61-52.38,14.29-9.93,2.65-17.47.73-16.98-4.19,1.81-18.35,3.64-36.71,5.47-55.06,9.47-3.06,14.25-4.62,23.93-7.82-1.07,15.38-2.14,30.76-3.2,46.14-.07,1,1.47,1.36,3.44.8Z"/>
    <path d="M1804.28,403.91c14.87-5.97,29.71-12.01,44.51-18.14,8.83-3.65,16.11-2.49,16.11,2.7,0,19.97,0,39.93,0,59.9-27.33,9.54-54.72,18.88-82.2,27.97,1.89-19.12,3.76-38.23,5.58-57.36.47-4.99,7.56-11.7,15.99-15.08ZM1832.11,409.71c-5.33,2.09-7.97,3.12-13.23,5.16-4.38,1.7-8.03,5.1-8.19,7.63-.62,9.49-1.26,18.98-1.9,28.46,10.14-3.58,20.26-7.21,30.38-10.85.29-9.64.58-19.29.86-28.93.08-2.56-3.49-3.21-7.93-1.47h0Z"/>
    <path d="M1803.41,284.67c20.56-8.94,41.05-18.01,61.5-27.2,0,7.05,0,10.58,0,17.64-15.34,6.94-30.7,13.83-46.1,20.62-.14,1.64,1.31,2.34,3.44,1.65,14.26-4.44,28.47-9,42.66-13.64,0,10.42,0,20.84,0,31.26-15.28,8.68-30.58,17.32-45.91,25.91-2.56,1.39-4.56,3.71-4.72,5.48,16.92-7.43,33.79-14.94,50.64-22.53,0,7.06,0,10.58,0,17.64-23.98,10.73-48.03,21.29-72.17,31.67,1.32-10.15,1.97-15.24,3.25-25.43.85-6.78,8.23-15.46,17.57-20.58,10-5.5,19.99-11.01,29.97-16.54.05-1.3.08-1.95.13-3.25-9.7,3.3-19.42,6.54-29.16,9.71-8.97,2.92-14.77-.06-13.98-6.89,1.18-10.17,1.76-15.27,2.88-25.5Z"/>
    <path d="M1825.54,250.83c1.35-.58,2.03-.88,3.38-1.46,1.1-17.35,2.14-34.69,3.09-52.05,4.45-1.79,6.69-2.7,11.19-4.53-.64,17.09-1.33,34.17-2.06,51.25,1.37-.6,2.06-.9,3.44-1.51,1.35-.59,2.48-1.94,2.52-3,.54-16.31,1.04-32.63,1.49-48.95,6.47-2.64,9.73-3.98,16.3-6.69,0,19.3,0,38.61,0,57.91,0,5.19-5.82,12.01-12.88,15.16-11.88,5.3-23.78,10.55-35.71,15.74-6.78,2.95-11.71.81-11.13-4.73,2.13-20.75,4.09-41.51,5.86-62.3,6.21-2.46,9.35-3.71,15.67-6.24-1.03,16.82-2.19,33.64-3.43,50.44-.08,1.09.93,1.51,2.25.94Z"/>
    <path d="M1826.45,119.59c9.46-2.78,18.92-5.6,28.36-8.46,5.56-1.68,10.1,1.13,10.1,6.32,0,19.97,0,39.93,0,59.9-17.72,7.18-35.47,14.26-53.27,21.23,1.72-21.89,3.21-43.78,4.46-65.7.31-5.75,4.92-11.69,10.35-13.29ZM1844.21,132.63c-3.39,1.12-5.07,1.68-8.44,2.79-2.8.92-5.15,3.92-5.28,6.7-.46,10.45-.97,20.89-1.54,31.33,7.74-2.91,11.65-4.39,19.54-7.41.26-10.08.51-20.17.72-30.25.06-2.68-2.19-4.09-5.01-3.15h0Z"/>
    <path d="M1864.9,101.79c-15.94,4.68-31.92,9.24-47.93,13.7.37-7.86.54-11.8.84-19.7,15.72-3.78,31.42-7.65,47.09-11.63,0,7.06,0,10.58,0,17.64Z"/>
    <path d="M1830.64,8c11.42-.28,22.84-.56,34.27-.84,0,7.06,0,10.58,0,17.64-6.02.51-9.03.77-15.04,1.27-.05,12.33-.15,24.67-.28,37,6.11-1.15,9.17-1.73,15.32-2.92,0,7.06,0,10.58,0,17.64-11.77,2.81-23.56,5.56-35.36,8.26-6.36,1.45-11.27-3.06-11.06-10.09.48-18.23.78-36.46.89-54.7.02-7.15,5.04-13.1,11.26-13.25ZM1837.01,27.12c-2.68.22-4.86,2.8-4.88,5.75-.08,9.41-.2,18.81-.39,28.22-.06,2.94,2.09,4.91,4.8,4.41.24-12.79.39-25.58.47-38.38Z"/>
  </g>
  <g>
    <path d="M1680.84,1030.9c-32.68-.25-65.36-.55-98.04-.91-14.95-12.85-29.78-25.82-44.33-39.12,36.99,1.24,73.99,2.26,111,3.06,10.19,12.54,20.69,24.83,31.36,36.97Z"/>
    <path d="M1394.44,825.35c49.41,1.65,98.81,2.14,148.25,1.64,4.67,10.1,9.5,20.03,14.55,29.95-35.02-.13-70.01-.7-105.01-1.77,1.73,2.61,6.76,4.97,11.84,5.54,33.72,4.07,67.47,7.8,101.26,11.24,11.05,19.45,22.82,38.3,35.29,56.86-25.61,2.61-51.23,5.13-76.86,7.6-4.21.33-5.12,2.97-2.09,6.29,30.25,1.23,60.51,2.23,90.78,2.99,8.54,11.72,17.27,23.27,26.19,34.71-38.46-.92-76.91-2.14-115.35-3.64-16.62-15.8-32.86-31.91-48.68-48.51-12.24-10.07-4.59-23.48,9.91-22.7,18.52-1.17,37.04-2.42,55.55-3.74-1.63-2.31-2.44-3.46-4.02-5.75-21.8-2.5-43.59-5.11-65.37-7.85-17.01-2.26-39.14-9.48-50.06-23.86-9.29-12.6-18.18-25.54-26.17-39.01Z"/>
    <path d="M1407.4,710.12c38.02-2.03,75.96-4.91,113.87-8.46-2.92,9.83-5.6,19.79-7.98,29.76-17.55,1.28-35.09,2.44-52.66,3.46-.15,19.12,7.33,36.28,14.1,54.06,17.35-.34,34.7-.81,52.04-1.38,3.42,9.67,7.19,19.3,11.23,28.73-38,.6-75.98.62-113.98-.02-14.73-.33-35.53-4.49-44.26-17.93-10.37-22.29-23.84-45.47-14.42-69.64,7.6-13.55,28-17.84,42.07-18.57ZM1417.61,736.93c-8.76.34-18.29,4.27-17.25,8.07,3.48,12.62,7.73,25.03,12.67,37.15,1.62,3.97,10.04,7.26,18.8,7.23-6.98-17.21-14.68-33.76-14.23-52.45Z"/>
    <path d="M1438.93,672.75c14.03-1.25,28.05-2.66,42.06-4.13,3.33-.36,6.61-2.01,7.31-3.67,6.45-15.27,13.25-30.39,20.32-45.38.78-1.67-1.12-2.62-4.24-2.13-11.53,1.81-23.08,3.53-34.65,5.16,5.05-9.23,10.16-18.42,15.31-27.6,27.05-4.61,53.97-9.85,80.83-15.41-12.94,31.91-25.5,63.9-36.6,96.51-6.67,12.89-24.08,17.38-37.33,18.85-28.77,2.57-57.55,4.73-86.39,6.41-9.11.96-23.58-.75-21.17-12.66,16.35-29.66,34.66-58.01,53.31-86.26,12.58-1.8,25.13-3.75,37.66-5.82-14.07,24.32-27.9,48.73-40.73,73.74-.8,1.6,1.11,2.67,4.28,2.39Z"/>
    <path d="M1570.44,568.41c-41.81,9.13-83.77,17.27-126.05,23.96,5.97-9.04,11.92-18.09,17.84-27.17,40.42-7.68,80.49-16.74,120.4-26.76-4.05,10-8.11,19.99-12.19,29.98Z"/>
    <path d="M1531.7,442.18c33.59-9.9,66.75-21.12,99.7-32.97-6.36,17.2-13.42,34.2-19.2,51.6-5.79,14.87-21.97,26.26-36.39,31.8-16.39,6.52-32.84,12.85-49.39,18.97-4.29,1.57-8.49,4.78-10.03,7.64,27.78-7.09,55.36-14.79,82.83-22.97-3.95,10.26-7.95,20.5-12,30.72-39.19,10.33-78.54,19.74-118.26,27.76,8.06-12.75,15.94-25.58,23.62-38.57,8.16-12.57,21.99-22.9,35.96-28.23,15.82-6.26,31.51-12.8,47.15-19.48,1.98-.85,3.83-2.51,4.4-3.94.53-1.34.8-2.01,1.33-3.35-23.28,7.54-46.64,14.76-70.24,21.22,7.05-13.3,13.89-26.68,20.53-40.2Z"/>
    <path d="M1586.97,375.3c2.12-.7,3.18-1.06,5.31-1.77,15.2-42.35,27.26-85.27,35.97-129.42,7.04-2.07,10.6-3.13,17.79-5.32-8.44,43.59-19.96,86.1-34.33,128.11,2.2-.77,3.31-1.15,5.53-1.93,2.18-.77,4.66-3.44,5.51-5.98,13.23-40.36,23.92-81.11,31.92-122.83,10.37-3.19,15.63-4.84,26.31-8.27-8.98,49.19-21.44,97.26-36.87,144.81-4.3,13.18-16.53,24.72-29.08,29.89-19.09,6.69-38.23,13.21-57.53,19.26-10.63,3.34-14.3-4.13-8.92-16.71,20.58-49.19,36.3-99.33,46.79-151.64,9.67-2.67,14.57-4.05,24.53-6.93-8.48,42.77-20.18,84.34-34.95,125.35-.95,2.57-.05,4.09,2.03,3.4Z"/>
    <path d="M1619.25,11.39c18.1-.28,36.2-.57,54.29-.88,13.23,1.13,20.59,16.81,20.51,28.71,1.52,57.52-1.76,114.35-10.19,171.27-28.27,8.56-56.65,16.67-85.19,24.26,9.65-63.18,10.9-126.29,5.37-189.93-.96-11.54.51-31.38,15.22-33.43ZM1657.68,68.07c-6.06.62-9.08.92-15.1,1.52-5.02.5-8.77,7.79-8.57,16.18.46,30.4-.52,60.57-3.09,90.87,10.69-2.47,21.36-4.99,32.02-7.55,2.68-29.1,4.01-58.13,4.08-87.35-.04-8.02-4.29-14.18-9.33-13.67,0,0,0,0,0,0Z"/>
  </g>
  <g>
    <path d="M1708.29,995.68c2.93.04,4.39.06,7.33.09-19.3-32.69-36.88-66.06-52.45-100.69,14.02-.09,28.04-.23,42.06-.42,12.41,34.57,26.54,68.26,42.28,101.44,12.52.1,25.04.18,37.56.22,3.96,11.82,8.1,23.58,12.41,35.28-32.42-.09-64.84-.24-97.27-.45-34.53-43.18-66.25-87.98-93.45-136.16,13.59.11,27.19.16,40.78.14,16.07,33.33,34.09,65.39,53.73,96.75,1.31,2.06,4.45,3.76,7.01,3.8Z"/>
    <path d="M1554.62,773.13c40.88-2.27,81.7-5.22,122.5-8.73,14.96-.57,51.87-2.06,56.62,18.98,4.05,25.4,8.67,50.64,13.91,75.82,3.38,20.23-26.06,24.57-39.49,25.87-35.45.66-70.9.94-106.36.81-5.34-10.18-10.48-20.38-15.48-30.73,30.53-.26,61.04-.84,91.55-1.72,9.16-.28,15.54-4.35,14.2-9.03-3.73-13.43-7.33-26.88-10.55-40.44-1.09-4.59-10.01-7.76-19.85-7.15-32.53,1.97-65.06,3.58-97.63,4.78-3.41-9.38-6.56-18.91-9.43-28.47Z"/>
    <path d="M1615.07,648.7c-3.51,14.31-6.84,28.65-9.96,43.05,41.26-5.18,82.41-11.01,123.49-17.38-1.1,11.02-2.14,22.04-3.13,33.07-42.05,5.63-84.14,10.71-126.33,15.12-.83,14.58,2.72,27.13,6.13,41.26-17.46,1.25-34.92,2.4-52.4,3.44-5.86-20.94-8.33-33.63-3.29-54.63,4.56-19.02,10.02-37.78,15.73-56.49,16.61-2.35,33.19-4.85,49.77-7.43Z"/>
    <path d="M1606.76,536.8c33.69-8.86,67.21-18.29,100.61-28.17,9.8-2.23,43.41-9.26,40.71,11.25-3.55,25.54-7.05,51.08-10.38,76.65-3.96,21.16-36.36,30.97-54.01,34.2-38.72,7-77.52,13.46-116.45,19.24,3.12-9.85,6.37-19.67,9.72-29.44,30.67-5.38,61.25-11.19,91.77-17.36,9.33-1.9,17.76-7.31,18.68-11.99,2.68-13.65,5.45-27.28,8.23-40.91.96-4.7-5.44-6.62-14.14-4.36-28.43,7.31-56.93,14.29-85.54,20.88,3.61-9.99,7.21-19.97,10.8-29.97Z"/>
    <path d="M1726.41,388.53c16.16-16.5,32.08-33.21,47.8-50.13-2.5,15.65-5.14,31.28-7.85,46.89-15.85,15.97-32.14,31.44-48.7,46.66-.33.3-.55.62-.6.89-2.17,11.2-4.37,22.39-6.61,33.58,15.81-5.42,31.58-10.97,47.32-16.58-1.51,11.12-3.03,22.25-4.57,33.37-47.23,15.2-94.69,29.57-142.54,42.72,13-36.71,24.49-73.9,37.44-110.62,5.27-15.18,20.04-28.74,34.62-34.69,8.67-3.38,13.08-5.12,22.02-8.69,9.67-4.71,27.09-2.54,22.66,12.44-.39,1.66-.59,2.49-.98,4.16ZM1682.55,414.42c-3.55,1.37-7.14,4.86-8.07,7.81-5.79,20.52-11.07,41.19-16.83,61.73,5.6-1.8,8.43-2.72,14.13-4.59,5.34-20.68,10.22-41.47,15.65-62.12.87-2.94-1.34-4.2-4.88-2.83Z"/>
    <path d="M1707.94,322.5c2.45-.97,3.68-1.46,6.15-2.44,8.97-39.03,16.45-78.25,22.2-117.89,7.76-2.62,11.67-3.95,19.59-6.69-5.07,38.76-11.59,77.2-19.34,115.51,2.54-1.04,3.82-1.56,6.39-2.62,2.52-1.03,4.93-3.77,5.38-6.1,6.78-36.54,12.53-73.19,17.08-110.08,9.68-3.37,19.33-6.79,28.97-10.26-4.11,42.95-9.47,85.71-15.79,128.39-2.26,14.01-16.2,25.42-28.22,30.95-22.35,9.3-44.75,18.44-67.3,27.23-10.06,5.14-20.2-1.89-15.54-13.17,13.62-46.49,24.62-93.41,32.55-141.21,9.02-2.9,18.03-5.85,27.02-8.86-5.82,38.56-13.36,76.68-22.41,114.6-.59,2.41.87,3.59,3.28,2.64Z"/>
    <path d="M1737.82,144.53c.6-.16.9-.24,1.5-.4,2.04-.54,3.9-3.13,4.12-5.77,2.64-33.7,3.93-67.37,3.91-101.17-.19-11.25,5.52-25.18,18.32-26.24,6.98-.17,10.47-.26,17.46-.44,11.7.24,18.94,11.38,18.83,22.25-.51,45.3-2.69,90.44-6.39,135.59-9.51,3.27-19.03,6.5-28.57,9.67,4.08-39.01,6.68-78.03,7.73-117.24.06-2.63-1.57-4.55-3.62-4.29-.83.11-1.25.16-2.08.26-1.73.22-3.17,2.23-3.21,4.5-.83,32.44-2.75,64.76-5.76,97.07-.99,12.33-10.3,24.57-21.64,29.07-7.07,2.28-10.57,3.39-17.51,5.58-12.03,4.16-16.96-9.41-15.33-18.8,5.95-53.94,7.62-107.71,5.29-161.92,10.79-.24,16.18-.37,26.99-.62,1.23,43.12.16,86.02-3.29,129.02-.23,2.69,1.22,4.43,3.26,3.89Z"/>
  </g>
  <g>
    <path d="M1353.61,997.12c10,.44,15.01.66,25.06,1.08,1.94.08,1.15-1.61-1.72-3.77-37.51-28.33-74.47-57.45-109.2-89.17,10.04.98,20.08,1.92,30.12,2.82,42.27,38.98,87.77,74.26,133.91,108.5,4.81,4.02,22.48,14.96,11.58,20.2-15.5-.11-31-.22-46.5-.33-16.64-1.38-34.34-12.6-47.51-22.15-50.54-36.37-100.63-73.83-146.7-115.82,9.72,1.09,19.45,2.14,29.18,3.16,35.85,32.55,74.06,62.34,112.83,91.3,2.98,2.21,7.01,4.09,8.94,4.18Z"/>
    <path d="M1136.62,790.35c13.39,1.87,26.81,3.61,40.24,5.22,13.34,1.93,30.23,7.64,38.26,19.46,15.33,23.39,33.88,44.2,53.16,64.36,9.7,7.62,7.43,21.72-7.13,17.95-13.49-1.34-26.98-2.75-40.45-4.23-17.51-2.36-36.81-11.91-49.23-24.59-19.47-20.39-38.26-41.49-52.76-65.8-7.95-11.91,11.35-13.76,17.93-12.36h0ZM1192.23,823.36c-2.44-3.41-8.8-6.66-14.35-7.34-6.66-.82-9.97-1.24-16.54-2.1-5.47-.71-8.08,1.4-5.69,4.83,9.65,13.92,20.7,26.71,31.99,39.31,3.57,3.89,11.09,7.65,16.58,8.3,6.6.77,9.92,1.16,16.59,1.9,5.55.62,7.03-2.07,3.49-5.91-11.27-12.52-22.32-25.23-32.09-38.98Z"/>
    <path d="M1126.81,691.42c27.75,3.74,55.62,6.21,83.55,8.05-5.99,7.61-8.8,11.44-13.93,19.23-20.83-1.71-41.62-3.68-62.34-6.39-1.23,1.64-.18,3.31,2.46,3.93,17.9,4.38,35.84,8.37,53.9,12.04-9.16,8.78-3.62,23.24-.7,33.5-19.77-.2-39.54-.58-59.29-1.4-3.26-.17-5.32,1.05-4.82,2.92,22.37,3.11,44.77,5.83,67.24,8.21,2.81,7.86,4.53,11.89,8.72,20.22-31.63-3.43-63.15-7.49-94.61-12.28-3.57-8.4-6.37-18.03-7.64-27.09-1.03-6.87,7.48-11.04,19.41-10.33,12.94.77,25.9,1.37,38.85,1.8-.15-1.31-.21-1.96-.33-3.26-12.92-2.54-25.81-5.29-38.63-8.29-11.66-2.73-17.18-9.87-12.35-16.56,6.19-8.69,13.28-16.48,20.5-24.31Z"/>
    <path d="M1232.97,616.55c6.09.23,9.18.32,15.46.45,9.05.18,11.05,5.1,4.27,11.08-16.22,14.38-32.24,28.89-47.72,44.06,10.87.65,16.44.92,27.83,1.33-6.95,7.48-10.29,11.22-16.57,18.78-27.69-1.64-55.32-3.91-82.84-7.45,22.25-21.1,46.19-39.98,70.47-58.67,8.33-5.97,18.85-9.57,29.12-9.57ZM1220.22,634.35c-.71-.03-1.06-.05-1.77-.08-1.68-.08-4.07.69-5.34,1.74-13.36,11.02-26.61,22.12-39.4,33.8,3.33.3,5.01.44,8.39.72,12.62-11.78,25.71-23,38.9-34.13,1.25-1.05.9-1.96-.78-2.04Z"/>
    <path d="M1311.61,535.91c14.26-.14,28.46-.99,42.68-2.05,10.06-.85,12.16,5.84,3.95,14.9-15.35,16.64-31.23,32.67-47.47,48.44-9.52,9.18-24.21,14.43-37.19,15.08-16.77.03-33.5-.23-50.25-1.1,7.86-6.04,15.69-12.13,23.45-18.3,13.11.46,26.23.55,39.35.31,3.99-.07,9.84-2.5,13.02-5.41,9.32-8.56,18.51-17.27,27.48-26.19,3.11-3.1,2.58-5.45-1.1-5.25-12.11.65-24.24.98-36.37.92,7.68-6.89,15.21-14.02,22.47-21.35Z"/>
    <path d="M1410.99,414.65c-7.97,16.44-16.58,32.33-25.98,48,13.37-1.52,26.64-3.58,39.9-5.8-6.43,11.13-13.2,22.06-20.28,32.79-13.53,1.87-27.05,3.56-40.67,4.63-9.34,12.77-19.05,24.83-29.78,36.47-7.35.34-10.95.44-17.99.53,32.07-33.88,57.35-72.47,78-114.23,6.61-.85,9.97-1.33,16.8-2.37Z"/>
    <path d="M1430.53,369.69c1.28-.22,1.92-.34,3.21-.57,12.85-39.25,20.39-78.75,23.6-119.92,4.92-.82,7.39-1.24,12.37-2.11-3.6,41.13-11.42,80.64-24.31,119.87,1.31-.25,1.97-.38,3.29-.64,1.3-.25,2.99-2.32,3.76-4.62,12.1-37.89,19.6-76.05,23.22-115.66,7.14-1.27,10.74-1.94,18.01-3.31-4.93,47.41-15.33,92.84-31.96,137.52-3.59,9.11-10.4,19.2-20.21,22.31-10.95,2.03-21.89,3.92-32.89,5.65-6.18.93-7.17-6.91-2.9-17.84,16.72-44.61,25.68-89.93,28.45-137.46,6.88-1.05,10.34-1.59,17.33-2.73-2.89,39.68-9.85,77.84-21.84,115.79-.76,2.29-.37,3.95.89,3.73Z"/>
    <path d="M1457.31,54.75c4.14-17.36,8.15-34.75,12.06-52.17,6.24,24.14,11.64,48.34,16.1,72.88-4.96,16.42-10.06,32.78-15.34,49.1-.11.33-.14.76-.08,1.21,2.15,17.95,3.73,35.84,4.69,53.9,8.37-1.16,12.58-1.76,21.05-3.01.45,16.24.11,32.52-.82,48.74-20.08,3.55-40.19,6.91-60.37,9.83-.22-63.08-11.07-124.4-27.98-185.05-2.18-9.88-9.43-35.79,6.29-38.86,5.95-.05,8.92-.07,14.87-.12,15.96,2.3,24.89,23.74,28.04,37.18.6,2.56.9,3.84,1.48,6.39ZM1436.43,70.42c-2.1.11-2.93,3.84-1.92,8.29,7.53,34.49,12.97,69.03,15.69,104.23,2.67-.34,4.01-.52,6.69-.87-2.5-35.04-7.64-69.43-14.85-103.8-.97-4.43-3.51-7.96-5.61-7.85Z"/>
  </g>
  <g>
    <path d="M1450.19,991.79c.66.03.99.04,1.64.07,2.24.09,1.82-1.62-.87-3.8-29.22-23.85-57.74-48.39-85.07-74.4-9.61-9.25-6.11-15.6,7.03-14.66,8.84.63,13.28.94,22.23,1.53,13.92,1.43,29.52,7.41,39.43,17.7,39.12,40.6,81.78,77.54,125.34,113.27-10.67-.11-16-.17-26.66-.29-39.2-30.9-77.48-62.78-113.94-96.89-2.02-1.91-5.68-3.57-8.21-3.73-1.03-.07-1.54-.1-2.57-.17-2.14-.14-2.49,1.05-.76,2.67,28.94,27.06,59.32,52.48,90.19,77.29,4.88,4.54,21.34,16.64,7.9,20.52-6.86-.08-10.29-.12-17.14-.21-16.77-1.22-34.63-12.02-47.67-22.01-47.32-36.04-93.96-73.32-136.35-115.16,11.09.97,22.19,1.91,33.29,2.82,32.62,32.44,67.37,62.35,103.13,91.28,2.74,2.2,6.81,4.07,9.04,4.17Z"/>
    <path d="M1309.57,858.86c11.63.96,23.26,1.85,34.9,2.67,2.73.19,3.88-.96,2.59-2.57-16.88-21.7-31.78-43.7-44.24-68.22,12.93.68,25.87,1.25,38.81,1.72,14.59,30.86,34.84,58.46,56.22,84.88,6.92,8.33,2.07,14.69-11.38,13.79-22.69-1.54-45.36-3.26-68.02-5.14-13.61-1.14-28.3-8.11-37.96-17.62-22.51-25.39-44.48-52.21-58.49-83.41,11.89,1.08,23.8,2.06,35.71,2.94,12.35,24.55,27.43,46.21,44.6,67.64,1.33,1.61,4.59,3.1,7.25,3.32Z"/>
    <path d="M1338.13,784.86c-39.82-1.4-79.55-3.7-119.25-7.13-3.61-8.88-5.02-13.18-7.15-21.59,39.12,3.09,78.26,4.94,117.49,5.81,3.01,8.99,4.77,13.56,8.91,22.91Z"/>
    <path d="M1251.92,729.25c2.59.11,3.89.16,6.5.26,12.49-22.53,27-42.99,42.98-63.17,8.69-.17,13.11-.29,22.08-.6-15.37,20.7-29.31,41.64-41.29,64.5,2.7.06,4.05.09,6.77.15,2.67.05,5.4-1.04,6.09-2.44,11.47-22.05,24.7-42.46,39.22-62.62,11.1-.5,22.19-1.08,33.29-1.73-16.42,25.21-31.05,50.79-42.69,78.57-2.06,10.56-15.89,10.63-23.63,11.44-22.86-.69-45.69-1.71-68.52-3.12-7.05-.41-23.22-2.94-23.21-12.72,14.25-26.19,32.01-48.97,51.74-71.24,9.95.12,19.91.1,29.85-.03-15.66,19.2-29.97,38.69-42.43,60.12-.74,1.34.71,2.52,3.26,2.63Z"/>
    <path d="M1342.73,582.59c30.48-2.71,60.72-6.64,90.93-11.45-7.96,11.13-16.03,22.17-24.11,33.21-8.52,11.4-24.55,17.38-37.9,20.05-15.19,2.66-30.39,5.13-45.63,7.42-3.97.58-8.26,2.54-10.19,4.68,24.78-1.19,49.48-2.98,74.18-5.25-5.62,7.8-11.16,15.67-16.57,23.62-34.97,2.34-69.92,3.72-104.98,3.8,9.12-9.78,18.45-19.37,27.85-28.88,9.92-9.12,24.11-15.14,37.4-17.18,14.76-2.48,29.47-5.15,44.16-8,1.85-.37,3.82-1.41,4.68-2.47.81-1,1.21-1.49,2.02-2.49-21.25,2.3-42.5,4.17-63.83,5.51,7.39-7.46,14.74-14.97,21.99-22.56Z"/>
    <path d="M1451.93,467.76c-9.34,15.8-18.85,31.44-29.48,46.41,19.01-3.49,37.87-7.46,56.7-11.82-5.37,9.1-10.99,18.09-16.78,26.93-19.73,4.06-39.51,7.87-59.43,10.87-9.38,11.69-18.96,23.15-28.75,34.5-10.86,1.26-16.16,1.8-26.5,2.71,30.75-32.85,58.06-66.89,81.81-105.18,8.75-1.6,13.23-2.48,22.42-4.43Z"/>
    <path d="M1509.99,446.01c-24.98,6.69-50.02,12.66-75.4,17.65,7.21-12.58,14.07-25.27,20.62-38.2,24.62-5.4,48.95-11.62,73.2-18.48-5.89,13.14-12.02,26.13-18.42,39.03Z"/>
    <path d="M1502.03,364.83c.47-.12.7-.18,1.17-.3,1.59-.4,3.63-2.77,4.51-5.3,11.07-32.6,19.43-65.53,25.3-99.45,1.74-11,6.85-25.36,18.35-29.56,5.51-1.23,8.28-1.86,13.86-3.15,11.75-1.8,12.87,14.51,11.24,22.11-9.12,49.59-23.19,97.2-42.12,143.92-9.21,2.68-13.72,3.95-22.57,6.35,16.09-38.27,28.69-77.17,37.86-117.66.59-2.74-.28-4.64-1.91-4.23-.66.17-.99.25-1.65.42-1.37.35-2.87,2.53-3.37,4.85-7.41,33.05-17.11,65.1-29.21,96.74-4.4,10.75-12.68,21.73-24.02,25.69-5.48,1.36-8.18,2.02-13.52,3.27-7.94,1.86-9.71-6.31-4.69-18.49,19.5-48.84,31.82-98.6,37.7-150.87,8.19-1.62,12.32-2.47,20.67-4.23-5.31,43.19-14.78,84.89-28.85,126.06-.89,2.53-.35,4.24,1.24,3.84Z"/>
    <path d="M1516.09,5.31c6.05,28.89,10.88,57.84,14.26,87.16,18.13-1.68,36.25-3.43,54.37-5.27.99,18.23,1.48,36.4,1.42,54.67-17.3,2.79-34.61,5.47-51.94,8.02.4,25.14-.39,49.99-2.52,75.03-8.81,1.81-13.17,2.67-21.81,4.34,5.44-75.71-3.29-150.06-20.57-223.81,10.72-.05,16.07-.08,26.79-.14Z"/>
  </g>
  <g>
    <path d="M920.82,771.92c24.69,6.35,49.5,11.84,74.46,16.98,18.06,3.89,36.17,15.65,47.19,30.46,65.54,90.32,167.7,157.46,257.71,220.25-47.48-.19-94.95-.34-142.43-.47-87.66-68.63-192.84-145.8-247.11-246.41-5.93-8.76-4.71-26.14,10.18-20.82ZM995.18,831.42c-10.65-1.9-13.08-2.32-21.12-3.8-6.7-1.23-7.23,4.31-.17,12.87,34.65,41.93,75.79,78.12,117.35,112.97,17.56,1.15,35.11,2.28,52.65,3.72-42.23-33.47-84.09-68.16-120.14-108.39-7.56-8.16-17.6-14.9-28.56-17.36,0,0,0,0,0,0Z"/>
    <path d="M933.05,725.58c10.02,3.09,20.06,5.89,30.2,8.56,3.02.78,5.62-.3,5.9-2.37,2.41-20.64,14.51-36.18,28.36-50.71,1.75-1.71,1.14-3.66-1.42-4.4-21.77-6.7-42.84-14.88-63.78-23.83,12.9-9.97,26.59-18.57,40.58-26.89,24.81,11.31,49.04,20.56,75.52,27.18,12.19,1.63,13.67,14.05,4.22,20.58-26.98,23.84-43.38,43.86-40.15,81.22,3.53,19.62-20.27,24.21-34.41,20.24-13.81-3.04-27.56-6.18-41.26-9.71-3.38-13.39-5.76-26.03-3.77-39.88Z"/>
  </g>
  <g>
    <path d="M265.45,723.51c24.22-7.7,48.53-14.95,73.05-21.64,19.19-4.54,14.17,23.75,12.59,33.17-23.95,102.27-18.59,205.23,3.64,307.35-47.42.04-94.84.09-142.27.15-8.69-91.73-4.19-182.46,15.8-272.46,4.45-18.63,18.39-39.82,37.19-46.56ZM294.94,783.14c-8.25,2.15-12.42,3.26-20.88,5.57-9.52,3.68-14.81,14.47-16.41,23.97-6.89,45.73-9.61,91.37-8.7,137.6,16.36-1.97,32.74-3.87,49.12-5.65-2.65-48.2-1.06-95.81,5.67-143.62,1.77-11.76-1.94-19.66-8.8-17.88,0,0,0,0,0,0Z"/>
    <path d="M320.73,630.98c11.26-3.41,22.57-6.68,33.93-9.78,2.9-.79,6.68-4.5,8.52-8.27,15.24-30.54,31.63-60.6,50.64-88.99,1.71-2.58.5-4.12-2.77-3.44-34.11,7.27-67.83,15.86-101.38,25.34,7.03-15.28,14.34-30.43,21.89-45.47,43.56-10.13,87.3-18.89,131.54-25.43,12.61-3.56,23.63,6.81,11.78,17.38-34.24,41.26-61.82,86.34-85.24,134.53-10.65,23.06-29.65,50.93-54.78,59.4-13.41,3.72-26.74,7.7-40.05,11.76,7.79-22.72,16.42-44.97,25.93-67.03Z"/>
  </g>
</svg>